<?xml version="1.0" standalone="no"?>
<!DOCTYPE svg PUBLIC "-//W3C//DTD SVG 1.1//EN" 
"http://www.w3.org/Graphics/SVG/1.1/DTD/svg11.dtd"> 
<svg
  xmlns="http://www.w3.org/2000/svg"
  version="1.1"
  width="11.7in" height="8.267in" viewBox="0 0 117000 82670 "
>
  <title>SVG Picture created as i186-cpucard-SilkS_Back.svg </title>
  <desc>Picture generated by wxSVG v0101 </desc>
  <g style="fill:black; stroke:black; stroke-width:1">
</g>
<g style="fill:#000000; fill-opacity:0.0; 
  stroke:#0000C0; stroke-linecap:round; stroke-linejoin:round; stroke-opacity:1.0; stroke-opacity:1.0; stroke-width:0" 
   transform="translate(0 0) scale(1 1)">
<path d="M49248 23250 L49252 23250" /> 
<path d="M49250 23248 L49250 23252" /> 
</g>
<g style="fill:#A000A0; fill-opacity:0.0; 
  stroke:#A000A0; stroke-linecap:round; stroke-linejoin:round; stroke-opacity:1.0; stroke-opacity:1.0; stroke-width:120" 
   transform="translate(0 0) scale(1 1)">
<path d="M58706 22964 L58764 22926" /> 
<path d="M58764 22926 L58878 22926" /> 
<path d="M58878 22926 L58935 22964" /> 
<path d="M58935 22964 L58992 23040" /> 
<path d="M58992 23040 L59021 23117" /> 
<path d="M59021 23117 L59021 23269" /> 
<path d="M59021 23269 L58992 23345" /> 
<path d="M58992 23345 L58935 23421" /> 
<path d="M58935 23421 L58878 23460" /> 
<path d="M58878 23460 L58764 23460" /> 
<path d="M58764 23460 L58706 23421" /> 
<g style = "stroke-linecap:round;" > 
<path d="M58706 23421 L58706 23421" /> 
</g><path d="M58821 22660 L58964 22698" /> 
<path d="M58964 22698 L59106 22812" /> 
<path d="M59106 22812 L59192 23002" /> 
<path d="M59192 23002 L59221 23193" /> 
<path d="M59221 23193 L59192 23383" /> 
<path d="M59192 23383 L59106 23574" /> 
<path d="M59106 23574 L58964 23688" /> 
<path d="M58964 23688 L58821 23726" /> 
<path d="M58821 23726 L58678 23688" /> 
<path d="M58678 23688 L58535 23574" /> 
<path d="M58535 23574 L58449 23383" /> 
<path d="M58449 23383 L58421 23193" /> 
<path d="M58421 23193 L58449 23002" /> 
<path d="M58449 23002 L58535 22812" /> 
<path d="M58535 22812 L58678 22698" /> 
<path d="M58678 22698 L58821 22660" /> 
<path d="M58077 23574 L58135 23536" /> 
<path d="M58135 23536 L58163 23498" /> 
<path d="M58163 23498 L58192 23421" /> 
<path d="M58192 23421 L58192 23193" /> 
<path d="M58192 23193 L58163 23117" /> 
<path d="M58163 23117 L58135 23079" /> 
<path d="M58135 23079 L58077 23040" /> 
<path d="M58077 23040 L57992 23040" /> 
<path d="M57992 23040 L57935 23079" /> 
<path d="M57935 23079 L57906 23117" /> 
<path d="M57906 23117 L57877 23193" /> 
<path d="M57877 23193 L57877 23421" /> 
<path d="M57877 23421 L57906 23498" /> 
<path d="M57906 23498 L57935 23536" /> 
<path d="M57935 23536 L57992 23574" /> 
<path d="M57992 23574 L58077 23574" /> 
<path d="M57620 23040 L57620 23840" /> 
<g style = "stroke-linecap:round;" > 
<path d="M57620 23840 L57620 23840" /> 
</g><path d="M57620 23079 L57563 23040" /> 
<path d="M57563 23040 L57449 23040" /> 
<path d="M57449 23040 L57392 23079" /> 
<path d="M57392 23079 L57363 23117" /> 
<path d="M57363 23117 L57334 23193" /> 
<path d="M57334 23193 L57334 23421" /> 
<path d="M57334 23421 L57363 23498" /> 
<path d="M57363 23498 L57392 23536" /> 
<path d="M57392 23536 L57449 23574" /> 
<path d="M57449 23574 L57563 23574" /> 
<path d="M57563 23574 L57620 23536" /> 
<g style = "stroke-linecap:round;" > 
<path d="M57620 23536 L57620 23536" /> 
</g><path d="M57134 23040 L56991 23574" /> 
<g style = "stroke-linecap:round;" > 
<path d="M56991 23574 L56991 23574" /> 
</g><path d="M56849 23040 L56991 23574" /> 
<path d="M56991 23574 L57049 23764" /> 
<path d="M57049 23764 L57077 23802" /> 
<path d="M57077 23802 L57134 23840" /> 
<g style = "stroke-linecap:round;" > 
<path d="M57134 23840 L57134 23840" /> 
</g><path d="M56534 23574 L56592 23536" /> 
<path d="M56592 23536 L56620 23460" /> 
<path d="M56620 23460 L56620 22774" /> 
<g style = "stroke-linecap:round;" > 
<path d="M56620 22774 L56620 22774" /> 
</g><path d="M56078 23536 L56135 23574" /> 
<path d="M56135 23574 L56249 23574" /> 
<path d="M56249 23574 L56306 23536" /> 
<path d="M56306 23536 L56335 23460" /> 
<path d="M56335 23460 L56335 23155" /> 
<path d="M56335 23155 L56306 23079" /> 
<path d="M56306 23079 L56249 23040" /> 
<path d="M56249 23040 L56135 23040" /> 
<path d="M56135 23040 L56078 23079" /> 
<path d="M56078 23079 L56049 23155" /> 
<path d="M56049 23155 L56049 23231" /> 
<path d="M56049 23231 L56335 23307" /> 
<g style = "stroke-linecap:round;" > 
<path d="M56335 23307 L56335 23307" /> 
</g><path d="M55878 23040 L55649 23040" /> 
<g style = "stroke-linecap:round;" > 
<path d="M55649 23040 L55649 23040" /> 
</g><path d="M55792 23574 L55792 22888" /> 
<path d="M55792 22888 L55764 22812" /> 
<path d="M55764 22812 L55706 22774" /> 
<path d="M55706 22774 L55649 22774" /> 
<g style = "stroke-linecap:round;" > 
<path d="M55649 22774 L55649 22774" /> 
</g><path d="M55535 23040 L55306 23040" /> 
<g style = "stroke-linecap:round;" > 
<path d="M55306 23040 L55306 23040" /> 
</g><path d="M55449 22774 L55449 23460" /> 
<path d="M55449 23460 L55421 23536" /> 
<path d="M55421 23536 L55363 23574" /> 
<path d="M55363 23574 L55306 23574" /> 
<g style = "stroke-linecap:round;" > 
<path d="M55306 23574 L55306 23574" /> 
</g><path d="M54678 23536 L54592 23574" /> 
<path d="M54592 23574 L54449 23574" /> 
<path d="M54449 23574 L54392 23536" /> 
<path d="M54392 23536 L54363 23498" /> 
<path d="M54363 23498 L54335 23421" /> 
<path d="M54335 23421 L54335 23345" /> 
<path d="M54335 23345 L54363 23269" /> 
<path d="M54363 23269 L54392 23231" /> 
<path d="M54392 23231 L54449 23193" /> 
<path d="M54449 23193 L54563 23155" /> 
<path d="M54563 23155 L54621 23117" /> 
<path d="M54621 23117 L54649 23079" /> 
<path d="M54649 23079 L54678 23002" /> 
<path d="M54678 23002 L54678 22926" /> 
<path d="M54678 22926 L54649 22850" /> 
<path d="M54649 22850 L54621 22812" /> 
<path d="M54621 22812 L54563 22774" /> 
<path d="M54563 22774 L54421 22774" /> 
<path d="M54421 22774 L54335 22812" /> 
<g style = "stroke-linecap:round;" > 
<path d="M54335 22812 L54335 22812" /> 
</g><path d="M54164 23040 L53935 23040" /> 
<g style = "stroke-linecap:round;" > 
<path d="M53935 23040 L53935 23040" /> 
</g><path d="M54078 22774 L54078 23460" /> 
<path d="M54078 23460 L54050 23536" /> 
<path d="M54050 23536 L53992 23574" /> 
<path d="M53992 23574 L53935 23574" /> 
<g style = "stroke-linecap:round;" > 
<path d="M53935 23574 L53935 23574" /> 
</g><path d="M53507 23536 L53564 23574" /> 
<path d="M53564 23574 L53678 23574" /> 
<path d="M53678 23574 L53735 23536" /> 
<path d="M53735 23536 L53764 23460" /> 
<path d="M53764 23460 L53764 23155" /> 
<path d="M53764 23155 L53735 23079" /> 
<path d="M53735 23079 L53678 23040" /> 
<path d="M53678 23040 L53564 23040" /> 
<path d="M53564 23040 L53507 23079" /> 
<path d="M53507 23079 L53478 23155" /> 
<path d="M53478 23155 L53478 23231" /> 
<path d="M53478 23231 L53764 23307" /> 
<g style = "stroke-linecap:round;" > 
<path d="M53764 23307 L53764 23307" /> 
</g><path d="M53278 23040 L53135 23574" /> 
<path d="M53135 23574 L52993 23040" /> 
<g style = "stroke-linecap:round;" > 
<path d="M52993 23040 L52993 23040" /> 
</g><path d="M52536 23536 L52593 23574" /> 
<path d="M52593 23574 L52707 23574" /> 
<path d="M52707 23574 L52764 23536" /> 
<path d="M52764 23536 L52793 23460" /> 
<path d="M52793 23460 L52793 23155" /> 
<path d="M52793 23155 L52764 23079" /> 
<path d="M52764 23079 L52707 23040" /> 
<path d="M52707 23040 L52593 23040" /> 
<path d="M52593 23040 L52536 23079" /> 
<path d="M52536 23079 L52507 23155" /> 
<path d="M52507 23155 L52507 23231" /> 
<path d="M52507 23231 L52793 23307" /> 
<g style = "stroke-linecap:round;" > 
<path d="M52793 23307 L52793 23307" /> 
</g><path d="M52250 23040 L52250 23574" /> 
<g style = "stroke-linecap:round;" > 
<path d="M52250 23574 L52250 23574" /> 
</g><path d="M52250 23117 L52222 23079" /> 
<path d="M52222 23079 L52164 23040" /> 
<path d="M52164 23040 L52079 23040" /> 
<path d="M52079 23040 L52022 23079" /> 
<path d="M52022 23079 L51993 23155" /> 
<path d="M51993 23155 L51993 23574" /> 
<g style = "stroke-linecap:round;" > 
<path d="M51993 23574 L51993 23574" /> 
</g><path d="M51279 23345 L50993 23345" /> 
<g style = "stroke-linecap:round;" > 
<path d="M50993 23345 L50993 23345" /> 
</g><path d="M51336 23574 L51136 22774" /> 
<path d="M51136 22774 L50936 23574" /> 
<g style = "stroke-linecap:round;" > 
<path d="M50936 23574 L50936 23574" /> 
</g><path d="M50736 23574 L50736 23040" /> 
<g style = "stroke-linecap:round;" > 
<path d="M50736 23040 L50736 23040" /> 
</g><path d="M50736 23193 L50708 23117" /> 
<path d="M50708 23117 L50679 23079" /> 
<path d="M50679 23079 L50622 23040" /> 
<path d="M50622 23040 L50565 23040" /> 
<g style = "stroke-linecap:round;" > 
<path d="M50565 23040 L50565 23040" /> 
</g><path d="M50365 23040 L50365 23574" /> 
<g style = "stroke-linecap:round;" > 
<path d="M50365 23574 L50365 23574" /> 
</g><path d="M50365 23117 L50337 23079" /> 
<path d="M50337 23079 L50279 23040" /> 
<path d="M50279 23040 L50194 23040" /> 
<path d="M50194 23040 L50137 23079" /> 
<path d="M50137 23079 L50108 23155" /> 
<path d="M50108 23155 L50108 23574" /> 
<g style = "stroke-linecap:round;" > 
<path d="M50108 23574 L50108 23574" /> 
</g><path d="M49736 23574 L49794 23536" /> 
<path d="M49794 23536 L49822 23498" /> 
<path d="M49822 23498 L49851 23421" /> 
<path d="M49851 23421 L49851 23193" /> 
<path d="M49851 23193 L49822 23117" /> 
<path d="M49822 23117 L49794 23079" /> 
<path d="M49794 23079 L49736 23040" /> 
<path d="M49736 23040 L49651 23040" /> 
<path d="M49651 23040 L49594 23079" /> 
<path d="M49594 23079 L49565 23117" /> 
<path d="M49565 23117 L49536 23193" /> 
<path d="M49536 23193 L49536 23421" /> 
<path d="M49536 23421 L49565 23498" /> 
<path d="M49565 23498 L49594 23536" /> 
<path d="M49594 23536 L49651 23574" /> 
<path d="M49651 23574 L49736 23574" /> 
<path d="M49336 23040 L49222 23574" /> 
<path d="M49222 23574 L49108 23193" /> 
<path d="M49108 23193 L48993 23574" /> 
<path d="M48993 23574 L48879 23040" /> 
<g style = "stroke-linecap:round;" > 
<path d="M48879 23040 L48879 23040" /> 
</g><path d="M48622 23536 L48622 23574" /> 
<path d="M48622 23574 L48650 23650" /> 
<path d="M48650 23650 L48679 23688" /> 
<g style = "stroke-linecap:round;" > 
<path d="M48679 23688 L48679 23688" /> 
</g><path d="M47936 23345 L47650 23345" /> 
<g style = "stroke-linecap:round;" > 
<path d="M47650 23345 L47650 23345" /> 
</g><path d="M47993 23574 L47793 22774" /> 
<path d="M47793 22774 L47593 23574" /> 
<g style = "stroke-linecap:round;" > 
<path d="M47593 23574 L47593 23574" /> 
</g><path d="M47450 23574 L47136 23040" /> 
<g style = "stroke-linecap:round;" > 
<path d="M47136 23040 L47136 23040" /> 
</g><path d="M47450 23040 L47136 23574" /> 
<g style = "stroke-linecap:round;" > 
<path d="M47136 23574 L47136 23574" /> 
</g><path d="M46679 23536 L46736 23574" /> 
<path d="M46736 23574 L46850 23574" /> 
<path d="M46850 23574 L46907 23536" /> 
<path d="M46907 23536 L46936 23460" /> 
<path d="M46936 23460 L46936 23155" /> 
<path d="M46936 23155 L46907 23079" /> 
<path d="M46907 23079 L46850 23040" /> 
<path d="M46850 23040 L46736 23040" /> 
<path d="M46736 23040 L46679 23079" /> 
<path d="M46679 23079 L46650 23155" /> 
<path d="M46650 23155 L46650 23231" /> 
<path d="M46650 23231 L46936 23307" /> 
<g style = "stroke-linecap:round;" > 
<path d="M46936 23307 L46936 23307" /> 
</g><path d="M46307 23574 L46365 23536" /> 
<path d="M46365 23536 L46393 23460" /> 
<path d="M46393 23460 L46393 22774" /> 
<g style = "stroke-linecap:round;" > 
<path d="M46393 22774 L46393 22774" /> 
</g><path d="M45622 23574 L45622 22774" /> 
<g style = "stroke-linecap:round;" > 
<path d="M45622 22774 L45622 22774" /> 
</g><path d="M45365 23536 L45308 23574" /> 
<path d="M45308 23574 L45193 23574" /> 
<path d="M45193 23574 L45136 23536" /> 
<path d="M45136 23536 L45108 23460" /> 
<path d="M45108 23460 L45108 23421" /> 
<path d="M45108 23421 L45136 23345" /> 
<path d="M45136 23345 L45193 23307" /> 
<path d="M45193 23307 L45279 23307" /> 
<path d="M45279 23307 L45336 23269" /> 
<path d="M45336 23269 L45365 23193" /> 
<path d="M45365 23193 L45365 23155" /> 
<path d="M45365 23155 L45336 23079" /> 
<path d="M45336 23079 L45279 23040" /> 
<path d="M45279 23040 L45193 23040" /> 
<path d="M45193 23040 L45136 23079" /> 
<g style = "stroke-linecap:round;" > 
<path d="M45136 23079 L45136 23079" /> 
</g><path d="M44593 23574 L44593 23155" /> 
<path d="M44593 23155 L44622 23079" /> 
<path d="M44622 23079 L44679 23040" /> 
<path d="M44679 23040 L44793 23040" /> 
<path d="M44793 23040 L44850 23079" /> 
<g style = "stroke-linecap:round;" > 
<path d="M44850 23079 L44850 23079" /> 
</g><path d="M44593 23536 L44650 23574" /> 
<path d="M44650 23574 L44793 23574" /> 
<path d="M44793 23574 L44850 23536" /> 
<path d="M44850 23536 L44879 23460" /> 
<path d="M44879 23460 L44879 23383" /> 
<path d="M44879 23383 L44850 23307" /> 
<path d="M44850 23307 L44793 23269" /> 
<path d="M44793 23269 L44650 23269" /> 
<path d="M44650 23269 L44593 23231" /> 
<g style = "stroke-linecap:round;" > 
<path d="M44593 23231 L44593 23231" /> 
</g><path d="M44307 23574 L44307 22774" /> 
<g style = "stroke-linecap:round;" > 
<path d="M44307 22774 L44307 22774" /> 
</g><path d="M44250 23269 L44079 23574" /> 
<g style = "stroke-linecap:round;" > 
<path d="M44079 23574 L44079 23574" /> 
</g><path d="M44079 23040 L44307 23345" /> 
<g style = "stroke-linecap:round;" > 
<path d="M44307 23345 L44307 23345" /> 
</g><path d="M43850 23536 L43793 23574" /> 
<path d="M43793 23574 L43678 23574" /> 
<path d="M43678 23574 L43621 23536" /> 
<path d="M43621 23536 L43593 23460" /> 
<path d="M43593 23460 L43593 23421" /> 
<path d="M43593 23421 L43621 23345" /> 
<path d="M43621 23345 L43678 23307" /> 
<path d="M43678 23307 L43764 23307" /> 
<path d="M43764 23307 L43821 23269" /> 
<path d="M43821 23269 L43850 23193" /> 
<path d="M43850 23193 L43850 23155" /> 
<path d="M43850 23155 L43821 23079" /> 
<path d="M43821 23079 L43764 23040" /> 
<path d="M43764 23040 L43678 23040" /> 
<path d="M43678 23040 L43621 23079" /> 
<g style = "stroke-linecap:round;" > 
<path d="M43621 23079 L43621 23079" /> 
</g><path d="M43364 23536 L43307 23574" /> 
<path d="M43307 23574 L43192 23574" /> 
<path d="M43192 23574 L43135 23536" /> 
<path d="M43135 23536 L43107 23460" /> 
<path d="M43107 23460 L43107 23421" /> 
<path d="M43107 23421 L43135 23345" /> 
<path d="M43135 23345 L43192 23307" /> 
<path d="M43192 23307 L43278 23307" /> 
<path d="M43278 23307 L43335 23269" /> 
<path d="M43335 23269 L43364 23193" /> 
<path d="M43364 23193 L43364 23155" /> 
<path d="M43364 23155 L43335 23079" /> 
<path d="M43335 23079 L43278 23040" /> 
<path d="M43278 23040 L43192 23040" /> 
<path d="M43192 23040 L43135 23079" /> 
<g style = "stroke-linecap:round;" > 
<path d="M43135 23079 L43135 23079" /> 
</g><path d="M42763 23574 L42821 23536" /> 
<path d="M42821 23536 L42849 23498" /> 
<path d="M42849 23498 L42878 23421" /> 
<path d="M42878 23421 L42878 23193" /> 
<path d="M42878 23193 L42849 23117" /> 
<path d="M42849 23117 L42821 23079" /> 
<path d="M42821 23079 L42763 23040" /> 
<path d="M42763 23040 L42678 23040" /> 
<path d="M42678 23040 L42621 23079" /> 
<path d="M42621 23079 L42592 23117" /> 
<path d="M42592 23117 L42563 23193" /> 
<path d="M42563 23193 L42563 23421" /> 
<path d="M42563 23421 L42592 23498" /> 
<path d="M42592 23498 L42621 23536" /> 
<path d="M42621 23536 L42678 23574" /> 
<path d="M42678 23574 L42763 23574" /> 
<path d="M42306 23040 L42306 23574" /> 
<g style = "stroke-linecap:round;" > 
<path d="M42306 23574 L42306 23574" /> 
</g><path d="M42306 23117 L42278 23079" /> 
<path d="M42278 23079 L42220 23040" /> 
<path d="M42220 23040 L42135 23040" /> 
<path d="M42135 23040 L42078 23079" /> 
<path d="M42078 23079 L42049 23155" /> 
<path d="M42049 23155 L42049 23574" /> 
<g style = "stroke-linecap:round;" > 
<path d="M42049 23574 L42049 23574" /> 
</g><path d="M41335 22850 L41306 22812" /> 
<path d="M41306 22812 L41249 22774" /> 
<path d="M41249 22774 L41106 22774" /> 
<path d="M41106 22774 L41049 22812" /> 
<path d="M41049 22812 L41020 22850" /> 
<path d="M41020 22850 L40992 22926" /> 
<path d="M40992 22926 L40992 23002" /> 
<path d="M40992 23002 L41020 23117" /> 
<path d="M41020 23117 L41363 23574" /> 
<path d="M41363 23574 L40992 23574" /> 
<g style = "stroke-linecap:round;" > 
<path d="M40992 23574 L40992 23574" /> 
</g><path d="M40621 22774 L40564 22774" /> 
<path d="M40564 22774 L40507 22812" /> 
<path d="M40507 22812 L40478 22850" /> 
<path d="M40478 22850 L40449 22926" /> 
<path d="M40449 22926 L40421 23079" /> 
<path d="M40421 23079 L40421 23269" /> 
<path d="M40421 23269 L40449 23421" /> 
<path d="M40449 23421 L40478 23498" /> 
<path d="M40478 23498 L40507 23536" /> 
<path d="M40507 23536 L40564 23574" /> 
<path d="M40564 23574 L40621 23574" /> 
<path d="M40621 23574 L40678 23536" /> 
<path d="M40678 23536 L40707 23498" /> 
<path d="M40707 23498 L40735 23421" /> 
<path d="M40735 23421 L40764 23269" /> 
<path d="M40764 23269 L40764 23079" /> 
<path d="M40764 23079 L40735 22926" /> 
<path d="M40735 22926 L40707 22850" /> 
<path d="M40707 22850 L40678 22812" /> 
<path d="M40678 22812 L40621 22774" /> 
<path d="M39850 23574 L40193 23574" /> 
<g style = "stroke-linecap:round;" > 
<path d="M40193 23574 L40193 23574" /> 
</g><path d="M40021 23574 L40021 22774" /> 
<path d="M40021 22774 L40078 22888" /> 
<path d="M40078 22888 L40136 22964" /> 
<path d="M40136 22964 L40193 23002" /> 
<g style = "stroke-linecap:round;" > 
<path d="M40193 23002 L40193 23002" /> 
</g><path d="M39650 22774 L39279 22774" /> 
<path d="M39279 22774 L39479 23079" /> 
<path d="M39479 23079 L39393 23079" /> 
<path d="M39393 23079 L39336 23117" /> 
<path d="M39336 23117 L39307 23155" /> 
<path d="M39307 23155 L39279 23231" /> 
<path d="M39279 23231 L39279 23421" /> 
<path d="M39279 23421 L39307 23498" /> 
<path d="M39307 23498 L39336 23536" /> 
<path d="M39336 23536 L39393 23574" /> 
<path d="M39393 23574 L39565 23574" /> 
<path d="M39565 23574 L39622 23536" /> 
<path d="M39622 23536 L39650 23498" /> 
<g style = "stroke-linecap:round;" > 
<path d="M39650 23498 L39650 23498" /> 
</g></g>
<g style="fill:#A000A0; fill-opacity:0.0; 
  stroke:#0000C0; stroke-linecap:round; stroke-linejoin:round; stroke-opacity:1.0; stroke-opacity:1.0; stroke-width:0" 
   transform="translate(0 0) scale(1 1)">
<path d="M50748 24500 L50752 24500" /> 
<path d="M50750 24498 L50750 24502" /> 
</g>
<g style="fill:#A000A0; fill-opacity:0.0; 
  stroke:#A000A0; stroke-linecap:round; stroke-linejoin:round; stroke-opacity:1.0; stroke-opacity:1.0; stroke-width:120" 
   transform="translate(0 0) scale(1 1)">
<path d="M51706 24824 L51906 24443" /> 
<g style = "stroke-linecap:round;" > 
<path d="M51906 24443 L51906 24443" /> 
</g><path d="M52049 24824 L52049 24024" /> 
<path d="M52049 24024 L51821 24024" /> 
<path d="M51821 24024 L51763 24062" /> 
<path d="M51763 24062 L51735 24100" /> 
<path d="M51735 24100 L51706 24176" /> 
<path d="M51706 24176 L51706 24290" /> 
<path d="M51706 24290 L51735 24367" /> 
<path d="M51735 24367 L51763 24405" /> 
<path d="M51763 24405 L51821 24443" /> 
<path d="M51821 24443 L52049 24443" /> 
<g style = "stroke-linecap:round;" > 
<path d="M52049 24443 L52049 24443" /> 
</g><path d="M51221 24786 L51278 24824" /> 
<path d="M51278 24824 L51392 24824" /> 
<path d="M51392 24824 L51449 24786" /> 
<path d="M51449 24786 L51478 24710" /> 
<path d="M51478 24710 L51478 24405" /> 
<path d="M51478 24405 L51449 24329" /> 
<path d="M51449 24329 L51392 24290" /> 
<path d="M51392 24290 L51278 24290" /> 
<path d="M51278 24290 L51221 24329" /> 
<path d="M51221 24329 L51192 24405" /> 
<path d="M51192 24405 L51192 24481" /> 
<path d="M51192 24481 L51478 24557" /> 
<g style = "stroke-linecap:round;" > 
<path d="M51478 24557 L51478 24557" /> 
</g><path d="M50992 24290 L50849 24824" /> 
<path d="M50849 24824 L50707 24290" /> 
<g style = "stroke-linecap:round;" > 
<path d="M50707 24290 L50707 24290" /> 
</g><path d="M50478 24748 L50450 24786" /> 
<path d="M50450 24786 L50478 24824" /> 
<path d="M50478 24824 L50507 24786" /> 
<path d="M50507 24786 L50478 24748" /> 
<path d="M50478 24748 L50478 24824" /> 
<g style = "stroke-linecap:round;" > 
<path d="M50478 24824 L50478 24824" /> 
</g><path d="M49764 24100 L49735 24062" /> 
<path d="M49735 24062 L49678 24024" /> 
<path d="M49678 24024 L49535 24024" /> 
<path d="M49535 24024 L49478 24062" /> 
<path d="M49478 24062 L49449 24100" /> 
<path d="M49449 24100 L49421 24176" /> 
<path d="M49421 24176 L49421 24252" /> 
<path d="M49421 24252 L49449 24367" /> 
<path d="M49449 24367 L49792 24824" /> 
<path d="M49792 24824 L49421 24824" /> 
<g style = "stroke-linecap:round;" > 
<path d="M49421 24824 L49421 24824" /> 
</g></g>
<g style="fill:#A000A0; fill-opacity:0.0; 
  stroke:#0000C0; stroke-linecap:round; stroke-linejoin:round; stroke-opacity:1.0; stroke-opacity:1.0; stroke-width:0" 
   transform="translate(0 0) scale(1 1)">
<path d="M54998 37250 L55002 37250" /> 
<path d="M55000 37248 L55000 37252" /> 
</g>
<g style="fill:#A000A0; fill-opacity:0.0; 
  stroke:#A000A0; stroke-linecap:round; stroke-linejoin:round; stroke-opacity:1.0; stroke-opacity:1.0; stroke-width:120" 
   transform="translate(0 0) scale(1 1)">
<path d="M59270 37574 L59270 37040" /> 
<g style = "stroke-linecap:round;" > 
<path d="M59270 37040 L59270 37040" /> 
</g><path d="M59270 36774 L59299 36812" /> 
<path d="M59299 36812 L59270 36850" /> 
<path d="M59270 36850 L59242 36812" /> 
<path d="M59242 36812 L59270 36774" /> 
<path d="M59270 36774 L59270 36850" /> 
<g style = "stroke-linecap:round;" > 
<path d="M59270 36850 L59270 36850" /> 
</g><path d="M58898 37117 L58956 37079" /> 
<path d="M58956 37079 L58984 37040" /> 
<path d="M58984 37040 L59013 36964" /> 
<path d="M59013 36964 L59013 36926" /> 
<path d="M59013 36926 L58984 36850" /> 
<path d="M58984 36850 L58956 36812" /> 
<path d="M58956 36812 L58898 36774" /> 
<path d="M58898 36774 L58784 36774" /> 
<path d="M58784 36774 L58727 36812" /> 
<path d="M58727 36812 L58698 36850" /> 
<path d="M58698 36850 L58670 36926" /> 
<path d="M58670 36926 L58670 36964" /> 
<path d="M58670 36964 L58698 37040" /> 
<path d="M58698 37040 L58727 37079" /> 
<path d="M58727 37079 L58784 37117" /> 
<path d="M58784 37117 L58898 37117" /> 
<path d="M58898 37117 L58956 37155" /> 
<path d="M58956 37155 L58984 37193" /> 
<path d="M58984 37193 L59013 37269" /> 
<path d="M59013 37269 L59013 37421" /> 
<path d="M59013 37421 L58984 37498" /> 
<path d="M58984 37498 L58956 37536" /> 
<path d="M58956 37536 L58898 37574" /> 
<path d="M58898 37574 L58784 37574" /> 
<path d="M58784 37574 L58727 37536" /> 
<path d="M58727 37536 L58698 37498" /> 
<path d="M58698 37498 L58670 37421" /> 
<path d="M58670 37421 L58670 37269" /> 
<path d="M58670 37269 L58698 37193" /> 
<path d="M58698 37193 L58727 37155" /> 
<path d="M58727 37155 L58784 37117" /> 
<g style = "stroke-linecap:round;" > 
<path d="M58784 37117 L58784 37117" /> 
</g><path d="M58299 36774 L58242 36774" /> 
<path d="M58242 36774 L58185 36812" /> 
<path d="M58185 36812 L58156 36850" /> 
<path d="M58156 36850 L58127 36926" /> 
<path d="M58127 36926 L58099 37079" /> 
<path d="M58099 37079 L58099 37269" /> 
<path d="M58099 37269 L58127 37421" /> 
<path d="M58127 37421 L58156 37498" /> 
<path d="M58156 37498 L58185 37536" /> 
<path d="M58185 37536 L58242 37574" /> 
<path d="M58242 37574 L58299 37574" /> 
<path d="M58299 37574 L58356 37536" /> 
<path d="M58356 37536 L58385 37498" /> 
<path d="M58385 37498 L58413 37421" /> 
<path d="M58413 37421 L58442 37269" /> 
<path d="M58442 37269 L58442 37079" /> 
<path d="M58442 37079 L58413 36926" /> 
<path d="M58413 36926 L58385 36850" /> 
<path d="M58385 36850 L58356 36812" /> 
<path d="M58356 36812 L58299 36774" /> 
<path d="M57528 37574 L57871 37574" /> 
<g style = "stroke-linecap:round;" > 
<path d="M57871 37574 L57871 37574" /> 
</g><path d="M57699 37574 L57699 36774" /> 
<path d="M57699 36774 L57756 36888" /> 
<path d="M57756 36888 L57814 36964" /> 
<path d="M57814 36964 L57871 37002" /> 
<g style = "stroke-linecap:round;" > 
<path d="M57871 37002 L57871 37002" /> 
</g><path d="M57185 37117 L57243 37079" /> 
<path d="M57243 37079 L57271 37040" /> 
<path d="M57271 37040 L57300 36964" /> 
<path d="M57300 36964 L57300 36926" /> 
<path d="M57300 36926 L57271 36850" /> 
<path d="M57271 36850 L57243 36812" /> 
<path d="M57243 36812 L57185 36774" /> 
<path d="M57185 36774 L57071 36774" /> 
<path d="M57071 36774 L57014 36812" /> 
<path d="M57014 36812 L56985 36850" /> 
<path d="M56985 36850 L56957 36926" /> 
<path d="M56957 36926 L56957 36964" /> 
<path d="M56957 36964 L56985 37040" /> 
<path d="M56985 37040 L57014 37079" /> 
<path d="M57014 37079 L57071 37117" /> 
<path d="M57071 37117 L57185 37117" /> 
<path d="M57185 37117 L57243 37155" /> 
<path d="M57243 37155 L57271 37193" /> 
<path d="M57271 37193 L57300 37269" /> 
<path d="M57300 37269 L57300 37421" /> 
<path d="M57300 37421 L57271 37498" /> 
<path d="M57271 37498 L57243 37536" /> 
<path d="M57243 37536 L57185 37574" /> 
<path d="M57185 37574 L57071 37574" /> 
<path d="M57071 37574 L57014 37536" /> 
<path d="M57014 37536 L56985 37498" /> 
<path d="M56985 37498 L56957 37421" /> 
<path d="M56957 37421 L56957 37269" /> 
<path d="M56957 37269 L56985 37193" /> 
<path d="M56985 37193 L57014 37155" /> 
<path d="M57014 37155 L57071 37117" /> 
<g style = "stroke-linecap:round;" > 
<path d="M57071 37117 L57071 37117" /> 
</g><path d="M56443 36774 L56557 36774" /> 
<path d="M56557 36774 L56614 36812" /> 
<path d="M56614 36812 L56643 36850" /> 
<path d="M56643 36850 L56700 36964" /> 
<path d="M56700 36964 L56729 37117" /> 
<path d="M56729 37117 L56729 37421" /> 
<path d="M56729 37421 L56700 37498" /> 
<path d="M56700 37498 L56672 37536" /> 
<path d="M56672 37536 L56614 37574" /> 
<path d="M56614 37574 L56500 37574" /> 
<path d="M56500 37574 L56443 37536" /> 
<path d="M56443 37536 L56414 37498" /> 
<path d="M56414 37498 L56386 37421" /> 
<path d="M56386 37421 L56386 37231" /> 
<path d="M56386 37231 L56414 37155" /> 
<path d="M56414 37155 L56443 37117" /> 
<path d="M56443 37117 L56500 37079" /> 
<path d="M56500 37079 L56614 37079" /> 
<path d="M56614 37079 L56672 37117" /> 
<path d="M56672 37117 L56700 37155" /> 
<path d="M56700 37155 L56729 37231" /> 
<g style = "stroke-linecap:round;" > 
<path d="M56729 37231 L56729 37231" /> 
</g><path d="M55329 37498 L55358 37536" /> 
<path d="M55358 37536 L55444 37574" /> 
<path d="M55444 37574 L55501 37574" /> 
<path d="M55501 37574 L55586 37536" /> 
<path d="M55586 37536 L55644 37460" /> 
<path d="M55644 37460 L55672 37383" /> 
<path d="M55672 37383 L55701 37231" /> 
<path d="M55701 37231 L55701 37117" /> 
<path d="M55701 37117 L55672 36964" /> 
<path d="M55672 36964 L55644 36888" /> 
<path d="M55644 36888 L55586 36812" /> 
<path d="M55586 36812 L55501 36774" /> 
<path d="M55501 36774 L55444 36774" /> 
<path d="M55444 36774 L55358 36812" /> 
<path d="M55358 36812 L55329 36850" /> 
<g style = "stroke-linecap:round;" > 
<path d="M55329 36850 L55329 36850" /> 
</g><path d="M55072 37574 L55072 36774" /> 
<path d="M55072 36774 L54844 36774" /> 
<path d="M54844 36774 L54786 36812" /> 
<path d="M54786 36812 L54758 36850" /> 
<path d="M54758 36850 L54729 36926" /> 
<path d="M54729 36926 L54729 37040" /> 
<path d="M54729 37040 L54758 37117" /> 
<path d="M54758 37117 L54786 37155" /> 
<path d="M54786 37155 L54844 37193" /> 
<path d="M54844 37193 L55072 37193" /> 
<g style = "stroke-linecap:round;" > 
<path d="M55072 37193 L55072 37193" /> 
</g><path d="M54472 36774 L54472 37421" /> 
<path d="M54472 37421 L54444 37498" /> 
<path d="M54444 37498 L54415 37536" /> 
<path d="M54415 37536 L54358 37574" /> 
<path d="M54358 37574 L54244 37574" /> 
<path d="M54244 37574 L54186 37536" /> 
<path d="M54186 37536 L54158 37498" /> 
<path d="M54158 37498 L54129 37421" /> 
<path d="M54129 37421 L54129 36774" /> 
<g style = "stroke-linecap:round;" > 
<path d="M54129 36774 L54129 36774" /> 
</g><path d="M53186 37155 L53100 37193" /> 
<path d="M53100 37193 L53072 37231" /> 
<path d="M53072 37231 L53043 37307" /> 
<path d="M53043 37307 L53043 37421" /> 
<path d="M53043 37421 L53072 37498" /> 
<path d="M53072 37498 L53100 37536" /> 
<path d="M53100 37536 L53158 37574" /> 
<path d="M53158 37574 L53386 37574" /> 
<path d="M53386 37574 L53386 36774" /> 
<path d="M53386 36774 L53186 36774" /> 
<path d="M53186 36774 L53129 36812" /> 
<path d="M53129 36812 L53100 36850" /> 
<path d="M53100 36850 L53072 36926" /> 
<path d="M53072 36926 L53072 37002" /> 
<path d="M53072 37002 L53100 37079" /> 
<path d="M53100 37079 L53129 37117" /> 
<path d="M53129 37117 L53186 37155" /> 
<path d="M53186 37155 L53386 37155" /> 
<g style = "stroke-linecap:round;" > 
<path d="M53386 37155 L53386 37155" /> 
</g><path d="M52672 36774 L52558 36774" /> 
<path d="M52558 36774 L52500 36812" /> 
<path d="M52500 36812 L52443 36888" /> 
<path d="M52443 36888 L52415 37040" /> 
<path d="M52415 37040 L52415 37307" /> 
<path d="M52415 37307 L52443 37460" /> 
<path d="M52443 37460 L52500 37536" /> 
<path d="M52500 37536 L52558 37574" /> 
<path d="M52558 37574 L52672 37574" /> 
<path d="M52672 37574 L52729 37536" /> 
<path d="M52729 37536 L52786 37460" /> 
<path d="M52786 37460 L52815 37307" /> 
<path d="M52815 37307 L52815 37040" /> 
<path d="M52815 37040 L52786 36888" /> 
<path d="M52786 36888 L52729 36812" /> 
<path d="M52729 36812 L52672 36774" /> 
<path d="M52186 37345 L51900 37345" /> 
<g style = "stroke-linecap:round;" > 
<path d="M51900 37345 L51900 37345" /> 
</g><path d="M52243 37574 L52043 36774" /> 
<path d="M52043 36774 L51843 37574" /> 
<g style = "stroke-linecap:round;" > 
<path d="M51843 37574 L51843 37574" /> 
</g><path d="M51300 37574 L51500 37193" /> 
<g style = "stroke-linecap:round;" > 
<path d="M51500 37193 L51500 37193" /> 
</g><path d="M51643 37574 L51643 36774" /> 
<path d="M51643 36774 L51415 36774" /> 
<path d="M51415 36774 L51357 36812" /> 
<path d="M51357 36812 L51329 36850" /> 
<path d="M51329 36850 L51300 36926" /> 
<path d="M51300 36926 L51300 37040" /> 
<path d="M51300 37040 L51329 37117" /> 
<path d="M51329 37117 L51357 37155" /> 
<path d="M51357 37155 L51415 37193" /> 
<path d="M51415 37193 L51643 37193" /> 
<g style = "stroke-linecap:round;" > 
<path d="M51643 37193 L51643 37193" /> 
</g><path d="M51043 37574 L51043 36774" /> 
<path d="M51043 36774 L50900 36774" /> 
<path d="M50900 36774 L50815 36812" /> 
<path d="M50815 36812 L50757 36888" /> 
<path d="M50757 36888 L50729 36964" /> 
<path d="M50729 36964 L50700 37117" /> 
<path d="M50700 37117 L50700 37231" /> 
<path d="M50700 37231 L50729 37383" /> 
<path d="M50729 37383 L50757 37460" /> 
<path d="M50757 37460 L50815 37536" /> 
<path d="M50815 37536 L50900 37574" /> 
<path d="M50900 37574 L51043 37574" /> 
</g>
<g style="fill:#A000A0; fill-opacity:0.0; 
  stroke:#FFFF00; stroke-linecap:round; stroke-linejoin:round; stroke-opacity:1.0; stroke-opacity:1.0; stroke-width:150" 
   transform="translate(0 0) scale(1 1)">
<path d="M59717 21068 L59682 21103" /> 
<path d="M21952 21068 L59717 21068" /> 
<path d="M21952 39793 L21952 21068" /> 
<path d="M59717 39793 L21952 39793" /> 
<path d="M59717 21103 L59717 39793" /> 
</g>
<g style="fill:#A000A0; fill-opacity:0.0; 
  stroke:#0000C0; stroke-linecap:round; stroke-linejoin:round; stroke-opacity:1.0; stroke-opacity:1.0; stroke-width:0" 
   transform="translate(0 0) scale(1 1)">
<path d="M26498 34500 L26502 34500" /> 
<path d="M26500 34498 L26500 34502" /> 
</g>
<g style="fill:#0000C0; fill-opacity:0.0; 
  stroke:#0000C0; stroke-linecap:round; stroke-linejoin:round; stroke-opacity:1.0; stroke-opacity:1.0; stroke-width:50" 
   transform="translate(0 0) scale(1 1)">
<path d="M26957 34143 L26957 34629" /> 
<path d="M26957 34629 L26929 34686" /> 
<path d="M26929 34686 L26900 34714" /> 
<path d="M26900 34714 L26843 34743" /> 
<path d="M26843 34743 L26729 34743" /> 
<path d="M26729 34743 L26671 34714" /> 
<path d="M26671 34714 L26643 34686" /> 
<path d="M26643 34686 L26614 34629" /> 
<path d="M26614 34629 L26614 34143" /> 
<g style = "stroke-linecap:round;" > 
<path d="M26614 34143 L26614 34143" /> 
</g><path d="M26385 34143 L25985 34143" /> 
<path d="M25985 34143 L26242 34743" /> 
<g style = "stroke-linecap:round;" > 
<path d="M26242 34743 L26242 34743" /> 
</g></g>
<g style="fill:#0000C0; fill-opacity:0.0; 
  stroke:#0000C0; stroke-linecap:round; stroke-linejoin:round; stroke-opacity:1.0; stroke-opacity:1.0; stroke-width:0" 
   transform="translate(0 0) scale(1 1)">
<path d="M26498 33500 L26502 33500" /> 
<path d="M26500 33498 L26500 33502" /> 
</g>
<g style="fill:#0000C0; fill-opacity:0.0; 
  stroke:#0000C0; stroke-linecap:round; stroke-linejoin:round; stroke-opacity:1.0; stroke-opacity:1.0; stroke-width:50" 
   transform="translate(0 0) scale(1 1)">
<path d="M28131 33143 L27797 33143" /> 
<path d="M27797 33143 L28012 33743" /> 
<g style = "stroke-linecap:round;" > 
<path d="M28012 33743 L28012 33743" /> 
</g><path d="M27393 33343 L27393 33743" /> 
<g style = "stroke-linecap:round;" > 
<path d="M27393 33743 L27393 33743" /> 
</g><path d="M27512 33114 L27631 33543" /> 
<path d="M27631 33543 L27321 33543" /> 
<g style = "stroke-linecap:round;" > 
<path d="M27321 33543 L27321 33543" /> 
</g><path d="M27131 33743 L27131 33143" /> 
<g style = "stroke-linecap:round;" > 
<path d="M27131 33143 L27131 33143" /> 
</g><path d="M27131 33429 L26845 33429" /> 
<g style = "stroke-linecap:round;" > 
<path d="M26845 33429 L26845 33429" /> 
</g><path d="M26845 33743 L26845 33143" /> 
<g style = "stroke-linecap:round;" > 
<path d="M26845 33143 L26845 33143" /> 
</g><path d="M26321 33686 L26345 33714" /> 
<path d="M26345 33714 L26416 33743" /> 
<path d="M26416 33743 L26464 33743" /> 
<path d="M26464 33743 L26536 33714" /> 
<path d="M26536 33714 L26583 33657" /> 
<path d="M26583 33657 L26607 33600" /> 
<path d="M26607 33600 L26631 33486" /> 
<path d="M26631 33486 L26631 33400" /> 
<path d="M26631 33400 L26607 33286" /> 
<path d="M26607 33286 L26583 33229" /> 
<path d="M26583 33229 L26536 33171" /> 
<path d="M26536 33171 L26464 33143" /> 
<path d="M26464 33143 L26416 33143" /> 
<path d="M26416 33143 L26345 33171" /> 
<path d="M26345 33171 L26321 33200" /> 
<g style = "stroke-linecap:round;" > 
<path d="M26321 33200 L26321 33200" /> 
</g><path d="M26131 33200 L26107 33171" /> 
<path d="M26107 33171 L26059 33143" /> 
<path d="M26059 33143 L25940 33143" /> 
<path d="M25940 33143 L25893 33171" /> 
<path d="M25893 33171 L25869 33200" /> 
<path d="M25869 33200 L25845 33257" /> 
<path d="M25845 33257 L25845 33314" /> 
<path d="M25845 33314 L25869 33400" /> 
<path d="M25869 33400 L26155 33743" /> 
<path d="M26155 33743 L25845 33743" /> 
<g style = "stroke-linecap:round;" > 
<path d="M25845 33743 L25845 33743" /> 
</g><path d="M25417 33343 L25417 33743" /> 
<g style = "stroke-linecap:round;" > 
<path d="M25417 33743 L25417 33743" /> 
</g><path d="M25536 33114 L25655 33543" /> 
<path d="M25655 33543 L25345 33543" /> 
<g style = "stroke-linecap:round;" > 
<path d="M25345 33543 L25345 33543" /> 
</g><path d="M24917 33143 L25155 33143" /> 
<path d="M25155 33143 L25179 33429" /> 
<path d="M25179 33429 L25155 33400" /> 
<path d="M25155 33400 L25107 33371" /> 
<path d="M25107 33371 L24988 33371" /> 
<path d="M24988 33371 L24941 33400" /> 
<path d="M24941 33400 L24917 33429" /> 
<path d="M24917 33429 L24893 33486" /> 
<path d="M24893 33486 L24893 33629" /> 
<path d="M24893 33629 L24917 33686" /> 
<path d="M24917 33686 L24941 33714" /> 
<path d="M24941 33714 L24988 33743" /> 
<path d="M24988 33743 L25107 33743" /> 
<path d="M25107 33743 L25155 33714" /> 
<path d="M25155 33714 L25179 33686" /> 
<g style = "stroke-linecap:round;" > 
<path d="M25179 33686 L25179 33686" /> 
</g></g>
<g style="fill:#0000C0; fill-opacity:0.0; 
  stroke:#A000A0; stroke-linecap:round; stroke-linejoin:round; stroke-opacity:1.0; stroke-opacity:1.0; stroke-width:50" 
   transform="translate(0 0) scale(1 1)">
<path d="M29000 32550 L29000 35450" /> 
<path d="M24000 35450 L24000 32550" /> 
<path d="M29000 32550 L24000 32550" /> 
<path d="M24000 35450 L29000 35450" /> 
<path d="M24000 34250 L24500 34250" /> 
<path d="M24500 34250 L24500 33750" /> 
<path d="M24500 33750 L24000 33750" /> 
</g>
<g style="fill:#0000C0; fill-opacity:0.0; 
  stroke:#0000C0; stroke-linecap:round; stroke-linejoin:round; stroke-opacity:1.0; stroke-opacity:1.0; stroke-width:0" 
   transform="translate(0 0) scale(1 1)">
<path d="M43498 31500 L43502 31500" /> 
<path d="M43500 31498 L43500 31502" /> 
</g>
<g style="fill:#0000C0; fill-opacity:0.0; 
  stroke:#0000C0; stroke-linecap:round; stroke-linejoin:round; stroke-opacity:1.0; stroke-opacity:1.0; stroke-width:50" 
   transform="translate(0 0) scale(1 1)">
<path d="M43143 31043 L43629 31043" /> 
<path d="M43629 31043 L43686 31071" /> 
<path d="M43686 31071 L43714 31100" /> 
<path d="M43714 31100 L43743 31157" /> 
<path d="M43743 31157 L43743 31271" /> 
<path d="M43743 31271 L43714 31329" /> 
<path d="M43714 31329 L43686 31357" /> 
<path d="M43686 31357 L43629 31386" /> 
<path d="M43629 31386 L43143 31386" /> 
<g style = "stroke-linecap:round;" > 
<path d="M43143 31386 L43143 31386" /> 
</g><path d="M43743 31700 L43743 31815" /> 
<path d="M43743 31815 L43714 31872" /> 
<path d="M43714 31872 L43686 31900" /> 
<path d="M43686 31900 L43600 31958" /> 
<path d="M43600 31958 L43486 31986" /> 
<path d="M43486 31986 L43257 31986" /> 
<path d="M43257 31986 L43200 31958" /> 
<path d="M43200 31958 L43171 31929" /> 
<path d="M43171 31929 L43143 31872" /> 
<path d="M43143 31872 L43143 31758" /> 
<path d="M43143 31758 L43171 31700" /> 
<path d="M43171 31700 L43200 31672" /> 
<path d="M43200 31672 L43257 31643" /> 
<path d="M43257 31643 L43400 31643" /> 
<path d="M43400 31643 L43457 31672" /> 
<path d="M43457 31672 L43486 31700" /> 
<path d="M43486 31700 L43514 31758" /> 
<path d="M43514 31758 L43514 31872" /> 
<path d="M43514 31872 L43486 31929" /> 
<path d="M43486 31929 L43457 31958" /> 
<path d="M43457 31958 L43400 31986" /> 
<g style = "stroke-linecap:round;" > 
<path d="M43400 31986 L43400 31986" /> 
</g></g>
<g style="fill:#0000C0; fill-opacity:0.0; 
  stroke:#0000C0; stroke-linecap:round; stroke-linejoin:round; stroke-opacity:1.0; stroke-opacity:1.0; stroke-width:0" 
   transform="translate(0 0) scale(1 1)">
<path d="M44498 31500 L44502 31500" /> 
<path d="M44500 31498 L44500 31502" /> 
</g>
<g style="fill:#0000C0; fill-opacity:0.0; 
  stroke:#0000C0; stroke-linecap:round; stroke-linejoin:round; stroke-opacity:1.0; stroke-opacity:1.0; stroke-width:50" 
   transform="translate(0 0) scale(1 1)">
<path d="M44143 29869 L44143 30203" /> 
<path d="M44143 30203 L44743 29988" /> 
<g style = "stroke-linecap:round;" > 
<path d="M44743 29988 L44743 29988" /> 
</g><path d="M44343 30607 L44743 30607" /> 
<g style = "stroke-linecap:round;" > 
<path d="M44743 30607 L44743 30607" /> 
</g><path d="M44114 30488 L44543 30369" /> 
<path d="M44543 30369 L44543 30679" /> 
<g style = "stroke-linecap:round;" > 
<path d="M44543 30679 L44543 30679" /> 
</g><path d="M44743 30869 L44143 30869" /> 
<g style = "stroke-linecap:round;" > 
<path d="M44143 30869 L44143 30869" /> 
</g><path d="M44429 30869 L44429 31155" /> 
<g style = "stroke-linecap:round;" > 
<path d="M44429 31155 L44429 31155" /> 
</g><path d="M44743 31155 L44143 31155" /> 
<g style = "stroke-linecap:round;" > 
<path d="M44143 31155 L44143 31155" /> 
</g><path d="M44686 31679 L44714 31655" /> 
<path d="M44714 31655 L44743 31584" /> 
<path d="M44743 31584 L44743 31536" /> 
<path d="M44743 31536 L44714 31464" /> 
<path d="M44714 31464 L44657 31417" /> 
<path d="M44657 31417 L44600 31393" /> 
<path d="M44600 31393 L44486 31369" /> 
<path d="M44486 31369 L44400 31369" /> 
<path d="M44400 31369 L44286 31393" /> 
<path d="M44286 31393 L44229 31417" /> 
<path d="M44229 31417 L44171 31464" /> 
<path d="M44171 31464 L44143 31536" /> 
<path d="M44143 31536 L44143 31584" /> 
<path d="M44143 31584 L44171 31655" /> 
<path d="M44171 31655 L44200 31679" /> 
<g style = "stroke-linecap:round;" > 
<path d="M44200 31679 L44200 31679" /> 
</g><path d="M44200 31869 L44171 31893" /> 
<path d="M44171 31893 L44143 31941" /> 
<path d="M44143 31941 L44143 32060" /> 
<path d="M44143 32060 L44171 32107" /> 
<path d="M44171 32107 L44200 32131" /> 
<path d="M44200 32131 L44257 32155" /> 
<path d="M44257 32155 L44314 32155" /> 
<path d="M44314 32155 L44400 32131" /> 
<path d="M44400 32131 L44743 31845" /> 
<path d="M44743 31845 L44743 32155" /> 
<g style = "stroke-linecap:round;" > 
<path d="M44743 32155 L44743 32155" /> 
</g><path d="M44343 32583 L44743 32583" /> 
<g style = "stroke-linecap:round;" > 
<path d="M44743 32583 L44743 32583" /> 
</g><path d="M44114 32464 L44543 32345" /> 
<path d="M44543 32345 L44543 32655" /> 
<g style = "stroke-linecap:round;" > 
<path d="M44543 32655 L44543 32655" /> 
</g><path d="M44143 33083 L44143 32845" /> 
<path d="M44143 32845 L44429 32821" /> 
<path d="M44429 32821 L44400 32845" /> 
<path d="M44400 32845 L44371 32893" /> 
<path d="M44371 32893 L44371 33012" /> 
<path d="M44371 33012 L44400 33059" /> 
<path d="M44400 33059 L44429 33083" /> 
<path d="M44429 33083 L44486 33107" /> 
<path d="M44486 33107 L44629 33107" /> 
<path d="M44629 33107 L44686 33083" /> 
<path d="M44686 33083 L44714 33059" /> 
<path d="M44714 33059 L44743 33012" /> 
<path d="M44743 33012 L44743 32893" /> 
<path d="M44743 32893 L44714 32845" /> 
<path d="M44714 32845 L44686 32821" /> 
<g style = "stroke-linecap:round;" > 
<path d="M44686 32821 L44686 32821" /> 
</g></g>
<g style="fill:#0000C0; fill-opacity:0.0; 
  stroke:#A000A0; stroke-linecap:round; stroke-linejoin:round; stroke-opacity:1.0; stroke-opacity:1.0; stroke-width:50" 
   transform="translate(0 0) scale(1 1)">
<path d="M45450 34000 L42550 34000" /> 
<path d="M42550 29000 L45450 29000" /> 
<path d="M45450 34000 L45450 29000" /> 
<path d="M42550 29000 L42550 34000" /> 
<path d="M43750 29000 L43750 29500" /> 
<path d="M43750 29500 L44250 29500" /> 
<path d="M44250 29500 L44250 29000" /> 
</g>
<g style="fill:#0000C0; fill-opacity:0.0; 
  stroke:#0000C0; stroke-linecap:round; stroke-linejoin:round; stroke-opacity:1.0; stroke-opacity:1.0; stroke-width:0" 
   transform="translate(0 0) scale(1 1)">
<path d="M34498 34500 L34502 34500" /> 
<path d="M34500 34498 L34500 34502" /> 
</g>
<g style="fill:#0000C0; fill-opacity:0.0; 
  stroke:#0000C0; stroke-linecap:round; stroke-linejoin:round; stroke-opacity:1.0; stroke-opacity:1.0; stroke-width:50" 
   transform="translate(0 0) scale(1 1)">
<path d="M34957 34143 L34957 34629" /> 
<path d="M34957 34629 L34929 34686" /> 
<path d="M34929 34686 L34900 34714" /> 
<path d="M34900 34714 L34843 34743" /> 
<path d="M34843 34743 L34729 34743" /> 
<path d="M34729 34743 L34671 34714" /> 
<path d="M34671 34714 L34643 34686" /> 
<path d="M34643 34686 L34614 34629" /> 
<path d="M34614 34629 L34614 34143" /> 
<g style = "stroke-linecap:round;" > 
<path d="M34614 34143 L34614 34143" /> 
</g><path d="M34242 34400 L34300 34371" /> 
<path d="M34300 34371 L34328 34343" /> 
<path d="M34328 34343 L34357 34286" /> 
<path d="M34357 34286 L34357 34257" /> 
<path d="M34357 34257 L34328 34200" /> 
<path d="M34328 34200 L34300 34171" /> 
<path d="M34300 34171 L34242 34143" /> 
<path d="M34242 34143 L34128 34143" /> 
<path d="M34128 34143 L34071 34171" /> 
<path d="M34071 34171 L34042 34200" /> 
<path d="M34042 34200 L34014 34257" /> 
<path d="M34014 34257 L34014 34286" /> 
<path d="M34014 34286 L34042 34343" /> 
<path d="M34042 34343 L34071 34371" /> 
<path d="M34071 34371 L34128 34400" /> 
<path d="M34128 34400 L34242 34400" /> 
<path d="M34242 34400 L34300 34429" /> 
<path d="M34300 34429 L34328 34457" /> 
<path d="M34328 34457 L34357 34514" /> 
<path d="M34357 34514 L34357 34629" /> 
<path d="M34357 34629 L34328 34686" /> 
<path d="M34328 34686 L34300 34714" /> 
<path d="M34300 34714 L34242 34743" /> 
<path d="M34242 34743 L34128 34743" /> 
<path d="M34128 34743 L34071 34714" /> 
<path d="M34071 34714 L34042 34686" /> 
<path d="M34042 34686 L34014 34629" /> 
<path d="M34014 34629 L34014 34514" /> 
<path d="M34014 34514 L34042 34457" /> 
<path d="M34042 34457 L34071 34429" /> 
<path d="M34071 34429 L34128 34400" /> 
<g style = "stroke-linecap:round;" > 
<path d="M34128 34400 L34128 34400" /> 
</g></g>
<g style="fill:#0000C0; fill-opacity:0.0; 
  stroke:#0000C0; stroke-linecap:round; stroke-linejoin:round; stroke-opacity:1.0; stroke-opacity:1.0; stroke-width:0" 
   transform="translate(0 0) scale(1 1)">
<path d="M34498 33500 L34502 33500" /> 
<path d="M34500 33498 L34500 33502" /> 
</g>
<g style="fill:#0000C0; fill-opacity:0.0; 
  stroke:#0000C0; stroke-linecap:round; stroke-linejoin:round; stroke-opacity:1.0; stroke-opacity:1.0; stroke-width:50" 
   transform="translate(0 0) scale(1 1)">
<path d="M36131 33143 L35797 33143" /> 
<path d="M35797 33143 L36012 33743" /> 
<g style = "stroke-linecap:round;" > 
<path d="M36012 33743 L36012 33743" /> 
</g><path d="M35393 33343 L35393 33743" /> 
<g style = "stroke-linecap:round;" > 
<path d="M35393 33743 L35393 33743" /> 
</g><path d="M35512 33114 L35631 33543" /> 
<path d="M35631 33543 L35321 33543" /> 
<g style = "stroke-linecap:round;" > 
<path d="M35321 33543 L35321 33543" /> 
</g><path d="M35131 33743 L35131 33143" /> 
<g style = "stroke-linecap:round;" > 
<path d="M35131 33143 L35131 33143" /> 
</g><path d="M35131 33429 L34845 33429" /> 
<g style = "stroke-linecap:round;" > 
<path d="M34845 33429 L34845 33429" /> 
</g><path d="M34845 33743 L34845 33143" /> 
<g style = "stroke-linecap:round;" > 
<path d="M34845 33143 L34845 33143" /> 
</g><path d="M34321 33686 L34345 33714" /> 
<path d="M34345 33714 L34416 33743" /> 
<path d="M34416 33743 L34464 33743" /> 
<path d="M34464 33743 L34536 33714" /> 
<path d="M34536 33714 L34583 33657" /> 
<path d="M34583 33657 L34607 33600" /> 
<path d="M34607 33600 L34631 33486" /> 
<path d="M34631 33486 L34631 33400" /> 
<path d="M34631 33400 L34607 33286" /> 
<path d="M34607 33286 L34583 33229" /> 
<path d="M34583 33229 L34536 33171" /> 
<path d="M34536 33171 L34464 33143" /> 
<path d="M34464 33143 L34416 33143" /> 
<path d="M34416 33143 L34345 33171" /> 
<path d="M34345 33171 L34321 33200" /> 
<g style = "stroke-linecap:round;" > 
<path d="M34321 33200 L34321 33200" /> 
</g><path d="M34131 33200 L34107 33171" /> 
<path d="M34107 33171 L34059 33143" /> 
<path d="M34059 33143 L33940 33143" /> 
<path d="M33940 33143 L33893 33171" /> 
<path d="M33893 33171 L33869 33200" /> 
<path d="M33869 33200 L33845 33257" /> 
<path d="M33845 33257 L33845 33314" /> 
<path d="M33845 33314 L33869 33400" /> 
<path d="M33869 33400 L34155 33743" /> 
<path d="M34155 33743 L33845 33743" /> 
<g style = "stroke-linecap:round;" > 
<path d="M33845 33743 L33845 33743" /> 
</g><path d="M33417 33343 L33417 33743" /> 
<g style = "stroke-linecap:round;" > 
<path d="M33417 33743 L33417 33743" /> 
</g><path d="M33536 33114 L33655 33543" /> 
<path d="M33655 33543 L33345 33543" /> 
<g style = "stroke-linecap:round;" > 
<path d="M33345 33543 L33345 33543" /> 
</g><path d="M32917 33143 L33155 33143" /> 
<path d="M33155 33143 L33179 33429" /> 
<path d="M33179 33429 L33155 33400" /> 
<path d="M33155 33400 L33107 33371" /> 
<path d="M33107 33371 L32988 33371" /> 
<path d="M32988 33371 L32941 33400" /> 
<path d="M32941 33400 L32917 33429" /> 
<path d="M32917 33429 L32893 33486" /> 
<path d="M32893 33486 L32893 33629" /> 
<path d="M32893 33629 L32917 33686" /> 
<path d="M32917 33686 L32941 33714" /> 
<path d="M32941 33714 L32988 33743" /> 
<path d="M32988 33743 L33107 33743" /> 
<path d="M33107 33743 L33155 33714" /> 
<path d="M33155 33714 L33179 33686" /> 
<g style = "stroke-linecap:round;" > 
<path d="M33179 33686 L33179 33686" /> 
</g></g>
<g style="fill:#0000C0; fill-opacity:0.0; 
  stroke:#A000A0; stroke-linecap:round; stroke-linejoin:round; stroke-opacity:1.0; stroke-opacity:1.0; stroke-width:50" 
   transform="translate(0 0) scale(1 1)">
<path d="M37000 32550 L37000 35450" /> 
<path d="M32000 35450 L32000 32550" /> 
<path d="M37000 32550 L32000 32550" /> 
<path d="M32000 35450 L37000 35450" /> 
<path d="M32000 34250 L32500 34250" /> 
<path d="M32500 34250 L32500 33750" /> 
<path d="M32500 33750 L32000 33750" /> 
</g>
<g style="fill:#0000C0; fill-opacity:0.0; 
  stroke:#0000C0; stroke-linecap:round; stroke-linejoin:round; stroke-opacity:1.0; stroke-opacity:1.0; stroke-width:0" 
   transform="translate(0 0) scale(1 1)">
<path d="M26498 25500 L26502 25500" /> 
<path d="M26500 25498 L26500 25502" /> 
</g>
<g style="fill:#0000C0; fill-opacity:0.0; 
  stroke:#0000C0; stroke-linecap:round; stroke-linejoin:round; stroke-opacity:1.0; stroke-opacity:1.0; stroke-width:50" 
   transform="translate(0 0) scale(1 1)">
<path d="M26957 25143 L26957 25629" /> 
<path d="M26957 25629 L26929 25686" /> 
<path d="M26929 25686 L26900 25714" /> 
<path d="M26900 25714 L26843 25743" /> 
<path d="M26843 25743 L26729 25743" /> 
<path d="M26729 25743 L26671 25714" /> 
<path d="M26671 25714 L26643 25686" /> 
<path d="M26643 25686 L26614 25629" /> 
<path d="M26614 25629 L26614 25143" /> 
<g style = "stroke-linecap:round;" > 
<path d="M26614 25143 L26614 25143" /> 
</g><path d="M26014 25743 L26357 25743" /> 
<g style = "stroke-linecap:round;" > 
<path d="M26357 25743 L26357 25743" /> 
</g><path d="M26185 25743 L26185 25143" /> 
<path d="M26185 25143 L26242 25229" /> 
<path d="M26242 25229 L26300 25286" /> 
<path d="M26300 25286 L26357 25314" /> 
<g style = "stroke-linecap:round;" > 
<path d="M26357 25314 L26357 25314" /> 
</g></g>
<g style="fill:#0000C0; fill-opacity:0.0; 
  stroke:#0000C0; stroke-linecap:round; stroke-linejoin:round; stroke-opacity:1.0; stroke-opacity:1.0; stroke-width:0" 
   transform="translate(0 0) scale(1 1)">
<path d="M26498 26500 L26502 26500" /> 
<path d="M26500 26498 L26500 26502" /> 
</g>
<g style="fill:#0000C0; fill-opacity:0.0; 
  stroke:#0000C0; stroke-linecap:round; stroke-linejoin:round; stroke-opacity:1.0; stroke-opacity:1.0; stroke-width:50" 
   transform="translate(0 0) scale(1 1)">
<path d="M28059 26143 L27725 26143" /> 
<path d="M27725 26143 L27940 26743" /> 
<g style = "stroke-linecap:round;" > 
<path d="M27940 26743 L27940 26743" /> 
</g><path d="M27321 26343 L27321 26743" /> 
<g style = "stroke-linecap:round;" > 
<path d="M27321 26743 L27321 26743" /> 
</g><path d="M27440 26114 L27559 26543" /> 
<path d="M27559 26543 L27249 26543" /> 
<g style = "stroke-linecap:round;" > 
<path d="M27249 26543 L27249 26543" /> 
</g><path d="M26821 26743 L27059 26743" /> 
<path d="M27059 26743 L27059 26143" /> 
<g style = "stroke-linecap:round;" > 
<path d="M27059 26143 L27059 26143" /> 
</g><path d="M26678 26714 L26606 26743" /> 
<path d="M26606 26743 L26487 26743" /> 
<path d="M26487 26743 L26440 26714" /> 
<path d="M26440 26714 L26416 26686" /> 
<path d="M26416 26686 L26392 26629" /> 
<path d="M26392 26629 L26392 26571" /> 
<path d="M26392 26571 L26416 26514" /> 
<path d="M26416 26514 L26440 26486" /> 
<path d="M26440 26486 L26487 26457" /> 
<path d="M26487 26457 L26583 26429" /> 
<path d="M26583 26429 L26630 26400" /> 
<path d="M26630 26400 L26654 26371" /> 
<path d="M26654 26371 L26678 26314" /> 
<path d="M26678 26314 L26678 26257" /> 
<path d="M26678 26257 L26654 26200" /> 
<path d="M26654 26200 L26630 26171" /> 
<path d="M26630 26171 L26583 26143" /> 
<path d="M26583 26143 L26463 26143" /> 
<path d="M26463 26143 L26392 26171" /> 
<g style = "stroke-linecap:round;" > 
<path d="M26392 26171 L26392 26171" /> 
</g><path d="M25940 26143 L26178 26143" /> 
<path d="M26178 26143 L26202 26429" /> 
<path d="M26202 26429 L26178 26400" /> 
<path d="M26178 26400 L26130 26371" /> 
<path d="M26130 26371 L26011 26371" /> 
<path d="M26011 26371 L25964 26400" /> 
<path d="M25964 26400 L25940 26429" /> 
<path d="M25940 26429 L25916 26486" /> 
<path d="M25916 26486 L25916 26629" /> 
<path d="M25916 26629 L25940 26686" /> 
<path d="M25940 26686 L25964 26714" /> 
<path d="M25964 26714 L26011 26743" /> 
<path d="M26011 26743 L26130 26743" /> 
<path d="M26130 26743 L26178 26714" /> 
<path d="M26178 26714 L26202 26686" /> 
<g style = "stroke-linecap:round;" > 
<path d="M26202 26686 L26202 26686" /> 
</g><path d="M25750 26143 L25416 26143" /> 
<path d="M25416 26143 L25631 26743" /> 
<g style = "stroke-linecap:round;" > 
<path d="M25631 26743 L25631 26743" /> 
</g><path d="M25012 26343 L25012 26743" /> 
<g style = "stroke-linecap:round;" > 
<path d="M25012 26743 L25012 26743" /> 
</g><path d="M25131 26114 L25250 26543" /> 
<path d="M25250 26543 L24940 26543" /> 
<g style = "stroke-linecap:round;" > 
<path d="M24940 26543 L24940 26543" /> 
</g></g>
<g style="fill:#0000C0; fill-opacity:0.0; 
  stroke:#A000A0; stroke-linecap:round; stroke-linejoin:round; stroke-opacity:1.0; stroke-opacity:1.0; stroke-width:50" 
   transform="translate(0 0) scale(1 1)">
<path d="M24000 27450 L24000 24550" /> 
<path d="M29000 24550 L29000 27450" /> 
<path d="M24000 27450 L29000 27450" /> 
<path d="M29000 24550 L24000 24550" /> 
<path d="M29000 25750 L28500 25750" /> 
<path d="M28500 25750 L28500 26250" /> 
<path d="M28500 26250 L29000 26250" /> 
</g>
<g style="fill:#0000C0; fill-opacity:0.0; 
  stroke:#0000C0; stroke-linecap:round; stroke-linejoin:round; stroke-opacity:1.0; stroke-opacity:1.0; stroke-width:0" 
   transform="translate(0 0) scale(1 1)">
<path d="M42498 25500 L42502 25500" /> 
<path d="M42500 25498 L42500 25502" /> 
</g>
<g style="fill:#0000C0; fill-opacity:0.0; 
  stroke:#0000C0; stroke-linecap:round; stroke-linejoin:round; stroke-opacity:1.0; stroke-opacity:1.0; stroke-width:50" 
   transform="translate(0 0) scale(1 1)">
<path d="M42957 25143 L42957 25629" /> 
<path d="M42957 25629 L42929 25686" /> 
<path d="M42929 25686 L42900 25714" /> 
<path d="M42900 25714 L42843 25743" /> 
<path d="M42843 25743 L42729 25743" /> 
<path d="M42729 25743 L42671 25714" /> 
<path d="M42671 25714 L42643 25686" /> 
<path d="M42643 25686 L42614 25629" /> 
<path d="M42614 25629 L42614 25143" /> 
<g style = "stroke-linecap:round;" > 
<path d="M42614 25143 L42614 25143" /> 
</g><path d="M42385 25143 L42014 25143" /> 
<path d="M42014 25143 L42214 25371" /> 
<path d="M42214 25371 L42128 25371" /> 
<path d="M42128 25371 L42071 25400" /> 
<path d="M42071 25400 L42042 25429" /> 
<path d="M42042 25429 L42014 25486" /> 
<path d="M42014 25486 L42014 25629" /> 
<path d="M42014 25629 L42042 25686" /> 
<path d="M42042 25686 L42071 25714" /> 
<path d="M42071 25714 L42128 25743" /> 
<path d="M42128 25743 L42300 25743" /> 
<path d="M42300 25743 L42357 25714" /> 
<path d="M42357 25714 L42385 25686" /> 
<g style = "stroke-linecap:round;" > 
<path d="M42385 25686 L42385 25686" /> 
</g></g>
<g style="fill:#0000C0; fill-opacity:0.0; 
  stroke:#0000C0; stroke-linecap:round; stroke-linejoin:round; stroke-opacity:1.0; stroke-opacity:1.0; stroke-width:0" 
   transform="translate(0 0) scale(1 1)">
<path d="M42498 26500 L42502 26500" /> 
<path d="M42500 26498 L42500 26502" /> 
</g>
<g style="fill:#0000C0; fill-opacity:0.0; 
  stroke:#0000C0; stroke-linecap:round; stroke-linejoin:round; stroke-opacity:1.0; stroke-opacity:1.0; stroke-width:50" 
   transform="translate(0 0) scale(1 1)">
<path d="M44059 26143 L43725 26143" /> 
<path d="M43725 26143 L43940 26743" /> 
<g style = "stroke-linecap:round;" > 
<path d="M43940 26743 L43940 26743" /> 
</g><path d="M43321 26343 L43321 26743" /> 
<g style = "stroke-linecap:round;" > 
<path d="M43321 26743 L43321 26743" /> 
</g><path d="M43440 26114 L43559 26543" /> 
<path d="M43559 26543 L43249 26543" /> 
<g style = "stroke-linecap:round;" > 
<path d="M43249 26543 L43249 26543" /> 
</g><path d="M42821 26743 L43059 26743" /> 
<path d="M43059 26743 L43059 26143" /> 
<g style = "stroke-linecap:round;" > 
<path d="M43059 26143 L43059 26143" /> 
</g><path d="M42678 26714 L42606 26743" /> 
<path d="M42606 26743 L42487 26743" /> 
<path d="M42487 26743 L42440 26714" /> 
<path d="M42440 26714 L42416 26686" /> 
<path d="M42416 26686 L42392 26629" /> 
<path d="M42392 26629 L42392 26571" /> 
<path d="M42392 26571 L42416 26514" /> 
<path d="M42416 26514 L42440 26486" /> 
<path d="M42440 26486 L42487 26457" /> 
<path d="M42487 26457 L42583 26429" /> 
<path d="M42583 26429 L42630 26400" /> 
<path d="M42630 26400 L42654 26371" /> 
<path d="M42654 26371 L42678 26314" /> 
<path d="M42678 26314 L42678 26257" /> 
<path d="M42678 26257 L42654 26200" /> 
<path d="M42654 26200 L42630 26171" /> 
<path d="M42630 26171 L42583 26143" /> 
<path d="M42583 26143 L42463 26143" /> 
<path d="M42463 26143 L42392 26171" /> 
<g style = "stroke-linecap:round;" > 
<path d="M42392 26171 L42392 26171" /> 
</g><path d="M41940 26143 L42178 26143" /> 
<path d="M42178 26143 L42202 26429" /> 
<path d="M42202 26429 L42178 26400" /> 
<path d="M42178 26400 L42130 26371" /> 
<path d="M42130 26371 L42011 26371" /> 
<path d="M42011 26371 L41964 26400" /> 
<path d="M41964 26400 L41940 26429" /> 
<path d="M41940 26429 L41916 26486" /> 
<path d="M41916 26486 L41916 26629" /> 
<path d="M41916 26629 L41940 26686" /> 
<path d="M41940 26686 L41964 26714" /> 
<path d="M41964 26714 L42011 26743" /> 
<path d="M42011 26743 L42130 26743" /> 
<path d="M42130 26743 L42178 26714" /> 
<path d="M42178 26714 L42202 26686" /> 
<g style = "stroke-linecap:round;" > 
<path d="M42202 26686 L42202 26686" /> 
</g><path d="M41750 26143 L41416 26143" /> 
<path d="M41416 26143 L41631 26743" /> 
<g style = "stroke-linecap:round;" > 
<path d="M41631 26743 L41631 26743" /> 
</g><path d="M41012 26343 L41012 26743" /> 
<g style = "stroke-linecap:round;" > 
<path d="M41012 26743 L41012 26743" /> 
</g><path d="M41131 26114 L41250 26543" /> 
<path d="M41250 26543 L40940 26543" /> 
<g style = "stroke-linecap:round;" > 
<path d="M40940 26543 L40940 26543" /> 
</g></g>
<g style="fill:#0000C0; fill-opacity:0.0; 
  stroke:#A000A0; stroke-linecap:round; stroke-linejoin:round; stroke-opacity:1.0; stroke-opacity:1.0; stroke-width:50" 
   transform="translate(0 0) scale(1 1)">
<path d="M40000 27450 L40000 24550" /> 
<path d="M45000 24550 L45000 27450" /> 
<path d="M40000 27450 L45000 27450" /> 
<path d="M45000 24550 L40000 24550" /> 
<path d="M45000 25750 L44500 25750" /> 
<path d="M44500 25750 L44500 26250" /> 
<path d="M44500 26250 L45000 26250" /> 
</g>
<g style="fill:#0000C0; fill-opacity:0.0; 
  stroke:#0000C0; stroke-linecap:round; stroke-linejoin:round; stroke-opacity:1.0; stroke-opacity:1.0; stroke-width:0" 
   transform="translate(0 0) scale(1 1)">
<path d="M34498 25500 L34502 25500" /> 
<path d="M34500 25498 L34500 25502" /> 
</g>
<g style="fill:#0000C0; fill-opacity:0.0; 
  stroke:#0000C0; stroke-linecap:round; stroke-linejoin:round; stroke-opacity:1.0; stroke-opacity:1.0; stroke-width:50" 
   transform="translate(0 0) scale(1 1)">
<path d="M34957 25143 L34957 25629" /> 
<path d="M34957 25629 L34929 25686" /> 
<path d="M34929 25686 L34900 25714" /> 
<path d="M34900 25714 L34843 25743" /> 
<path d="M34843 25743 L34729 25743" /> 
<path d="M34729 25743 L34671 25714" /> 
<path d="M34671 25714 L34643 25686" /> 
<path d="M34643 25686 L34614 25629" /> 
<path d="M34614 25629 L34614 25143" /> 
<g style = "stroke-linecap:round;" > 
<path d="M34614 25143 L34614 25143" /> 
</g><path d="M34357 25200 L34328 25171" /> 
<path d="M34328 25171 L34271 25143" /> 
<path d="M34271 25143 L34128 25143" /> 
<path d="M34128 25143 L34071 25171" /> 
<path d="M34071 25171 L34042 25200" /> 
<path d="M34042 25200 L34014 25257" /> 
<path d="M34014 25257 L34014 25314" /> 
<path d="M34014 25314 L34042 25400" /> 
<path d="M34042 25400 L34385 25743" /> 
<path d="M34385 25743 L34014 25743" /> 
<g style = "stroke-linecap:round;" > 
<path d="M34014 25743 L34014 25743" /> 
</g></g>
<g style="fill:#0000C0; fill-opacity:0.0; 
  stroke:#0000C0; stroke-linecap:round; stroke-linejoin:round; stroke-opacity:1.0; stroke-opacity:1.0; stroke-width:0" 
   transform="translate(0 0) scale(1 1)">
<path d="M34498 26500 L34502 26500" /> 
<path d="M34500 26498 L34500 26502" /> 
</g>
<g style="fill:#0000C0; fill-opacity:0.0; 
  stroke:#0000C0; stroke-linecap:round; stroke-linejoin:round; stroke-opacity:1.0; stroke-opacity:1.0; stroke-width:50" 
   transform="translate(0 0) scale(1 1)">
<path d="M36059 26143 L35725 26143" /> 
<path d="M35725 26143 L35940 26743" /> 
<g style = "stroke-linecap:round;" > 
<path d="M35940 26743 L35940 26743" /> 
</g><path d="M35321 26343 L35321 26743" /> 
<g style = "stroke-linecap:round;" > 
<path d="M35321 26743 L35321 26743" /> 
</g><path d="M35440 26114 L35559 26543" /> 
<path d="M35559 26543 L35249 26543" /> 
<g style = "stroke-linecap:round;" > 
<path d="M35249 26543 L35249 26543" /> 
</g><path d="M34821 26743 L35059 26743" /> 
<path d="M35059 26743 L35059 26143" /> 
<g style = "stroke-linecap:round;" > 
<path d="M35059 26143 L35059 26143" /> 
</g><path d="M34678 26714 L34606 26743" /> 
<path d="M34606 26743 L34487 26743" /> 
<path d="M34487 26743 L34440 26714" /> 
<path d="M34440 26714 L34416 26686" /> 
<path d="M34416 26686 L34392 26629" /> 
<path d="M34392 26629 L34392 26571" /> 
<path d="M34392 26571 L34416 26514" /> 
<path d="M34416 26514 L34440 26486" /> 
<path d="M34440 26486 L34487 26457" /> 
<path d="M34487 26457 L34583 26429" /> 
<path d="M34583 26429 L34630 26400" /> 
<path d="M34630 26400 L34654 26371" /> 
<path d="M34654 26371 L34678 26314" /> 
<path d="M34678 26314 L34678 26257" /> 
<path d="M34678 26257 L34654 26200" /> 
<path d="M34654 26200 L34630 26171" /> 
<path d="M34630 26171 L34583 26143" /> 
<path d="M34583 26143 L34463 26143" /> 
<path d="M34463 26143 L34392 26171" /> 
<g style = "stroke-linecap:round;" > 
<path d="M34392 26171 L34392 26171" /> 
</g><path d="M33940 26143 L34178 26143" /> 
<path d="M34178 26143 L34202 26429" /> 
<path d="M34202 26429 L34178 26400" /> 
<path d="M34178 26400 L34130 26371" /> 
<path d="M34130 26371 L34011 26371" /> 
<path d="M34011 26371 L33964 26400" /> 
<path d="M33964 26400 L33940 26429" /> 
<path d="M33940 26429 L33916 26486" /> 
<path d="M33916 26486 L33916 26629" /> 
<path d="M33916 26629 L33940 26686" /> 
<path d="M33940 26686 L33964 26714" /> 
<path d="M33964 26714 L34011 26743" /> 
<path d="M34011 26743 L34130 26743" /> 
<path d="M34130 26743 L34178 26714" /> 
<path d="M34178 26714 L34202 26686" /> 
<g style = "stroke-linecap:round;" > 
<path d="M34202 26686 L34202 26686" /> 
</g><path d="M33750 26143 L33416 26143" /> 
<path d="M33416 26143 L33631 26743" /> 
<g style = "stroke-linecap:round;" > 
<path d="M33631 26743 L33631 26743" /> 
</g><path d="M33012 26343 L33012 26743" /> 
<g style = "stroke-linecap:round;" > 
<path d="M33012 26743 L33012 26743" /> 
</g><path d="M33131 26114 L33250 26543" /> 
<path d="M33250 26543 L32940 26543" /> 
<g style = "stroke-linecap:round;" > 
<path d="M32940 26543 L32940 26543" /> 
</g></g>
<g style="fill:#0000C0; fill-opacity:0.0; 
  stroke:#A000A0; stroke-linecap:round; stroke-linejoin:round; stroke-opacity:1.0; stroke-opacity:1.0; stroke-width:50" 
   transform="translate(0 0) scale(1 1)">
<path d="M32000 27450 L32000 24550" /> 
<path d="M37000 24550 L37000 27450" /> 
<path d="M32000 27450 L37000 27450" /> 
<path d="M37000 24550 L32000 24550" /> 
<path d="M37000 25750 L36500 25750" /> 
<path d="M36500 25750 L36500 26250" /> 
<path d="M36500 26250 L37000 26250" /> 
</g>
<g style="fill:#0000C0; fill-opacity:0.0; 
  stroke:#0000C0; stroke-linecap:round; stroke-linejoin:round; stroke-opacity:1.0; stroke-opacity:1.0; stroke-width:0" 
   transform="translate(0 0) scale(1 1)">
<path d="M46748 31000 L46752 31000" /> 
<path d="M46750 30998 L46750 31002" /> 
</g>
<g style="fill:#0000C0; fill-opacity:0.0; 
  stroke:#0000C0; stroke-linecap:round; stroke-linejoin:round; stroke-opacity:1.0; stroke-opacity:1.0; stroke-width:50" 
   transform="translate(0 0) scale(1 1)">
<path d="M46843 30807 L46857 30793" /> 
<path d="M46857 30793 L46871 30750" /> 
<path d="M46871 30750 L46871 30721" /> 
<path d="M46871 30721 L46857 30678" /> 
<path d="M46857 30678 L46829 30650" /> 
<path d="M46829 30650 L46800 30635" /> 
<path d="M46800 30635 L46743 30621" /> 
<path d="M46743 30621 L46700 30621" /> 
<path d="M46700 30621 L46643 30635" /> 
<path d="M46643 30635 L46614 30650" /> 
<path d="M46614 30650 L46586 30678" /> 
<path d="M46586 30678 L46571 30721" /> 
<path d="M46571 30721 L46571 30750" /> 
<path d="M46571 30750 L46586 30793" /> 
<path d="M46586 30793 L46600 30807" /> 
<g style = "stroke-linecap:round;" > 
<path d="M46600 30807 L46600 30807" /> 
</g><path d="M46871 31093 L46871 30921" /> 
<g style = "stroke-linecap:round;" > 
<path d="M46871 30921 L46871 30921" /> 
</g><path d="M46871 31007 L46571 31007" /> 
<path d="M46571 31007 L46614 30978" /> 
<path d="M46614 30978 L46643 30950" /> 
<path d="M46643 30950 L46657 30921" /> 
<g style = "stroke-linecap:round;" > 
<path d="M46657 30921 L46657 30921" /> 
</g><path d="M46571 31279 L46571 31307" /> 
<path d="M46571 31307 L46586 31336" /> 
<path d="M46586 31336 L46600 31350" /> 
<path d="M46600 31350 L46629 31364" /> 
<path d="M46629 31364 L46686 31379" /> 
<path d="M46686 31379 L46757 31379" /> 
<path d="M46757 31379 L46814 31364" /> 
<path d="M46814 31364 L46843 31350" /> 
<path d="M46843 31350 L46857 31336" /> 
<path d="M46857 31336 L46871 31307" /> 
<path d="M46871 31307 L46871 31279" /> 
<path d="M46871 31279 L46857 31250" /> 
<path d="M46857 31250 L46843 31236" /> 
<path d="M46843 31236 L46814 31221" /> 
<path d="M46814 31221 L46757 31207" /> 
<path d="M46757 31207 L46686 31207" /> 
<path d="M46686 31207 L46629 31221" /> 
<path d="M46629 31221 L46600 31236" /> 
<path d="M46600 31236 L46586 31250" /> 
<path d="M46586 31250 L46571 31279" /> 
</g>
<g style="fill:#0000C0; fill-opacity:0.0; 
  stroke:#A000A0; stroke-linecap:round; stroke-linejoin:round; stroke-opacity:1.0; stroke-opacity:1.0; stroke-width:50" 
   transform="translate(0 0) scale(1 1)">
<path d="M46300 30000 L47200 30000" /> 
<path d="M47200 30000 L47200 30650" /> 
<path d="M46300 31350 L46300 32000" /> 
<path d="M46300 32000 L47200 32000" /> 
<path d="M47200 32000 L47200 31350" /> 
<path d="M46300 30650 L46300 30000" /> 
</g>
<g style="fill:#0000C0; fill-opacity:0.0; 
  stroke:#0000C0; stroke-linecap:round; stroke-linejoin:round; stroke-opacity:1.0; stroke-opacity:1.0; stroke-width:0" 
   transform="translate(0 0) scale(1 1)">
<path d="M37748 24750 L37752 24750" /> 
<path d="M37750 24748 L37750 24752" /> 
</g>
<g style="fill:#0000C0; fill-opacity:0.0; 
  stroke:#0000C0; stroke-linecap:round; stroke-linejoin:round; stroke-opacity:1.0; stroke-opacity:1.0; stroke-width:50" 
   transform="translate(0 0) scale(1 1)">
<path d="M37843 24557 L37857 24543" /> 
<path d="M37857 24543 L37871 24500" /> 
<path d="M37871 24500 L37871 24471" /> 
<path d="M37871 24471 L37857 24428" /> 
<path d="M37857 24428 L37829 24400" /> 
<path d="M37829 24400 L37800 24385" /> 
<path d="M37800 24385 L37743 24371" /> 
<path d="M37743 24371 L37700 24371" /> 
<path d="M37700 24371 L37643 24385" /> 
<path d="M37643 24385 L37614 24400" /> 
<path d="M37614 24400 L37586 24428" /> 
<path d="M37586 24428 L37571 24471" /> 
<path d="M37571 24471 L37571 24500" /> 
<path d="M37571 24500 L37586 24543" /> 
<path d="M37586 24543 L37600 24557" /> 
<g style = "stroke-linecap:round;" > 
<path d="M37600 24557 L37600 24557" /> 
</g><path d="M37871 24843 L37871 24671" /> 
<g style = "stroke-linecap:round;" > 
<path d="M37871 24671 L37871 24671" /> 
</g><path d="M37871 24757 L37571 24757" /> 
<path d="M37571 24757 L37614 24728" /> 
<path d="M37614 24728 L37643 24700" /> 
<path d="M37643 24700 L37657 24671" /> 
<g style = "stroke-linecap:round;" > 
<path d="M37657 24671 L37657 24671" /> 
</g><path d="M37600 24957 L37586 24971" /> 
<path d="M37586 24971 L37571 25000" /> 
<path d="M37571 25000 L37571 25071" /> 
<path d="M37571 25071 L37586 25100" /> 
<path d="M37586 25100 L37600 25114" /> 
<path d="M37600 25114 L37629 25129" /> 
<path d="M37629 25129 L37657 25129" /> 
<path d="M37657 25129 L37700 25114" /> 
<path d="M37700 25114 L37871 24943" /> 
<path d="M37871 24943 L37871 25129" /> 
<g style = "stroke-linecap:round;" > 
<path d="M37871 25129 L37871 25129" /> 
</g></g>
<g style="fill:#0000C0; fill-opacity:0.0; 
  stroke:#A000A0; stroke-linecap:round; stroke-linejoin:round; stroke-opacity:1.0; stroke-opacity:1.0; stroke-width:50" 
   transform="translate(0 0) scale(1 1)">
<path d="M37300 23750 L38200 23750" /> 
<path d="M38200 23750 L38200 24400" /> 
<path d="M37300 25100 L37300 25750" /> 
<path d="M37300 25750 L38200 25750" /> 
<path d="M38200 25750 L38200 25100" /> 
<path d="M37300 24400 L37300 23750" /> 
</g>
<g style="fill:#0000C0; fill-opacity:0.0; 
  stroke:#0000C0; stroke-linecap:round; stroke-linejoin:round; stroke-opacity:1.0; stroke-opacity:1.0; stroke-width:0" 
   transform="translate(0 0) scale(1 1)">
<path d="M46998 24750 L47002 24750" /> 
<path d="M47000 24748 L47000 24752" /> 
</g>
<g style="fill:#0000C0; fill-opacity:0.0; 
  stroke:#0000C0; stroke-linecap:round; stroke-linejoin:round; stroke-opacity:1.0; stroke-opacity:1.0; stroke-width:50" 
   transform="translate(0 0) scale(1 1)">
<path d="M47193 24843 L47207 24857" /> 
<path d="M47207 24857 L47250 24871" /> 
<path d="M47250 24871 L47279 24871" /> 
<path d="M47279 24871 L47322 24857" /> 
<path d="M47322 24857 L47350 24829" /> 
<path d="M47350 24829 L47365 24800" /> 
<path d="M47365 24800 L47379 24743" /> 
<path d="M47379 24743 L47379 24700" /> 
<path d="M47379 24700 L47365 24643" /> 
<path d="M47365 24643 L47350 24614" /> 
<path d="M47350 24614 L47322 24586" /> 
<path d="M47322 24586 L47279 24571" /> 
<path d="M47279 24571 L47250 24571" /> 
<path d="M47250 24571 L47207 24586" /> 
<path d="M47207 24586 L47193 24600" /> 
<g style = "stroke-linecap:round;" > 
<path d="M47193 24600 L47193 24600" /> 
</g><path d="M46907 24871 L47079 24871" /> 
<g style = "stroke-linecap:round;" > 
<path d="M47079 24871 L47079 24871" /> 
</g><path d="M46993 24871 L46993 24571" /> 
<path d="M46993 24571 L47022 24614" /> 
<path d="M47022 24614 L47050 24643" /> 
<path d="M47050 24643 L47079 24657" /> 
<g style = "stroke-linecap:round;" > 
<path d="M47079 24657 L47079 24657" /> 
</g><path d="M46650 24571 L46707 24571" /> 
<path d="M46707 24571 L46736 24586" /> 
<path d="M46736 24586 L46750 24600" /> 
<path d="M46750 24600 L46779 24643" /> 
<path d="M46779 24643 L46793 24700" /> 
<path d="M46793 24700 L46793 24814" /> 
<path d="M46793 24814 L46779 24843" /> 
<path d="M46779 24843 L46764 24857" /> 
<path d="M46764 24857 L46736 24871" /> 
<path d="M46736 24871 L46679 24871" /> 
<path d="M46679 24871 L46650 24857" /> 
<path d="M46650 24857 L46636 24843" /> 
<path d="M46636 24843 L46621 24814" /> 
<path d="M46621 24814 L46621 24743" /> 
<path d="M46621 24743 L46636 24714" /> 
<path d="M46636 24714 L46650 24700" /> 
<path d="M46650 24700 L46679 24686" /> 
<path d="M46679 24686 L46736 24686" /> 
<path d="M46736 24686 L46764 24700" /> 
<path d="M46764 24700 L46779 24714" /> 
<path d="M46779 24714 L46793 24743" /> 
<g style = "stroke-linecap:round;" > 
<path d="M46793 24743 L46793 24743" /> 
</g></g>
<g style="fill:#0000C0; fill-opacity:0.0; 
  stroke:#A000A0; stroke-linecap:round; stroke-linejoin:round; stroke-opacity:1.0; stroke-opacity:1.0; stroke-width:50" 
   transform="translate(0 0) scale(1 1)">
<path d="M46000 25200 L46000 24300" /> 
<path d="M46000 24300 L46650 24300" /> 
<path d="M47350 25200 L48000 25200" /> 
<path d="M48000 25200 L48000 24300" /> 
<path d="M48000 24300 L47350 24300" /> 
<path d="M46650 25200 L46000 25200" /> 
</g>
<g style="fill:#0000C0; fill-opacity:0.0; 
  stroke:#0000C0; stroke-linecap:round; stroke-linejoin:round; stroke-opacity:1.0; stroke-opacity:1.0; stroke-width:0" 
   transform="translate(0 0) scale(1 1)">
<path d="M47748 31000 L47752 31000" /> 
<path d="M47750 30998 L47750 31002" /> 
</g>
<g style="fill:#0000C0; fill-opacity:0.0; 
  stroke:#0000C0; stroke-linecap:round; stroke-linejoin:round; stroke-opacity:1.0; stroke-opacity:1.0; stroke-width:50" 
   transform="translate(0 0) scale(1 1)">
<path d="M47843 30950 L47857 30936" /> 
<path d="M47857 30936 L47871 30893" /> 
<path d="M47871 30893 L47871 30864" /> 
<path d="M47871 30864 L47857 30821" /> 
<path d="M47857 30821 L47829 30793" /> 
<path d="M47829 30793 L47800 30778" /> 
<path d="M47800 30778 L47743 30764" /> 
<path d="M47743 30764 L47700 30764" /> 
<path d="M47700 30764 L47643 30778" /> 
<path d="M47643 30778 L47614 30793" /> 
<path d="M47614 30793 L47586 30821" /> 
<path d="M47586 30821 L47571 30864" /> 
<path d="M47571 30864 L47571 30893" /> 
<path d="M47571 30893 L47586 30936" /> 
<path d="M47586 30936 L47600 30950" /> 
<g style = "stroke-linecap:round;" > 
<path d="M47600 30950 L47600 30950" /> 
</g><path d="M47700 31121 L47686 31093" /> 
<path d="M47686 31093 L47671 31078" /> 
<path d="M47671 31078 L47643 31064" /> 
<path d="M47643 31064 L47629 31064" /> 
<path d="M47629 31064 L47600 31078" /> 
<path d="M47600 31078 L47586 31093" /> 
<path d="M47586 31093 L47571 31121" /> 
<path d="M47571 31121 L47571 31178" /> 
<path d="M47571 31178 L47586 31207" /> 
<path d="M47586 31207 L47600 31221" /> 
<path d="M47600 31221 L47629 31236" /> 
<path d="M47629 31236 L47643 31236" /> 
<path d="M47643 31236 L47671 31221" /> 
<path d="M47671 31221 L47686 31207" /> 
<path d="M47686 31207 L47700 31178" /> 
<path d="M47700 31178 L47700 31121" /> 
<path d="M47700 31121 L47714 31093" /> 
<path d="M47714 31093 L47729 31078" /> 
<path d="M47729 31078 L47757 31064" /> 
<path d="M47757 31064 L47814 31064" /> 
<path d="M47814 31064 L47843 31078" /> 
<path d="M47843 31078 L47857 31093" /> 
<path d="M47857 31093 L47871 31121" /> 
<path d="M47871 31121 L47871 31178" /> 
<path d="M47871 31178 L47857 31207" /> 
<path d="M47857 31207 L47843 31221" /> 
<path d="M47843 31221 L47814 31236" /> 
<path d="M47814 31236 L47757 31236" /> 
<path d="M47757 31236 L47729 31221" /> 
<path d="M47729 31221 L47714 31207" /> 
<path d="M47714 31207 L47700 31178" /> 
<g style = "stroke-linecap:round;" > 
<path d="M47700 31178 L47700 31178" /> 
</g></g>
<g style="fill:#0000C0; fill-opacity:0.0; 
  stroke:#A000A0; stroke-linecap:round; stroke-linejoin:round; stroke-opacity:1.0; stroke-opacity:1.0; stroke-width:50" 
   transform="translate(0 0) scale(1 1)">
<path d="M47300 30000 L48200 30000" /> 
<path d="M48200 30000 L48200 30650" /> 
<path d="M47300 31350 L47300 32000" /> 
<path d="M47300 32000 L48200 32000" /> 
<path d="M48200 32000 L48200 31350" /> 
<path d="M47300 30650 L47300 30000" /> 
</g>
<g style="fill:#0000C0; fill-opacity:0.0; 
  stroke:#0000C0; stroke-linecap:round; stroke-linejoin:round; stroke-opacity:1.0; stroke-opacity:1.0; stroke-width:0" 
   transform="translate(0 0) scale(1 1)">
<path d="M29748 24750 L29752 24750" /> 
<path d="M29750 24748 L29750 24752" /> 
</g>
<g style="fill:#0000C0; fill-opacity:0.0; 
  stroke:#0000C0; stroke-linecap:round; stroke-linejoin:round; stroke-opacity:1.0; stroke-opacity:1.0; stroke-width:50" 
   transform="translate(0 0) scale(1 1)">
<path d="M29843 24700 L29857 24686" /> 
<path d="M29857 24686 L29871 24643" /> 
<path d="M29871 24643 L29871 24614" /> 
<path d="M29871 24614 L29857 24571" /> 
<path d="M29857 24571 L29829 24543" /> 
<path d="M29829 24543 L29800 24528" /> 
<path d="M29800 24528 L29743 24514" /> 
<path d="M29743 24514 L29700 24514" /> 
<path d="M29700 24514 L29643 24528" /> 
<path d="M29643 24528 L29614 24543" /> 
<path d="M29614 24543 L29586 24571" /> 
<path d="M29586 24571 L29571 24614" /> 
<path d="M29571 24614 L29571 24643" /> 
<path d="M29571 24643 L29586 24686" /> 
<path d="M29586 24686 L29600 24700" /> 
<g style = "stroke-linecap:round;" > 
<path d="M29600 24700 L29600 24700" /> 
</g><path d="M29671 24957 L29871 24957" /> 
<g style = "stroke-linecap:round;" > 
<path d="M29871 24957 L29871 24957" /> 
</g><path d="M29557 24886 L29771 24814" /> 
<path d="M29771 24814 L29771 25000" /> 
<g style = "stroke-linecap:round;" > 
<path d="M29771 25000 L29771 25000" /> 
</g></g>
<g style="fill:#0000C0; fill-opacity:0.0; 
  stroke:#A000A0; stroke-linecap:round; stroke-linejoin:round; stroke-opacity:1.0; stroke-opacity:1.0; stroke-width:50" 
   transform="translate(0 0) scale(1 1)">
<path d="M29300 23750 L30200 23750" /> 
<path d="M30200 23750 L30200 24400" /> 
<path d="M29300 25100 L29300 25750" /> 
<path d="M29300 25750 L30200 25750" /> 
<path d="M30200 25750 L30200 25100" /> 
<path d="M29300 24400 L29300 23750" /> 
</g>
<g style="fill:#808000; fill-opacity:0.0; 
  stroke:#808000; stroke-linecap:round; stroke-linejoin:round; stroke-opacity:1.0; stroke-opacity:1.0; stroke-width:60" 
   transform="translate(0 0) scale(1 1)">
<path d="M52175 33925 L52825 33925" /> 
<path d="M52825 33925 L52825 34575" /> 
<path d="M52825 34575 L52175 34575" /> 
<path d="M52175 33925 L52175 34575" /> 
<ellipse cx="52500" cy="35250" rx="325" ry="325"  /> 
</g>
<g style="fill:#808000; fill-opacity:0.0; 
  stroke:#0000C0; stroke-linecap:round; stroke-linejoin:round; stroke-opacity:1.0; stroke-opacity:1.0; stroke-width:0" 
   transform="translate(0 0) scale(1 1)">
<path d="M55498 34251 L55502 34251" /> 
<path d="M55500 34249 L55500 34253" /> 
</g>
<g style="fill:#0000C0; fill-opacity:0.0; 
  stroke:#0000C0; stroke-linecap:round; stroke-linejoin:round; stroke-opacity:1.0; stroke-opacity:1.0; stroke-width:80" 
   transform="translate(0 0) scale(1 1)">
<path d="M55557 34437 L55573 34465" /> 
<path d="M55573 34465 L55622 34494" /> 
<path d="M55622 34494 L55654 34494" /> 
<path d="M55654 34494 L55702 34465" /> 
<path d="M55702 34465 L55735 34408" /> 
<path d="M55735 34408 L55751 34351" /> 
<path d="M55751 34351 L55767 34237" /> 
<path d="M55767 34237 L55767 34151" /> 
<path d="M55767 34151 L55751 34037" /> 
<path d="M55751 34037 L55735 33980" /> 
<path d="M55735 33980 L55702 33922" /> 
<path d="M55702 33922 L55654 33894" /> 
<path d="M55654 33894 L55622 33894" /> 
<path d="M55622 33894 L55573 33922" /> 
<path d="M55573 33922 L55557 33951" /> 
<g style = "stroke-linecap:round;" > 
<path d="M55557 33951 L55557 33951" /> 
</g><path d="M55249 33894 L55411 33894" /> 
<path d="M55411 33894 L55427 34180" /> 
<path d="M55427 34180 L55411 34151" /> 
<path d="M55411 34151 L55379 34122" /> 
<path d="M55379 34122 L55298 34122" /> 
<path d="M55298 34122 L55265 34151" /> 
<path d="M55265 34151 L55249 34180" /> 
<path d="M55249 34180 L55233 34237" /> 
<path d="M55233 34237 L55233 34380" /> 
<path d="M55233 34380 L55249 34437" /> 
<path d="M55249 34437 L55265 34465" /> 
<path d="M55265 34465 L55298 34494" /> 
<path d="M55298 34494 L55379 34494" /> 
<path d="M55379 34494 L55411 34465" /> 
<path d="M55411 34465 L55427 34437" /> 
<g style = "stroke-linecap:round;" > 
<path d="M55427 34437 L55427 34437" /> 
</g></g>
<g style="fill:#0000C0; fill-opacity:0.0; 
  stroke:#0000C0; stroke-linecap:round; stroke-linejoin:round; stroke-opacity:1.0; stroke-opacity:1.0; stroke-width:0" 
   transform="translate(0 0) scale(1 1)">
<path d="M55498 35250 L55502 35250" /> 
<path d="M55500 35248 L55500 35252" /> 
</g>
<g style="fill:#0000C0; fill-opacity:0.0; 
  stroke:#0000C0; stroke-linecap:round; stroke-linejoin:round; stroke-opacity:1.0; stroke-opacity:1.0; stroke-width:80" 
   transform="translate(0 0) scale(1 1)">
<path d="M55766 35405 L55785 35429" /> 
<path d="M55785 35429 L55842 35452" /> 
<path d="M55842 35452 L55880 35452" /> 
<path d="M55880 35452 L55938 35429" /> 
<path d="M55938 35429 L55976 35381" /> 
<path d="M55976 35381 L55995 35333" /> 
<path d="M55995 35333 L56014 35238" /> 
<path d="M56014 35238 L56014 35167" /> 
<path d="M56014 35167 L55995 35071" /> 
<path d="M55995 35071 L55976 35024" /> 
<path d="M55976 35024 L55938 34976" /> 
<path d="M55938 34976 L55880 34952" /> 
<path d="M55880 34952 L55842 34952" /> 
<path d="M55842 34952 L55785 34976" /> 
<path d="M55785 34976 L55766 35000" /> 
<g style = "stroke-linecap:round;" > 
<path d="M55766 35000 L55766 35000" /> 
</g><path d="M55595 35452 L55595 34952" /> 
<path d="M55595 34952 L55442 34952" /> 
<path d="M55442 34952 L55404 34976" /> 
<path d="M55404 34976 L55385 35000" /> 
<path d="M55385 35000 L55366 35048" /> 
<path d="M55366 35048 L55366 35119" /> 
<path d="M55366 35119 L55385 35167" /> 
<path d="M55385 35167 L55404 35190" /> 
<path d="M55404 35190 L55442 35214" /> 
<path d="M55442 35214 L55595 35214" /> 
<g style = "stroke-linecap:round;" > 
<path d="M55595 35214 L55595 35214" /> 
</g><path d="M54985 35452 L55214 35452" /> 
<g style = "stroke-linecap:round;" > 
<path d="M55214 35452 L55214 35452" /> 
</g><path d="M55100 35452 L55100 34952" /> 
<path d="M55100 34952 L55138 35024" /> 
<path d="M55138 35024 L55176 35071" /> 
<path d="M55176 35071 L55214 35095" /> 
<g style = "stroke-linecap:round;" > 
<path d="M55214 35095 L55214 35095" /> 
</g></g>
<g style="fill:#0000C0; fill-opacity:0.0; 
  stroke:#0000C0; stroke-linecap:round; stroke-linejoin:round; stroke-opacity:1.0; stroke-opacity:1.0; stroke-width:0" 
   transform="translate(0 0) scale(1 1)">
<path d="M53548 34150 L53552 34150" /> 
<path d="M53550 34148 L53550 34152" /> 
</g>
<g style="fill:#0000C0; fill-opacity:0.0; 
  stroke:#0000C0; stroke-linecap:round; stroke-linejoin:round; stroke-opacity:1.0; stroke-opacity:1.0; stroke-width:120" 
   transform="translate(0 0) scale(1 1)">
<path d="M53564 33922 L53564 34379" /> 
<g style = "stroke-linecap:round;" > 
<path d="M53564 34379 L53564 34379" /> 
</g><path d="M53793 34150 L53336 34150" /> 
<g style = "stroke-linecap:round;" > 
<path d="M53336 34150 L53336 34150" /> 
</g></g>
<g style="fill:#0000C0; fill-opacity:0.0; 
  stroke:#A000A0; stroke-linecap:round; stroke-linejoin:round; stroke-opacity:1.0; stroke-opacity:1.0; stroke-width:80" 
   transform="translate(0 0) scale(1 1)">
<path d="M53250 36250 L53250 33250" /> 
<path d="M53250 33250 L57500 33250" /> 
<path d="M57500 33250 L57500 36250" /> 
<path d="M57500 36250 L53250 36250" /> 
<path d="M52500 34250 L53250 34250" /> 
<path d="M52500 35250 L53250 35250" /> 
</g> 
</svg> 
