<?xml version="1.0" standalone="no"?>
<!DOCTYPE svg PUBLIC "-//W3C//DTD SVG 1.1//EN" 
"http://www.w3.org/Graphics/SVG/1.1/DTD/svg11.dtd"> 
<svg
  xmlns="http://www.w3.org/2000/svg"
  version="1.1"
  width="11.7in" height="8.267in" viewBox="0 0 117000 82670 "
>
  <title>SVG Picture created as i186-cpucard-SilkS_Front.svg </title>
  <desc>Picture generated by wxSVG v0101 </desc>
  <g style="fill:black; stroke:black; stroke-width:1">
</g>
<g style="fill:#000000; fill-opacity:0.0; 
  stroke:#0000C0; stroke-linecap:round; stroke-linejoin:round; stroke-opacity:1.0; stroke-opacity:1.0; stroke-width:0" 
   transform="translate(0 0) scale(1 1)">
<path d="M59298 36600 L59302 36600" /> 
<path d="M59300 36598 L59300 36602" /> 
</g>
<g style="fill:#00A0A0; fill-opacity:0.0; 
  stroke:#00A0A0; stroke-linecap:round; stroke-linejoin:round; stroke-opacity:1.0; stroke-opacity:1.0; stroke-width:120" 
   transform="translate(0 0) scale(1 1)">
<path d="M59072 36619 L59529 36619" /> 
<g style = "stroke-linecap:round;" > 
<path d="M59529 36619 L59529 36619" /> 
</g><path d="M59300 36924 L59300 36314" /> 
<g style = "stroke-linecap:round;" > 
<path d="M59300 36314 L59300 36314" /> 
</g></g>
<g style="fill:#00A0A0; fill-opacity:0.0; 
  stroke:#0000C0; stroke-linecap:round; stroke-linejoin:round; stroke-opacity:1.0; stroke-opacity:1.0; stroke-width:0" 
   transform="translate(0 0) scale(1 1)">
<path d="M29298 33800 L29302 33800" /> 
<path d="M29300 33798 L29300 33802" /> 
</g>
<g style="fill:#00A0A0; fill-opacity:0.0; 
  stroke:#00A0A0; stroke-linecap:round; stroke-linejoin:round; stroke-opacity:1.0; stroke-opacity:1.0; stroke-width:120" 
   transform="translate(0 0) scale(1 1)">
<path d="M29072 33819 L29529 33819" /> 
<g style = "stroke-linecap:round;" > 
<path d="M29529 33819 L29529 33819" /> 
</g><path d="M29300 34124 L29300 33514" /> 
<g style = "stroke-linecap:round;" > 
<path d="M29300 33514 L29300 33514" /> 
</g></g>
<g style="fill:#00A0A0; fill-opacity:0.0; 
  stroke:#0000C0; stroke-linecap:round; stroke-linejoin:round; stroke-opacity:1.0; stroke-opacity:1.0; stroke-width:0" 
   transform="translate(0 0) scale(1 1)">
<path d="M51328 28130 L51332 28130" /> 
<path d="M51330 28128 L51330 28132" /> 
</g>
<g style="fill:#00A0A0; fill-opacity:0.0; 
  stroke:#00A0A0; stroke-linecap:round; stroke-linejoin:round; stroke-opacity:1.0; stroke-opacity:1.0; stroke-width:120" 
   transform="translate(0 0) scale(1 1)">
<path d="M50788 27920 L50788 28454" /> 
<g style = "stroke-linecap:round;" > 
<path d="M50788 28454 L50788 28454" /> 
</g><path d="M50645 27616 L50502 28187" /> 
<path d="M50502 28187 L50874 28187" /> 
<g style = "stroke-linecap:round;" > 
<path d="M50874 28187 L50874 28187" /> 
</g><path d="M51102 28149 L51559 28149" /> 
<g style = "stroke-linecap:round;" > 
<path d="M51559 28149 L51559 28149" /> 
</g><path d="M51788 27654 L52188 27654" /> 
<path d="M52188 27654 L51931 28454" /> 
<g style = "stroke-linecap:round;" > 
<path d="M51931 28454 L51931 28454" /> 
</g></g>
<g style="fill:#00A0A0; fill-opacity:0.0; 
  stroke:#0000C0; stroke-linecap:round; stroke-linejoin:round; stroke-opacity:1.0; stroke-opacity:1.0; stroke-width:0" 
   transform="translate(0 0) scale(1 1)">
<path d="M51408 26110 L51412 26110" /> 
<path d="M51410 26108 L51410 26112" /> 
</g>
<g style="fill:#00A0A0; fill-opacity:0.0; 
  stroke:#00A0A0; stroke-linecap:round; stroke-linejoin:round; stroke-opacity:1.0; stroke-opacity:1.0; stroke-width:120" 
   transform="translate(0 0) scale(1 1)">
<path d="M50725 25634 L50782 25634" /> 
<path d="M50782 25634 L50839 25672" /> 
<path d="M50839 25672 L50868 25710" /> 
<path d="M50868 25710 L50897 25786" /> 
<path d="M50897 25786 L50925 25939" /> 
<path d="M50925 25939 L50925 26129" /> 
<path d="M50925 26129 L50897 26281" /> 
<path d="M50897 26281 L50868 26358" /> 
<path d="M50868 26358 L50839 26396" /> 
<path d="M50839 26396 L50782 26434" /> 
<path d="M50782 26434 L50725 26434" /> 
<path d="M50725 26434 L50668 26396" /> 
<path d="M50668 26396 L50639 26358" /> 
<path d="M50639 26358 L50611 26281" /> 
<path d="M50611 26281 L50582 26129" /> 
<path d="M50582 26129 L50582 25939" /> 
<path d="M50582 25939 L50611 25786" /> 
<path d="M50611 25786 L50639 25710" /> 
<path d="M50639 25710 L50668 25672" /> 
<path d="M50668 25672 L50725 25634" /> 
<path d="M51182 26129 L51639 26129" /> 
<g style = "stroke-linecap:round;" > 
<path d="M51639 26129 L51639 26129" /> 
</g><path d="M51868 25634 L52239 25634" /> 
<path d="M52239 25634 L52039 25939" /> 
<path d="M52039 25939 L52125 25939" /> 
<path d="M52125 25939 L52182 25977" /> 
<path d="M52182 25977 L52211 26015" /> 
<path d="M52211 26015 L52239 26091" /> 
<path d="M52239 26091 L52239 26281" /> 
<path d="M52239 26281 L52211 26358" /> 
<path d="M52211 26358 L52182 26396" /> 
<path d="M52182 26396 L52125 26434" /> 
<path d="M52125 26434 L51953 26434" /> 
<path d="M51953 26434 L51896 26396" /> 
<path d="M51896 26396 L51868 26358" /> 
<g style = "stroke-linecap:round;" > 
<path d="M51868 26358 L51868 26358" /> 
</g></g>
<g style="fill:#00A0A0; fill-opacity:0.0; 
  stroke:#0000C0; stroke-linecap:round; stroke-linejoin:round; stroke-opacity:1.0; stroke-opacity:1.0; stroke-width:0" 
   transform="translate(0 0) scale(1 1)">
<path d="M58098 30320 L58102 30320" /> 
<path d="M58100 30318 L58100 30322" /> 
</g>
<g style="fill:#00A0A0; fill-opacity:0.0; 
  stroke:#00A0A0; stroke-linecap:round; stroke-linejoin:round; stroke-opacity:1.0; stroke-opacity:1.0; stroke-width:120" 
   transform="translate(0 0) scale(1 1)">
<path d="M57000 30568 L56971 30606" /> 
<path d="M56971 30606 L56885 30644" /> 
<path d="M56885 30644 L56828 30644" /> 
<path d="M56828 30644 L56743 30606" /> 
<path d="M56743 30606 L56685 30530" /> 
<path d="M56685 30530 L56657 30453" /> 
<path d="M56657 30453 L56628 30301" /> 
<path d="M56628 30301 L56628 30187" /> 
<path d="M56628 30187 L56657 30034" /> 
<path d="M56657 30034 L56685 29958" /> 
<path d="M56685 29958 L56743 29882" /> 
<path d="M56743 29882 L56828 29844" /> 
<path d="M56828 29844 L56885 29844" /> 
<path d="M56885 29844 L56971 29882" /> 
<path d="M56971 29882 L57000 29920" /> 
<g style = "stroke-linecap:round;" > 
<path d="M57000 29920 L57000 29920" /> 
</g><path d="M57257 30644 L57257 29844" /> 
<path d="M57257 29844 L57485 29844" /> 
<path d="M57485 29844 L57543 29882" /> 
<path d="M57543 29882 L57571 29920" /> 
<path d="M57571 29920 L57600 29996" /> 
<path d="M57600 29996 L57600 30110" /> 
<path d="M57600 30110 L57571 30187" /> 
<path d="M57571 30187 L57543 30225" /> 
<path d="M57543 30225 L57485 30263" /> 
<path d="M57485 30263 L57257 30263" /> 
<g style = "stroke-linecap:round;" > 
<path d="M57257 30263 L57257 30263" /> 
</g><path d="M57857 29844 L57857 30491" /> 
<path d="M57857 30491 L57885 30568" /> 
<path d="M57885 30568 L57914 30606" /> 
<path d="M57914 30606 L57971 30644" /> 
<path d="M57971 30644 L58085 30644" /> 
<path d="M58085 30644 L58143 30606" /> 
<path d="M58143 30606 L58171 30568" /> 
<path d="M58171 30568 L58200 30491" /> 
<path d="M58200 30491 L58200 29844" /> 
<g style = "stroke-linecap:round;" > 
<path d="M58200 29844 L58200 29844" /> 
</g><path d="M58343 30720 L58800 30720" /> 
<g style = "stroke-linecap:round;" > 
<path d="M58800 30720 L58800 30720" /> 
</g><path d="M58943 30644 L58943 29844" /> 
<g style = "stroke-linecap:round;" > 
<path d="M58943 29844 L58943 29844" /> 
</g><path d="M59229 30644 L59229 29844" /> 
<path d="M59229 29844 L59372 29844" /> 
<path d="M59372 29844 L59457 29882" /> 
<path d="M59457 29882 L59515 29958" /> 
<path d="M59515 29958 L59543 30034" /> 
<path d="M59543 30034 L59572 30187" /> 
<path d="M59572 30187 L59572 30301" /> 
<path d="M59572 30301 L59543 30453" /> 
<path d="M59543 30453 L59515 30530" /> 
<path d="M59515 30530 L59457 30606" /> 
<path d="M59457 30606 L59372 30644" /> 
<path d="M59372 30644 L59229 30644" /> 
</g>
<g style="fill:#00A0A0; fill-opacity:0.0; 
  stroke:#0000C0; stroke-linecap:round; stroke-linejoin:round; stroke-opacity:1.0; stroke-opacity:1.0; stroke-width:0" 
   transform="translate(0 0) scale(1 1)">
<path d="M57558 32480 L57562 32480" /> 
<path d="M57560 32478 L57560 32482" /> 
</g>
<g style="fill:#00A0A0; fill-opacity:0.0; 
  stroke:#00A0A0; stroke-linecap:round; stroke-linejoin:round; stroke-opacity:1.0; stroke-opacity:1.0; stroke-width:120" 
   transform="translate(0 0) scale(1 1)">
<path d="M55617 32804 L55617 32004" /> 
<path d="M55617 32004 L55960 32804" /> 
<path d="M55960 32804 L55960 32004" /> 
<g style = "stroke-linecap:round;" > 
<path d="M55960 32004 L55960 32004" /> 
</g><path d="M56246 32804 L56246 32004" /> 
<path d="M56246 32004 L56446 32575" /> 
<path d="M56446 32575 L56646 32004" /> 
<path d="M56646 32004 L56646 32804" /> 
<g style = "stroke-linecap:round;" > 
<path d="M56646 32804 L56646 32804" /> 
</g><path d="M56932 32804 L56932 32004" /> 
<g style = "stroke-linecap:round;" > 
<path d="M56932 32004 L56932 32004" /> 
</g><path d="M57646 31966 L57132 32994" /> 
<g style = "stroke-linecap:round;" > 
<path d="M57132 32994 L57132 32994" /> 
</g><path d="M57847 32804 L57847 32004" /> 
<g style = "stroke-linecap:round;" > 
<path d="M57847 32004 L57847 32004" /> 
</g><path d="M58133 32804 L58133 32004" /> 
<path d="M58133 32004 L58476 32804" /> 
<path d="M58476 32804 L58476 32004" /> 
<g style = "stroke-linecap:round;" > 
<path d="M58476 32004 L58476 32004" /> 
</g><path d="M58676 32004 L59019 32004" /> 
<g style = "stroke-linecap:round;" > 
<path d="M59019 32004 L59019 32004" /> 
</g><path d="M58848 32804 L58848 32004" /> 
<g style = "stroke-linecap:round;" > 
<path d="M58848 32004 L58848 32004" /> 
</g><path d="M59333 32004 L59390 32004" /> 
<path d="M59390 32004 L59447 32042" /> 
<path d="M59447 32042 L59476 32080" /> 
<path d="M59476 32080 L59505 32156" /> 
<path d="M59505 32156 L59533 32309" /> 
<path d="M59533 32309 L59533 32499" /> 
<path d="M59533 32499 L59505 32651" /> 
<path d="M59505 32651 L59476 32728" /> 
<path d="M59476 32728 L59447 32766" /> 
<path d="M59447 32766 L59390 32804" /> 
<path d="M59390 32804 L59333 32804" /> 
<path d="M59333 32804 L59276 32766" /> 
<path d="M59276 32766 L59247 32728" /> 
<path d="M59247 32728 L59219 32651" /> 
<path d="M59219 32651 L59190 32499" /> 
<path d="M59190 32499 L59190 32309" /> 
<path d="M59190 32309 L59219 32156" /> 
<path d="M59219 32156 L59247 32080" /> 
<path d="M59247 32080 L59276 32042" /> 
<path d="M59276 32042 L59333 32004" /> 
</g>
<g style="fill:#00A0A0; fill-opacity:0.0; 
  stroke:#0000C0; stroke-linecap:round; stroke-linejoin:round; stroke-opacity:1.0; stroke-opacity:1.0; stroke-width:0" 
   transform="translate(0 0) scale(1 1)">
<path d="M54528 24745 L54532 24745" /> 
<path d="M54530 24743 L54530 24747" /> 
</g>
<g style="fill:#00A0A0; fill-opacity:0.0; 
  stroke:#00A0A0; stroke-linecap:round; stroke-linejoin:round; stroke-opacity:1.0; stroke-opacity:1.0; stroke-width:120" 
   transform="translate(0 0) scale(1 1)">
<path d="M52959 25069 L52959 24269" /> 
<g style = "stroke-linecap:round;" > 
<path d="M52959 24269 L52959 24269" /> 
</g><path d="M53245 25069 L53245 24269" /> 
<path d="M53245 24269 L53588 25069" /> 
<path d="M53588 25069 L53588 24269" /> 
<g style = "stroke-linecap:round;" > 
<path d="M53588 24269 L53588 24269" /> 
</g><path d="M53788 24269 L54131 24269" /> 
<g style = "stroke-linecap:round;" > 
<path d="M54131 24269 L54131 24269" /> 
</g><path d="M53960 25069 L53960 24269" /> 
<g style = "stroke-linecap:round;" > 
<path d="M53960 24269 L53960 24269" /> 
</g><path d="M54188 25145 L54645 25145" /> 
<g style = "stroke-linecap:round;" > 
<path d="M54645 25145 L54645 25145" /> 
</g><path d="M54759 25031 L54845 25069" /> 
<path d="M54845 25069 L54988 25069" /> 
<path d="M54988 25069 L55045 25031" /> 
<path d="M55045 25031 L55074 24993" /> 
<path d="M55074 24993 L55102 24916" /> 
<path d="M55102 24916 L55102 24840" /> 
<path d="M55102 24840 L55074 24764" /> 
<path d="M55074 24764 L55045 24726" /> 
<path d="M55045 24726 L54988 24688" /> 
<path d="M54988 24688 L54874 24650" /> 
<path d="M54874 24650 L54816 24612" /> 
<path d="M54816 24612 L54788 24574" /> 
<path d="M54788 24574 L54759 24497" /> 
<path d="M54759 24497 L54759 24421" /> 
<path d="M54759 24421 L54788 24345" /> 
<path d="M54788 24345 L54816 24307" /> 
<path d="M54816 24307 L54874 24269" /> 
<path d="M54874 24269 L55016 24269" /> 
<path d="M55016 24269 L55102 24307" /> 
<g style = "stroke-linecap:round;" > 
<path d="M55102 24307 L55102 24307" /> 
</g><path d="M55359 24650 L55559 24650" /> 
<g style = "stroke-linecap:round;" > 
<path d="M55559 24650 L55559 24650" /> 
</g><path d="M55645 25069 L55359 25069" /> 
<path d="M55359 25069 L55359 24269" /> 
<path d="M55359 24269 L55645 24269" /> 
<g style = "stroke-linecap:round;" > 
<path d="M55645 24269 L55645 24269" /> 
</g><path d="M56188 25069 L55902 25069" /> 
<path d="M55902 25069 L55902 24269" /> 
<g style = "stroke-linecap:round;" > 
<path d="M55902 24269 L55902 24269" /> 
</g></g>
<g style="fill:#00A0A0; fill-opacity:0.0; 
  stroke:#FFFF00; stroke-linecap:round; stroke-linejoin:round; stroke-opacity:1.0; stroke-opacity:1.0; stroke-width:150" 
   transform="translate(0 0) scale(1 1)">
<path d="M59717 21068 L59682 21103" /> 
<path d="M21952 21068 L59717 21068" /> 
<path d="M21952 39793 L21952 21068" /> 
<path d="M59717 39793 L21952 39793" /> 
<path d="M59717 21103 L59717 39793" /> 
</g>
<g style="fill:#00A0A0; fill-opacity:0.0; 
  stroke:#0000C0; stroke-linecap:round; stroke-linejoin:round; stroke-opacity:1.0; stroke-opacity:1.0; stroke-width:0" 
   transform="translate(0 0) scale(1 1)">
<path d="M34498 34500 L34502 34500" /> 
<path d="M34500 34498 L34500 34502" /> 
</g>
<g style="fill:#C0C0C0; fill-opacity:0.0; 
  stroke:#C0C0C0; stroke-linecap:round; stroke-linejoin:round; stroke-opacity:1.0; stroke-opacity:1.0; stroke-width:50" 
   transform="translate(0 0) scale(1 1)">
<path d="M34043 34143 L34043 34629" /> 
<path d="M34043 34629 L34071 34686" /> 
<path d="M34071 34686 L34100 34714" /> 
<path d="M34100 34714 L34157 34743" /> 
<path d="M34157 34743 L34271 34743" /> 
<path d="M34271 34743 L34329 34714" /> 
<path d="M34329 34714 L34357 34686" /> 
<path d="M34357 34686 L34386 34629" /> 
<path d="M34386 34629 L34386 34143" /> 
<g style = "stroke-linecap:round;" > 
<path d="M34386 34143 L34386 34143" /> 
</g><path d="M34929 34343 L34929 34743" /> 
<g style = "stroke-linecap:round;" > 
<path d="M34929 34743 L34929 34743" /> 
</g><path d="M34786 34114 L34643 34543" /> 
<path d="M34643 34543 L35015 34543" /> 
<g style = "stroke-linecap:round;" > 
<path d="M35015 34543 L35015 34543" /> 
</g></g>
<g style="fill:#C0C0C0; fill-opacity:0.0; 
  stroke:#0000C0; stroke-linecap:round; stroke-linejoin:round; stroke-opacity:1.0; stroke-opacity:1.0; stroke-width:0" 
   transform="translate(0 0) scale(1 1)">
<path d="M34498 35500 L34502 35500" /> 
<path d="M34500 35498 L34500 35502" /> 
</g>
<g style="fill:#C0C0C0; fill-opacity:0.0; 
  stroke:#C0C0C0; stroke-linecap:round; stroke-linejoin:round; stroke-opacity:1.0; stroke-opacity:1.0; stroke-width:50" 
   transform="translate(0 0) scale(1 1)">
<path d="M32941 35143 L33275 35143" /> 
<path d="M33275 35143 L33060 35743" /> 
<g style = "stroke-linecap:round;" > 
<path d="M33060 35743 L33060 35743" /> 
</g><path d="M33679 35343 L33679 35743" /> 
<g style = "stroke-linecap:round;" > 
<path d="M33679 35743 L33679 35743" /> 
</g><path d="M33560 35114 L33441 35543" /> 
<path d="M33441 35543 L33751 35543" /> 
<g style = "stroke-linecap:round;" > 
<path d="M33751 35543 L33751 35543" /> 
</g><path d="M34179 35743 L33941 35743" /> 
<path d="M33941 35743 L33941 35143" /> 
<g style = "stroke-linecap:round;" > 
<path d="M33941 35143 L33941 35143" /> 
</g><path d="M34322 35714 L34394 35743" /> 
<path d="M34394 35743 L34513 35743" /> 
<path d="M34513 35743 L34560 35714" /> 
<path d="M34560 35714 L34584 35686" /> 
<path d="M34584 35686 L34608 35629" /> 
<path d="M34608 35629 L34608 35571" /> 
<path d="M34608 35571 L34584 35514" /> 
<path d="M34584 35514 L34560 35486" /> 
<path d="M34560 35486 L34513 35457" /> 
<path d="M34513 35457 L34417 35429" /> 
<path d="M34417 35429 L34370 35400" /> 
<path d="M34370 35400 L34346 35371" /> 
<path d="M34346 35371 L34322 35314" /> 
<path d="M34322 35314 L34322 35257" /> 
<path d="M34322 35257 L34346 35200" /> 
<path d="M34346 35200 L34370 35171" /> 
<path d="M34370 35171 L34417 35143" /> 
<path d="M34417 35143 L34537 35143" /> 
<path d="M34537 35143 L34608 35171" /> 
<g style = "stroke-linecap:round;" > 
<path d="M34608 35171 L34608 35171" /> 
</g><path d="M35060 35143 L34822 35143" /> 
<path d="M34822 35143 L34798 35429" /> 
<path d="M34798 35429 L34822 35400" /> 
<path d="M34822 35400 L34870 35371" /> 
<path d="M34870 35371 L34989 35371" /> 
<path d="M34989 35371 L35036 35400" /> 
<path d="M35036 35400 L35060 35429" /> 
<path d="M35060 35429 L35084 35486" /> 
<path d="M35084 35486 L35084 35629" /> 
<path d="M35084 35629 L35060 35686" /> 
<path d="M35060 35686 L35036 35714" /> 
<path d="M35036 35714 L34989 35743" /> 
<path d="M34989 35743 L34870 35743" /> 
<path d="M34870 35743 L34822 35714" /> 
<path d="M34822 35714 L34798 35686" /> 
<g style = "stroke-linecap:round;" > 
<path d="M34798 35686 L34798 35686" /> 
</g><path d="M35250 35143 L35584 35143" /> 
<path d="M35584 35143 L35369 35743" /> 
<g style = "stroke-linecap:round;" > 
<path d="M35369 35743 L35369 35743" /> 
</g><path d="M35988 35343 L35988 35743" /> 
<g style = "stroke-linecap:round;" > 
<path d="M35988 35743 L35988 35743" /> 
</g><path d="M35869 35114 L35750 35543" /> 
<path d="M35750 35543 L36060 35543" /> 
<g style = "stroke-linecap:round;" > 
<path d="M36060 35543 L36060 35543" /> 
</g></g>
<g style="fill:#C0C0C0; fill-opacity:0.0; 
  stroke:#00A0A0; stroke-linecap:round; stroke-linejoin:round; stroke-opacity:1.0; stroke-opacity:1.0; stroke-width:50" 
   transform="translate(0 0) scale(1 1)">
<path d="M37000 36450 L37000 33550" /> 
<path d="M32000 33550 L32000 36450" /> 
<path d="M37000 36450 L32000 36450" /> 
<path d="M32000 33550 L37000 33550" /> 
<path d="M32000 34750 L32500 34750" /> 
<path d="M32500 34750 L32500 35250" /> 
<path d="M32500 35250 L32000 35250" /> 
</g>
<g style="fill:#C0C0C0; fill-opacity:0.0; 
  stroke:#0000C0; stroke-linecap:round; stroke-linejoin:round; stroke-opacity:1.0; stroke-opacity:1.0; stroke-width:0" 
   transform="translate(0 0) scale(1 1)">
<path d="M26498 34500 L26502 34500" /> 
<path d="M26500 34498 L26500 34502" /> 
</g>
<g style="fill:#C0C0C0; fill-opacity:0.0; 
  stroke:#C0C0C0; stroke-linecap:round; stroke-linejoin:round; stroke-opacity:1.0; stroke-opacity:1.0; stroke-width:50" 
   transform="translate(0 0) scale(1 1)">
<path d="M26043 34143 L26043 34629" /> 
<path d="M26043 34629 L26071 34686" /> 
<path d="M26071 34686 L26100 34714" /> 
<path d="M26100 34714 L26157 34743" /> 
<path d="M26157 34743 L26271 34743" /> 
<path d="M26271 34743 L26329 34714" /> 
<path d="M26329 34714 L26357 34686" /> 
<path d="M26357 34686 L26386 34629" /> 
<path d="M26386 34629 L26386 34143" /> 
<g style = "stroke-linecap:round;" > 
<path d="M26386 34143 L26386 34143" /> 
</g><path d="M26929 34143 L26815 34143" /> 
<path d="M26815 34143 L26758 34171" /> 
<path d="M26758 34171 L26729 34200" /> 
<path d="M26729 34200 L26672 34286" /> 
<path d="M26672 34286 L26643 34400" /> 
<path d="M26643 34400 L26643 34629" /> 
<path d="M26643 34629 L26672 34686" /> 
<path d="M26672 34686 L26700 34714" /> 
<path d="M26700 34714 L26758 34743" /> 
<path d="M26758 34743 L26872 34743" /> 
<path d="M26872 34743 L26929 34714" /> 
<path d="M26929 34714 L26958 34686" /> 
<path d="M26958 34686 L26986 34629" /> 
<path d="M26986 34629 L26986 34486" /> 
<path d="M26986 34486 L26958 34429" /> 
<path d="M26958 34429 L26929 34400" /> 
<path d="M26929 34400 L26872 34371" /> 
<path d="M26872 34371 L26758 34371" /> 
<path d="M26758 34371 L26700 34400" /> 
<path d="M26700 34400 L26672 34429" /> 
<path d="M26672 34429 L26643 34486" /> 
<g style = "stroke-linecap:round;" > 
<path d="M26643 34486 L26643 34486" /> 
</g></g>
<g style="fill:#C0C0C0; fill-opacity:0.0; 
  stroke:#0000C0; stroke-linecap:round; stroke-linejoin:round; stroke-opacity:1.0; stroke-opacity:1.0; stroke-width:0" 
   transform="translate(0 0) scale(1 1)">
<path d="M26498 35500 L26502 35500" /> 
<path d="M26500 35498 L26500 35502" /> 
</g>
<g style="fill:#C0C0C0; fill-opacity:0.0; 
  stroke:#C0C0C0; stroke-linecap:round; stroke-linejoin:round; stroke-opacity:1.0; stroke-opacity:1.0; stroke-width:50" 
   transform="translate(0 0) scale(1 1)">
<path d="M24941 35143 L25275 35143" /> 
<path d="M25275 35143 L25060 35743" /> 
<g style = "stroke-linecap:round;" > 
<path d="M25060 35743 L25060 35743" /> 
</g><path d="M25679 35343 L25679 35743" /> 
<g style = "stroke-linecap:round;" > 
<path d="M25679 35743 L25679 35743" /> 
</g><path d="M25560 35114 L25441 35543" /> 
<path d="M25441 35543 L25751 35543" /> 
<g style = "stroke-linecap:round;" > 
<path d="M25751 35543 L25751 35543" /> 
</g><path d="M26179 35743 L25941 35743" /> 
<path d="M25941 35743 L25941 35143" /> 
<g style = "stroke-linecap:round;" > 
<path d="M25941 35143 L25941 35143" /> 
</g><path d="M26322 35714 L26394 35743" /> 
<path d="M26394 35743 L26513 35743" /> 
<path d="M26513 35743 L26560 35714" /> 
<path d="M26560 35714 L26584 35686" /> 
<path d="M26584 35686 L26608 35629" /> 
<path d="M26608 35629 L26608 35571" /> 
<path d="M26608 35571 L26584 35514" /> 
<path d="M26584 35514 L26560 35486" /> 
<path d="M26560 35486 L26513 35457" /> 
<path d="M26513 35457 L26417 35429" /> 
<path d="M26417 35429 L26370 35400" /> 
<path d="M26370 35400 L26346 35371" /> 
<path d="M26346 35371 L26322 35314" /> 
<path d="M26322 35314 L26322 35257" /> 
<path d="M26322 35257 L26346 35200" /> 
<path d="M26346 35200 L26370 35171" /> 
<path d="M26370 35171 L26417 35143" /> 
<path d="M26417 35143 L26537 35143" /> 
<path d="M26537 35143 L26608 35171" /> 
<g style = "stroke-linecap:round;" > 
<path d="M26608 35171 L26608 35171" /> 
</g><path d="M27060 35143 L26822 35143" /> 
<path d="M26822 35143 L26798 35429" /> 
<path d="M26798 35429 L26822 35400" /> 
<path d="M26822 35400 L26870 35371" /> 
<path d="M26870 35371 L26989 35371" /> 
<path d="M26989 35371 L27036 35400" /> 
<path d="M27036 35400 L27060 35429" /> 
<path d="M27060 35429 L27084 35486" /> 
<path d="M27084 35486 L27084 35629" /> 
<path d="M27084 35629 L27060 35686" /> 
<path d="M27060 35686 L27036 35714" /> 
<path d="M27036 35714 L26989 35743" /> 
<path d="M26989 35743 L26870 35743" /> 
<path d="M26870 35743 L26822 35714" /> 
<path d="M26822 35714 L26798 35686" /> 
<g style = "stroke-linecap:round;" > 
<path d="M26798 35686 L26798 35686" /> 
</g><path d="M27250 35143 L27584 35143" /> 
<path d="M27584 35143 L27369 35743" /> 
<g style = "stroke-linecap:round;" > 
<path d="M27369 35743 L27369 35743" /> 
</g><path d="M27988 35343 L27988 35743" /> 
<g style = "stroke-linecap:round;" > 
<path d="M27988 35743 L27988 35743" /> 
</g><path d="M27869 35114 L27750 35543" /> 
<path d="M27750 35543 L28060 35543" /> 
<g style = "stroke-linecap:round;" > 
<path d="M28060 35543 L28060 35543" /> 
</g></g>
<g style="fill:#C0C0C0; fill-opacity:0.0; 
  stroke:#00A0A0; stroke-linecap:round; stroke-linejoin:round; stroke-opacity:1.0; stroke-opacity:1.0; stroke-width:50" 
   transform="translate(0 0) scale(1 1)">
<path d="M29000 36450 L29000 33550" /> 
<path d="M24000 33550 L24000 36450" /> 
<path d="M29000 36450 L24000 36450" /> 
<path d="M24000 33550 L29000 33550" /> 
<path d="M24000 34750 L24500 34750" /> 
<path d="M24500 34750 L24500 35250" /> 
<path d="M24500 35250 L24000 35250" /> 
</g>
<g style="fill:#C0C0C0; fill-opacity:0.0; 
  stroke:#0000C0; stroke-linecap:round; stroke-linejoin:round; stroke-opacity:1.0; stroke-opacity:1.0; stroke-width:0" 
   transform="translate(0 0) scale(1 1)">
<path d="M31998 29750 L32002 29750" /> 
<path d="M32000 29748 L32000 29752" /> 
</g>
<g style="fill:#C0C0C0; fill-opacity:0.0; 
  stroke:#C0C0C0; stroke-linecap:round; stroke-linejoin:round; stroke-opacity:1.0; stroke-opacity:1.0; stroke-width:50" 
   transform="translate(0 0) scale(1 1)">
<path d="M32093 29800 L32107 29814" /> 
<path d="M32107 29814 L32121 29857" /> 
<path d="M32121 29857 L32121 29886" /> 
<path d="M32121 29886 L32107 29929" /> 
<path d="M32107 29929 L32079 29957" /> 
<path d="M32079 29957 L32050 29972" /> 
<path d="M32050 29972 L31993 29986" /> 
<path d="M31993 29986 L31950 29986" /> 
<path d="M31950 29986 L31893 29972" /> 
<path d="M31893 29972 L31864 29957" /> 
<path d="M31864 29957 L31836 29929" /> 
<path d="M31836 29929 L31821 29886" /> 
<path d="M31821 29886 L31821 29857" /> 
<path d="M31821 29857 L31836 29814" /> 
<path d="M31836 29814 L31850 29800" /> 
<g style = "stroke-linecap:round;" > 
<path d="M31850 29800 L31850 29800" /> 
</g><path d="M31821 29543 L31821 29600" /> 
<path d="M31821 29600 L31836 29629" /> 
<path d="M31836 29629 L31850 29643" /> 
<path d="M31850 29643 L31893 29672" /> 
<path d="M31893 29672 L31950 29686" /> 
<path d="M31950 29686 L32064 29686" /> 
<path d="M32064 29686 L32093 29672" /> 
<path d="M32093 29672 L32107 29657" /> 
<path d="M32107 29657 L32121 29629" /> 
<path d="M32121 29629 L32121 29572" /> 
<path d="M32121 29572 L32107 29543" /> 
<path d="M32107 29543 L32093 29529" /> 
<path d="M32093 29529 L32064 29514" /> 
<path d="M32064 29514 L31993 29514" /> 
<path d="M31993 29514 L31964 29529" /> 
<path d="M31964 29529 L31950 29543" /> 
<path d="M31950 29543 L31936 29572" /> 
<path d="M31936 29572 L31936 29629" /> 
<path d="M31936 29629 L31950 29657" /> 
<path d="M31950 29657 L31964 29672" /> 
<path d="M31964 29672 L31993 29686" /> 
<g style = "stroke-linecap:round;" > 
<path d="M31993 29686 L31993 29686" /> 
</g></g>
<g style="fill:#C0C0C0; fill-opacity:0.0; 
  stroke:#00A0A0; stroke-linecap:round; stroke-linejoin:round; stroke-opacity:1.0; stroke-opacity:1.0; stroke-width:50" 
   transform="translate(0 0) scale(1 1)">
<path d="M31550 30750 L32450 30750" /> 
<path d="M32450 30750 L32450 30100" /> 
<path d="M31550 29400 L31550 28750" /> 
<path d="M31550 28750 L32450 28750" /> 
<path d="M32450 28750 L32450 29400" /> 
<path d="M31550 30100 L31550 30750" /> 
</g>
<g style="fill:#C0C0C0; fill-opacity:0.0; 
  stroke:#0000C0; stroke-linecap:round; stroke-linejoin:round; stroke-opacity:1.0; stroke-opacity:1.0; stroke-width:0" 
   transform="translate(0 0) scale(1 1)">
<path d="M23248 36500 L23252 36500" /> 
<path d="M23250 36498 L23250 36502" /> 
</g>
<g style="fill:#C0C0C0; fill-opacity:0.0; 
  stroke:#C0C0C0; stroke-linecap:round; stroke-linejoin:round; stroke-opacity:1.0; stroke-opacity:1.0; stroke-width:50" 
   transform="translate(0 0) scale(1 1)">
<path d="M23343 36693 L23357 36707" /> 
<path d="M23357 36707 L23371 36750" /> 
<path d="M23371 36750 L23371 36779" /> 
<path d="M23371 36779 L23357 36822" /> 
<path d="M23357 36822 L23329 36850" /> 
<path d="M23329 36850 L23300 36865" /> 
<path d="M23300 36865 L23243 36879" /> 
<path d="M23243 36879 L23200 36879" /> 
<path d="M23200 36879 L23143 36865" /> 
<path d="M23143 36865 L23114 36850" /> 
<path d="M23114 36850 L23086 36822" /> 
<path d="M23086 36822 L23071 36779" /> 
<path d="M23071 36779 L23071 36750" /> 
<path d="M23071 36750 L23086 36707" /> 
<path d="M23086 36707 L23100 36693" /> 
<g style = "stroke-linecap:round;" > 
<path d="M23100 36693 L23100 36693" /> 
</g><path d="M23371 36407 L23371 36579" /> 
<g style = "stroke-linecap:round;" > 
<path d="M23371 36579 L23371 36579" /> 
</g><path d="M23371 36493 L23071 36493" /> 
<path d="M23071 36493 L23114 36522" /> 
<path d="M23114 36522 L23143 36550" /> 
<path d="M23143 36550 L23157 36579" /> 
<g style = "stroke-linecap:round;" > 
<path d="M23157 36579 L23157 36579" /> 
</g><path d="M23171 36150 L23371 36150" /> 
<g style = "stroke-linecap:round;" > 
<path d="M23371 36150 L23371 36150" /> 
</g><path d="M23057 36221 L23271 36293" /> 
<path d="M23271 36293 L23271 36107" /> 
<g style = "stroke-linecap:round;" > 
<path d="M23271 36107 L23271 36107" /> 
</g></g>
<g style="fill:#C0C0C0; fill-opacity:0.0; 
  stroke:#00A0A0; stroke-linecap:round; stroke-linejoin:round; stroke-opacity:1.0; stroke-opacity:1.0; stroke-width:50" 
   transform="translate(0 0) scale(1 1)">
<path d="M23700 35500 L22800 35500" /> 
<path d="M22800 35500 L22800 36150" /> 
<path d="M23700 36850 L23700 37500" /> 
<path d="M23700 37500 L22800 37500" /> 
<path d="M22800 37500 L22800 36850" /> 
<path d="M23700 36150 L23700 35500" /> 
</g>
<g style="fill:#C0C0C0; fill-opacity:0.0; 
  stroke:#0000C0; stroke-linecap:round; stroke-linejoin:round; stroke-opacity:1.0; stroke-opacity:1.0; stroke-width:0" 
   transform="translate(0 0) scale(1 1)">
<path d="M22748 31000 L22752 31000" /> 
<path d="M22750 30998 L22750 31002" /> 
</g>
<g style="fill:#C0C0C0; fill-opacity:0.0; 
  stroke:#C0C0C0; stroke-linecap:round; stroke-linejoin:round; stroke-opacity:1.0; stroke-opacity:1.0; stroke-width:50" 
   transform="translate(0 0) scale(1 1)">
<path d="M22843 31050 L22857 31064" /> 
<path d="M22857 31064 L22871 31107" /> 
<path d="M22871 31107 L22871 31136" /> 
<path d="M22871 31136 L22857 31179" /> 
<path d="M22857 31179 L22829 31207" /> 
<path d="M22829 31207 L22800 31222" /> 
<path d="M22800 31222 L22743 31236" /> 
<path d="M22743 31236 L22700 31236" /> 
<path d="M22700 31236 L22643 31222" /> 
<path d="M22643 31222 L22614 31207" /> 
<path d="M22614 31207 L22586 31179" /> 
<path d="M22586 31179 L22571 31136" /> 
<path d="M22571 31136 L22571 31107" /> 
<path d="M22571 31107 L22586 31064" /> 
<path d="M22586 31064 L22600 31050" /> 
<g style = "stroke-linecap:round;" > 
<path d="M22600 31050 L22600 31050" /> 
</g><path d="M22600 30936 L22586 30922" /> 
<path d="M22586 30922 L22571 30893" /> 
<path d="M22571 30893 L22571 30822" /> 
<path d="M22571 30822 L22586 30793" /> 
<path d="M22586 30793 L22600 30779" /> 
<path d="M22600 30779 L22629 30764" /> 
<path d="M22629 30764 L22657 30764" /> 
<path d="M22657 30764 L22700 30779" /> 
<path d="M22700 30779 L22871 30950" /> 
<path d="M22871 30950 L22871 30764" /> 
<g style = "stroke-linecap:round;" > 
<path d="M22871 30764 L22871 30764" /> 
</g></g>
<g style="fill:#C0C0C0; fill-opacity:0.0; 
  stroke:#00A0A0; stroke-linecap:round; stroke-linejoin:round; stroke-opacity:1.0; stroke-opacity:1.0; stroke-width:50" 
   transform="translate(0 0) scale(1 1)">
<path d="M22300 32000 L23200 32000" /> 
<path d="M23200 32000 L23200 31350" /> 
<path d="M22300 30650 L22300 30000" /> 
<path d="M22300 30000 L23200 30000" /> 
<path d="M23200 30000 L23200 30650" /> 
<path d="M22300 31350 L22300 32000" /> 
</g>
<g style="fill:#C0C0C0; fill-opacity:0.0; 
  stroke:#0000C0; stroke-linecap:round; stroke-linejoin:round; stroke-opacity:1.0; stroke-opacity:1.0; stroke-width:0" 
   transform="translate(0 0) scale(1 1)">
<path d="M58538 34480 L58542 34480" /> 
<path d="M58540 34478 L58540 34482" /> 
</g>
<g style="fill:#C0C0C0; fill-opacity:0.0; 
  stroke:#C0C0C0; stroke-linecap:round; stroke-linejoin:round; stroke-opacity:1.0; stroke-opacity:1.0; stroke-width:50" 
   transform="translate(0 0) scale(1 1)">
<path d="M58490 34601 L58390 34459" /> 
<g style = "stroke-linecap:round;" > 
<path d="M58390 34459 L58390 34459" /> 
</g><path d="M58318 34601 L58318 34301" /> 
<path d="M58318 34301 L58433 34301" /> 
<path d="M58433 34301 L58461 34316" /> 
<path d="M58461 34316 L58476 34330" /> 
<path d="M58476 34330 L58490 34359" /> 
<path d="M58490 34359 L58490 34401" /> 
<path d="M58490 34401 L58476 34430" /> 
<path d="M58476 34430 L58461 34444" /> 
<path d="M58461 34444 L58433 34459" /> 
<path d="M58433 34459 L58318 34459" /> 
<g style = "stroke-linecap:round;" > 
<path d="M58318 34459 L58318 34459" /> 
</g><path d="M58590 34301 L58776 34301" /> 
<path d="M58776 34301 L58676 34416" /> 
<path d="M58676 34416 L58718 34416" /> 
<path d="M58718 34416 L58747 34430" /> 
<path d="M58747 34430 L58761 34444" /> 
<path d="M58761 34444 L58776 34473" /> 
<path d="M58776 34473 L58776 34544" /> 
<path d="M58776 34544 L58761 34573" /> 
<path d="M58761 34573 L58747 34587" /> 
<path d="M58747 34587 L58718 34601" /> 
<path d="M58718 34601 L58633 34601" /> 
<path d="M58633 34601 L58604 34587" /> 
<path d="M58604 34587 L58590 34573" /> 
<g style = "stroke-linecap:round;" > 
<path d="M58590 34573 L58590 34573" /> 
</g></g>
<g style="fill:#C0C0C0; fill-opacity:0.0; 
  stroke:#00A0A0; stroke-linecap:round; stroke-linejoin:round; stroke-opacity:1.0; stroke-opacity:1.0; stroke-width:50" 
   transform="translate(0 0) scale(1 1)">
<path d="M57540 34030 L57540 34930" /> 
<path d="M57540 34930 L58190 34930" /> 
<path d="M58890 34030 L59540 34030" /> 
<path d="M59540 34030 L59540 34930" /> 
<path d="M59540 34930 L58890 34930" /> 
<path d="M58190 34030 L57540 34030" /> 
</g>
<g style="fill:#C0C0C0; fill-opacity:0.0; 
  stroke:#0000C0; stroke-linecap:round; stroke-linejoin:round; stroke-opacity:1.0; stroke-opacity:1.0; stroke-width:0" 
   transform="translate(0 0) scale(1 1)">
<path d="M58508 33390 L58512 33390" /> 
<path d="M58510 33388 L58510 33392" /> 
</g>
<g style="fill:#C0C0C0; fill-opacity:0.0; 
  stroke:#C0C0C0; stroke-linecap:round; stroke-linejoin:round; stroke-opacity:1.0; stroke-opacity:1.0; stroke-width:50" 
   transform="translate(0 0) scale(1 1)">
<path d="M58460 33511 L58360 33369" /> 
<g style = "stroke-linecap:round;" > 
<path d="M58360 33369 L58360 33369" /> 
</g><path d="M58288 33511 L58288 33211" /> 
<path d="M58288 33211 L58403 33211" /> 
<path d="M58403 33211 L58431 33226" /> 
<path d="M58431 33226 L58446 33240" /> 
<path d="M58446 33240 L58460 33269" /> 
<path d="M58460 33269 L58460 33311" /> 
<path d="M58460 33311 L58446 33340" /> 
<path d="M58446 33340 L58431 33354" /> 
<path d="M58431 33354 L58403 33369" /> 
<path d="M58403 33369 L58288 33369" /> 
<g style = "stroke-linecap:round;" > 
<path d="M58288 33369 L58288 33369" /> 
</g><path d="M58574 33240 L58588 33226" /> 
<path d="M58588 33226 L58617 33211" /> 
<path d="M58617 33211 L58688 33211" /> 
<path d="M58688 33211 L58717 33226" /> 
<path d="M58717 33226 L58731 33240" /> 
<path d="M58731 33240 L58746 33269" /> 
<path d="M58746 33269 L58746 33297" /> 
<path d="M58746 33297 L58731 33340" /> 
<path d="M58731 33340 L58560 33511" /> 
<path d="M58560 33511 L58746 33511" /> 
<g style = "stroke-linecap:round;" > 
<path d="M58746 33511 L58746 33511" /> 
</g></g>
<g style="fill:#C0C0C0; fill-opacity:0.0; 
  stroke:#00A0A0; stroke-linecap:round; stroke-linejoin:round; stroke-opacity:1.0; stroke-opacity:1.0; stroke-width:50" 
   transform="translate(0 0) scale(1 1)">
<path d="M59510 33840 L59510 32940" /> 
<path d="M59510 32940 L58860 32940" /> 
<path d="M58160 33840 L57510 33840" /> 
<path d="M57510 33840 L57510 32940" /> 
<path d="M57510 32940 L58160 32940" /> 
<path d="M58860 33840 L59510 33840" /> 
</g>
<g style="fill:#C0C0C0; fill-opacity:0.0; 
  stroke:#0000C0; stroke-linecap:round; stroke-linejoin:round; stroke-opacity:1.0; stroke-opacity:1.0; stroke-width:0" 
   transform="translate(0 0) scale(1 1)">
<path d="M30248 32000 L30252 32000" /> 
<path d="M30250 31998 L30250 32002" /> 
</g>
<g style="fill:#C0C0C0; fill-opacity:0.0; 
  stroke:#C0C0C0; stroke-linecap:round; stroke-linejoin:round; stroke-opacity:1.0; stroke-opacity:1.0; stroke-width:50" 
   transform="translate(0 0) scale(1 1)">
<path d="M30200 32121 L30100 31979" /> 
<g style = "stroke-linecap:round;" > 
<path d="M30100 31979 L30100 31979" /> 
</g><path d="M30028 32121 L30028 31821" /> 
<path d="M30028 31821 L30143 31821" /> 
<path d="M30143 31821 L30171 31836" /> 
<path d="M30171 31836 L30186 31850" /> 
<path d="M30186 31850 L30200 31879" /> 
<path d="M30200 31879 L30200 31921" /> 
<path d="M30200 31921 L30186 31950" /> 
<path d="M30186 31950 L30171 31964" /> 
<path d="M30171 31964 L30143 31979" /> 
<path d="M30143 31979 L30028 31979" /> 
<g style = "stroke-linecap:round;" > 
<path d="M30028 31979 L30028 31979" /> 
</g><path d="M30457 31921 L30457 32121" /> 
<g style = "stroke-linecap:round;" > 
<path d="M30457 32121 L30457 32121" /> 
</g><path d="M30386 31807 L30314 32021" /> 
<path d="M30314 32021 L30500 32021" /> 
<g style = "stroke-linecap:round;" > 
<path d="M30500 32021 L30500 32021" /> 
</g></g>
<g style="fill:#C0C0C0; fill-opacity:0.0; 
  stroke:#00A0A0; stroke-linecap:round; stroke-linejoin:round; stroke-opacity:1.0; stroke-opacity:1.0; stroke-width:50" 
   transform="translate(0 0) scale(1 1)">
<path d="M29250 31550 L29250 32450" /> 
<path d="M29250 32450 L29900 32450" /> 
<path d="M30600 31550 L31250 31550" /> 
<path d="M31250 31550 L31250 32450" /> 
<path d="M31250 32450 L30600 32450" /> 
<path d="M29900 31550 L29250 31550" /> 
</g>
<g style="fill:#C0C0C0; fill-opacity:0.0; 
  stroke:#0000C0; stroke-linecap:round; stroke-linejoin:round; stroke-opacity:1.0; stroke-opacity:1.0; stroke-width:0" 
   transform="translate(0 0) scale(1 1)">
<path d="M58458 31390 L58462 31390" /> 
<path d="M58460 31388 L58460 31392" /> 
</g>
<g style="fill:#C0C0C0; fill-opacity:0.0; 
  stroke:#C0C0C0; stroke-linecap:round; stroke-linejoin:round; stroke-opacity:1.0; stroke-opacity:1.0; stroke-width:50" 
   transform="translate(0 0) scale(1 1)">
<path d="M58410 31511 L58310 31369" /> 
<g style = "stroke-linecap:round;" > 
<path d="M58310 31369 L58310 31369" /> 
</g><path d="M58238 31511 L58238 31211" /> 
<path d="M58238 31211 L58353 31211" /> 
<path d="M58353 31211 L58381 31226" /> 
<path d="M58381 31226 L58396 31240" /> 
<path d="M58396 31240 L58410 31269" /> 
<path d="M58410 31269 L58410 31311" /> 
<path d="M58410 31311 L58396 31340" /> 
<path d="M58396 31340 L58381 31354" /> 
<path d="M58381 31354 L58353 31369" /> 
<path d="M58353 31369 L58238 31369" /> 
<g style = "stroke-linecap:round;" > 
<path d="M58238 31369 L58238 31369" /> 
</g><path d="M58696 31511 L58524 31511" /> 
<g style = "stroke-linecap:round;" > 
<path d="M58524 31511 L58524 31511" /> 
</g><path d="M58610 31511 L58610 31211" /> 
<path d="M58610 31211 L58581 31254" /> 
<path d="M58581 31254 L58553 31283" /> 
<path d="M58553 31283 L58524 31297" /> 
<g style = "stroke-linecap:round;" > 
<path d="M58524 31297 L58524 31297" /> 
</g></g>
<g style="fill:#C0C0C0; fill-opacity:0.0; 
  stroke:#00A0A0; stroke-linecap:round; stroke-linejoin:round; stroke-opacity:1.0; stroke-opacity:1.0; stroke-width:50" 
   transform="translate(0 0) scale(1 1)">
<path d="M59460 31840 L59460 30940" /> 
<path d="M59460 30940 L58810 30940" /> 
<path d="M58110 31840 L57460 31840" /> 
<path d="M57460 31840 L57460 30940" /> 
<path d="M57460 30940 L58110 30940" /> 
<path d="M58810 31840 L59460 31840" /> 
</g>
<g style="fill:#808000; fill-opacity:0.0; 
  stroke:#808000; stroke-linecap:round; stroke-linejoin:round; stroke-opacity:1.0; stroke-opacity:1.0; stroke-width:60" 
   transform="translate(0 0) scale(1 1)">
<path d="M52700 31300 L52700 30700" /> 
<path d="M52700 30700 L53300 30700" /> 
<path d="M53300 30700 L53300 31300" /> 
<path d="M52700 31300 L53300 31300" /> 
<ellipse cx="53000" cy="30000" rx="300" ry="300"  /> 
<ellipse cx="54000" cy="31000" rx="300" ry="300"  /> 
<ellipse cx="54000" cy="30000" rx="300" ry="300"  /> 
<ellipse cx="55000" cy="31000" rx="300" ry="300"  /> 
<ellipse cx="55000" cy="30000" rx="300" ry="300"  /> 
<ellipse cx="56000" cy="31000" rx="300" ry="300"  /> 
<ellipse cx="56000" cy="30000" rx="300" ry="300"  /> 
</g>
<g style="fill:#808000; fill-opacity:0.0; 
  stroke:#00A0A0; stroke-linecap:round; stroke-linejoin:round; stroke-opacity:1.0; stroke-opacity:1.0; stroke-width:120" 
   transform="translate(0 0) scale(1 1)">
<path d="M52500 29500 L56500 29500" /> 
<path d="M56500 29500 L56500 31500" /> 
<path d="M56500 31500 L52500 31500" /> 
<path d="M52500 31500 L52500 29500" /> 
</g>
<g style="fill:#808000; fill-opacity:0.0; 
  stroke:#808000; stroke-linecap:round; stroke-linejoin:round; stroke-opacity:1.0; stroke-opacity:1.0; stroke-width:60" 
   transform="translate(0 0) scale(1 1)">
<path d="M50700 22300 L50700 21700" /> 
<path d="M50700 21700 L51300 21700" /> 
<path d="M51300 21700 L51300 22300" /> 
<path d="M50700 22300 L51300 22300" /> 
<ellipse cx="52000" cy="22000" rx="300" ry="300"  /> 
<ellipse cx="53000" cy="22000" rx="300" ry="300"  /> 
<ellipse cx="54000" cy="22000" rx="300" ry="300"  /> 
</g>
<g style="fill:#808000; fill-opacity:0.0; 
  stroke:#00A0A0; stroke-linecap:round; stroke-linejoin:round; stroke-opacity:1.0; stroke-opacity:1.0; stroke-width:100" 
   transform="translate(0 0) scale(1 1)">
<path d="M54500 22500 L50500 22500" /> 
<path d="M54500 21500 L50500 21500" /> 
<path d="M50500 21500 L50500 22500" /> 
<path d="M54500 22500 L54500 21500" /> 
</g>
<g style="fill:#808000; fill-opacity:0.0; 
  stroke:#808000; stroke-linecap:round; stroke-linejoin:round; stroke-opacity:1.0; stroke-opacity:1.0; stroke-width:60" 
   transform="translate(0 0) scale(1 1)">
<path d="M58300 21700 L58300 22300" /> 
<path d="M58300 22300 L57700 22300" /> 
<path d="M57700 22300 L57700 21700" /> 
<path d="M58300 21700 L57700 21700" /> 
<ellipse cx="57000" cy="22000" rx="300" ry="300"  /> 
<ellipse cx="56000" cy="22000" rx="300" ry="300"  /> 
<ellipse cx="55000" cy="22000" rx="300" ry="300"  /> 
</g>
<g style="fill:#808000; fill-opacity:0.0; 
  stroke:#00A0A0; stroke-linecap:round; stroke-linejoin:round; stroke-opacity:1.0; stroke-opacity:1.0; stroke-width:100" 
   transform="translate(0 0) scale(1 1)">
<path d="M54500 21500 L58500 21500" /> 
<path d="M54500 22500 L58500 22500" /> 
<path d="M58500 22500 L58500 21500" /> 
<path d="M54500 21500 L54500 22500" /> 
</g>
<g style="fill:#808000; fill-opacity:0.0; 
  stroke:#808000; stroke-linecap:round; stroke-linejoin:round; stroke-opacity:1.0; stroke-opacity:1.0; stroke-width:60" 
   transform="translate(0 0) scale(1 1)">
<path d="M56300 26700 L56300 27300" /> 
<path d="M56300 27300 L55700 27300" /> 
<path d="M55700 27300 L55700 26700" /> 
<path d="M56300 26700 L55700 26700" /> 
<ellipse cx="55000" cy="27000" rx="300" ry="300"  /> 
<ellipse cx="54000" cy="27000" rx="300" ry="300"  /> 
<ellipse cx="53000" cy="27000" rx="300" ry="300"  /> 
</g>
<g style="fill:#808000; fill-opacity:0.0; 
  stroke:#00A0A0; stroke-linecap:round; stroke-linejoin:round; stroke-opacity:1.0; stroke-opacity:1.0; stroke-width:100" 
   transform="translate(0 0) scale(1 1)">
<path d="M52500 26500 L56500 26500" /> 
<path d="M52500 27500 L56500 27500" /> 
<path d="M56500 27500 L56500 26500" /> 
<path d="M52500 26500 L52500 27500" /> 
</g>
<g style="fill:#808000; fill-opacity:0.0; 
  stroke:#808000; stroke-linecap:round; stroke-linejoin:round; stroke-opacity:1.0; stroke-opacity:1.0; stroke-width:60" 
   transform="translate(0 0) scale(1 1)">
<path d="M52700 32800 L52700 32200" /> 
<path d="M52700 32200 L53300 32200" /> 
<path d="M53300 32200 L53300 32800" /> 
<path d="M52700 32800 L53300 32800" /> 
<ellipse cx="54000" cy="32500" rx="300" ry="300"  /> 
<ellipse cx="55000" cy="32500" rx="300" ry="300"  /> 
</g>
<g style="fill:#808000; fill-opacity:0.0; 
  stroke:#00A0A0; stroke-linecap:round; stroke-linejoin:round; stroke-opacity:1.0; stroke-opacity:1.0; stroke-width:60" 
   transform="translate(0 0) scale(1 1)">
<path d="M52500 33000 L52500 32000" /> 
<path d="M52500 32000 L55500 32000" /> 
<path d="M55500 32000 L55500 33000" /> 
<path d="M55500 33000 L52500 33000" /> 
<path d="M53500 32000 L53500 33000" /> 
</g>
<g style="fill:#808000; fill-opacity:0.0; 
  stroke:#0000C0; stroke-linecap:round; stroke-linejoin:round; stroke-opacity:1.0; stroke-opacity:1.0; stroke-width:0" 
   transform="translate(0 0) scale(1 1)">
<path d="M58438 36370 L58442 36370" /> 
<path d="M58440 36368 L58440 36372" /> 
</g>
<g style="fill:#C0C0C0; fill-opacity:0.0; 
  stroke:#C0C0C0; stroke-linecap:round; stroke-linejoin:round; stroke-opacity:1.0; stroke-opacity:1.0; stroke-width:35" 
   transform="translate(0 0) scale(1 1)">
<path d="M58218 36491 L58218 36191" /> 
<path d="M58218 36191 L58290 36191" /> 
<path d="M58290 36191 L58333 36206" /> 
<path d="M58333 36206 L58361 36234" /> 
<path d="M58361 36234 L58376 36263" /> 
<path d="M58376 36263 L58390 36320" /> 
<path d="M58390 36320 L58390 36363" /> 
<path d="M58390 36363 L58376 36420" /> 
<path d="M58376 36420 L58361 36449" /> 
<path d="M58361 36449 L58333 36477" /> 
<path d="M58333 36477 L58290 36491" /> 
<path d="M58290 36491 L58218 36491" /> 
<path d="M58676 36491 L58504 36491" /> 
<g style = "stroke-linecap:round;" > 
<path d="M58504 36491 L58504 36491" /> 
</g><path d="M58590 36491 L58590 36191" /> 
<path d="M58590 36191 L58561 36234" /> 
<path d="M58561 36234 L58533 36263" /> 
<path d="M58533 36263 L58504 36277" /> 
<g style = "stroke-linecap:round;" > 
<path d="M58504 36277 L58504 36277" /> 
</g></g>
<g style="fill:#C0C0C0; fill-opacity:0.0; 
  stroke:#0000C0; stroke-linecap:round; stroke-linejoin:round; stroke-opacity:1.0; stroke-opacity:1.0; stroke-width:0" 
   transform="translate(0 0) scale(1 1)">
<path d="M58538 35170 L58542 35170" /> 
<path d="M58540 35168 L58540 35172" /> 
</g>
<g style="fill:#C0C0C0; fill-opacity:0.0; 
  stroke:#C0C0C0; stroke-linecap:round; stroke-linejoin:round; stroke-opacity:1.0; stroke-opacity:1.0; stroke-width:35" 
   transform="translate(0 0) scale(1 1)">
<path d="M58347 35291 L58204 35291" /> 
<path d="M58204 35291 L58204 34991" /> 
<g style = "stroke-linecap:round;" > 
<path d="M58204 34991 L58204 34991" /> 
</g><path d="M58447 35134 L58547 35134" /> 
<g style = "stroke-linecap:round;" > 
<path d="M58547 35134 L58547 35134" /> 
</g><path d="M58590 35291 L58447 35291" /> 
<path d="M58447 35291 L58447 34991" /> 
<path d="M58447 34991 L58590 34991" /> 
<g style = "stroke-linecap:round;" > 
<path d="M58590 34991 L58590 34991" /> 
</g><path d="M58718 35291 L58718 34991" /> 
<path d="M58718 34991 L58790 34991" /> 
<path d="M58790 34991 L58833 35006" /> 
<path d="M58833 35006 L58861 35034" /> 
<path d="M58861 35034 L58876 35063" /> 
<path d="M58876 35063 L58890 35120" /> 
<path d="M58890 35120 L58890 35163" /> 
<path d="M58890 35163 L58876 35220" /> 
<path d="M58876 35220 L58861 35249" /> 
<path d="M58861 35249 L58833 35277" /> 
<path d="M58833 35277 L58790 35291" /> 
<path d="M58790 35291 L58718 35291" /> 
</g>
<g style="fill:#C0C0C0; fill-opacity:0.0; 
  stroke:#00A0A0; stroke-linecap:round; stroke-linejoin:round; stroke-opacity:1.0; stroke-opacity:1.0; stroke-width:26" 
   transform="translate(0 0) scale(1 1)">
<path d="M58579 35731 L58501 35731" /> 
<path d="M58501 35731 L58501 35809" /> 
<path d="M58579 35809 L58501 35809" /> 
<path d="M58579 35731 L58579 35809" /> 
<path d="M58363 35495 L58226 35495" /> 
<path d="M58226 35495 L58226 35593" /> 
<path d="M58363 35593 L58226 35593" /> 
<path d="M58363 35495 L58363 35593" /> 
<path d="M58226 35495 L58186 35495" /> 
<path d="M58186 35495 L58186 35966" /> 
<path d="M58226 35966 L58186 35966" /> 
<path d="M58226 35495 L58226 35966" /> 
<path d="M58226 35986 L58186 35986" /> 
<path d="M58186 35986 L58186 36045" /> 
<path d="M58226 36045 L58186 36045" /> 
<path d="M58226 35986 L58226 36045" /> 
<path d="M58894 35495 L58854 35495" /> 
<path d="M58854 35495 L58854 35966" /> 
<path d="M58894 35966 L58854 35966" /> 
<path d="M58894 35495 L58894 35966" /> 
<path d="M58894 35986 L58854 35986" /> 
<path d="M58854 35986 L58854 36045" /> 
<path d="M58894 36045 L58854 36045" /> 
<path d="M58894 35986 L58894 36045" /> 
<path d="M58363 35495 L58304 35495" /> 
<path d="M58304 35495 L58304 35593" /> 
<path d="M58363 35593 L58304 35593" /> 
<path d="M58363 35495 L58363 35593" /> 
</g>
<g style="fill:#C0C0C0; fill-opacity:0.0; 
  stroke:#00A0A0; stroke-linecap:round; stroke-linejoin:round; stroke-opacity:1.0; stroke-opacity:1.0; stroke-width:40" 
   transform="translate(0 0) scale(1 1)">
<path d="M57930 35475 L59150 35475" /> 
<path d="M59150 35475 L59150 36065" /> 
<path d="M59150 36065 L57930 36065" /> 
<path d="M57930 36065 L57930 35475" /> 
</g>
<g style="fill:#00A0A0; fill-opacity:0.0; 
  stroke:#00A0A0; stroke-linecap:round; stroke-linejoin:round; stroke-opacity:1.0; stroke-opacity:1.0; stroke-width:40" 
   transform="translate(0 0) scale(1 1)">
<path d="M58755 35574 A2.9e+02 2.9e+02 0 0 0 58324 35575 " /> 
<path d="M58755 35966 A2.9e+02 2.9e+02 0 0 0 58756 35575 " /> 
<path d="M58325 35966 A2.9e+02 2.9e+02 0 0 0 58756 35965 " /> 
<path d="M58325 35574 A2.9e+02 2.9e+02 0 0 0 58324 35965 " /> 
</g>
<g style="fill:#00A0A0; fill-opacity:0.0; 
  stroke:#0000C0; stroke-linecap:round; stroke-linejoin:round; stroke-opacity:1.0; stroke-opacity:1.0; stroke-width:0" 
   transform="translate(0 0) scale(1 1)">
<path d="M30348 32400 L30352 32400" /> 
<path d="M30350 32398 L30350 32402" /> 
</g>
<g style="fill:#C0C0C0; fill-opacity:0.0; 
  stroke:#C0C0C0; stroke-linecap:round; stroke-linejoin:round; stroke-opacity:1.0; stroke-opacity:1.0; stroke-width:35" 
   transform="translate(0 0) scale(1 1)">
<path d="M30128 32521 L30128 32221" /> 
<path d="M30128 32221 L30200 32221" /> 
<path d="M30200 32221 L30243 32236" /> 
<path d="M30243 32236 L30271 32264" /> 
<path d="M30271 32264 L30286 32293" /> 
<path d="M30286 32293 L30300 32350" /> 
<path d="M30300 32350 L30300 32393" /> 
<path d="M30300 32393 L30286 32450" /> 
<path d="M30286 32450 L30271 32479" /> 
<path d="M30271 32479 L30243 32507" /> 
<path d="M30243 32507 L30200 32521" /> 
<path d="M30200 32521 L30128 32521" /> 
<path d="M30414 32250 L30428 32236" /> 
<path d="M30428 32236 L30457 32221" /> 
<path d="M30457 32221 L30528 32221" /> 
<path d="M30528 32221 L30557 32236" /> 
<path d="M30557 32236 L30571 32250" /> 
<path d="M30571 32250 L30586 32279" /> 
<path d="M30586 32279 L30586 32307" /> 
<path d="M30586 32307 L30571 32350" /> 
<path d="M30571 32350 L30400 32521" /> 
<path d="M30400 32521 L30586 32521" /> 
<g style = "stroke-linecap:round;" > 
<path d="M30586 32521 L30586 32521" /> 
</g></g>
<g style="fill:#C0C0C0; fill-opacity:0.0; 
  stroke:#0000C0; stroke-linecap:round; stroke-linejoin:round; stroke-opacity:1.0; stroke-opacity:1.0; stroke-width:0" 
   transform="translate(0 0) scale(1 1)">
<path d="M30248 33600 L30252 33600" /> 
<path d="M30250 33598 L30250 33602" /> 
</g>
<g style="fill:#C0C0C0; fill-opacity:0.0; 
  stroke:#C0C0C0; stroke-linecap:round; stroke-linejoin:round; stroke-opacity:1.0; stroke-opacity:1.0; stroke-width:35" 
   transform="translate(0 0) scale(1 1)">
<path d="M30057 33721 L29914 33721" /> 
<path d="M29914 33721 L29914 33421" /> 
<g style = "stroke-linecap:round;" > 
<path d="M29914 33421 L29914 33421" /> 
</g><path d="M30157 33564 L30257 33564" /> 
<g style = "stroke-linecap:round;" > 
<path d="M30257 33564 L30257 33564" /> 
</g><path d="M30300 33721 L30157 33721" /> 
<path d="M30157 33721 L30157 33421" /> 
<path d="M30157 33421 L30300 33421" /> 
<g style = "stroke-linecap:round;" > 
<path d="M30300 33421 L30300 33421" /> 
</g><path d="M30428 33721 L30428 33421" /> 
<path d="M30428 33421 L30500 33421" /> 
<path d="M30500 33421 L30543 33436" /> 
<path d="M30543 33436 L30571 33464" /> 
<path d="M30571 33464 L30586 33493" /> 
<path d="M30586 33493 L30600 33550" /> 
<path d="M30600 33550 L30600 33593" /> 
<path d="M30600 33593 L30586 33650" /> 
<path d="M30586 33650 L30571 33679" /> 
<path d="M30571 33679 L30543 33707" /> 
<path d="M30543 33707 L30500 33721" /> 
<path d="M30500 33721 L30428 33721" /> 
</g>
<g style="fill:#C0C0C0; fill-opacity:0.0; 
  stroke:#00A0A0; stroke-linecap:round; stroke-linejoin:round; stroke-opacity:1.0; stroke-opacity:1.0; stroke-width:26" 
   transform="translate(0 0) scale(1 1)">
<path d="M30211 33039 L30289 33039" /> 
<path d="M30289 33039 L30289 32961" /> 
<path d="M30211 32961 L30289 32961" /> 
<path d="M30211 33039 L30211 32961" /> 
<path d="M30427 33275 L30564 33275" /> 
<path d="M30564 33275 L30564 33177" /> 
<path d="M30427 33177 L30564 33177" /> 
<path d="M30427 33275 L30427 33177" /> 
<path d="M30564 33275 L30604 33275" /> 
<path d="M30604 33275 L30604 32804" /> 
<path d="M30564 32804 L30604 32804" /> 
<path d="M30564 33275 L30564 32804" /> 
<path d="M30564 32784 L30604 32784" /> 
<path d="M30604 32784 L30604 32725" /> 
<path d="M30564 32725 L30604 32725" /> 
<path d="M30564 32784 L30564 32725" /> 
<path d="M29896 33275 L29936 33275" /> 
<path d="M29936 33275 L29936 32804" /> 
<path d="M29896 32804 L29936 32804" /> 
<path d="M29896 33275 L29896 32804" /> 
<path d="M29896 32784 L29936 32784" /> 
<path d="M29936 32784 L29936 32725" /> 
<path d="M29896 32725 L29936 32725" /> 
<path d="M29896 32784 L29896 32725" /> 
<path d="M30427 33275 L30486 33275" /> 
<path d="M30486 33275 L30486 33177" /> 
<path d="M30427 33177 L30486 33177" /> 
<path d="M30427 33275 L30427 33177" /> 
</g>
<g style="fill:#C0C0C0; fill-opacity:0.0; 
  stroke:#00A0A0; stroke-linecap:round; stroke-linejoin:round; stroke-opacity:1.0; stroke-opacity:1.0; stroke-width:40" 
   transform="translate(0 0) scale(1 1)">
<path d="M30860 33295 L29640 33295" /> 
<path d="M29640 33295 L29640 32705" /> 
<path d="M29640 32705 L30860 32705" /> 
<path d="M30860 32705 L30860 33295" /> 
</g>
<g style="fill:#00A0A0; fill-opacity:0.0; 
  stroke:#00A0A0; stroke-linecap:round; stroke-linejoin:round; stroke-opacity:1.0; stroke-opacity:1.0; stroke-width:40" 
   transform="translate(0 0) scale(1 1)">
<path d="M30035 33196 A2.9e+02 2.9e+02 0 0 0 30466 33195 " /> 
<path d="M30035 32804 A2.9e+02 2.9e+02 0 0 0 30034 33195 " /> 
<path d="M30465 32804 A2.9e+02 2.9e+02 0 0 0 30034 32805 " /> 
<path d="M30465 33196 A2.9e+02 2.9e+02 0 0 0 30466 32805 " /> 
</g>
<g style="fill:#00A0A0; fill-opacity:0.0; 
  stroke:#0000C0; stroke-linecap:round; stroke-linejoin:round; stroke-opacity:1.0; stroke-opacity:1.0; stroke-width:0" 
   transform="translate(0 0) scale(1 1)">
<path d="M46098 31100 L46102 31100" /> 
<path d="M46100 31098 L46100 31102" /> 
</g>
<g style="fill:#C0C0C0; fill-opacity:0.0; 
  stroke:#C0C0C0; stroke-linecap:round; stroke-linejoin:round; stroke-opacity:1.0; stroke-opacity:1.0; stroke-width:113" 
   transform="translate(0 0) scale(1 1)">
<path d="M45743 31443 L46229 31443" /> 
<path d="M46229 31443 L46286 31421" /> 
<path d="M46286 31421 L46314 31400" /> 
<path d="M46314 31400 L46343 31357" /> 
<path d="M46343 31357 L46343 31271" /> 
<path d="M46343 31271 L46314 31229" /> 
<path d="M46314 31229 L46286 31207" /> 
<path d="M46286 31207 L46229 31186" /> 
<path d="M46229 31186 L45743 31186" /> 
<g style = "stroke-linecap:round;" > 
<path d="M45743 31186 L45743 31186" /> 
</g><path d="M45743 30758 L45743 30972" /> 
<path d="M45743 30972 L46029 30993" /> 
<path d="M46029 30993 L46000 30972" /> 
<path d="M46000 30972 L45971 30929" /> 
<path d="M45971 30929 L45971 30822" /> 
<path d="M45971 30822 L46000 30779" /> 
<path d="M46000 30779 L46029 30758" /> 
<path d="M46029 30758 L46086 30736" /> 
<path d="M46086 30736 L46229 30736" /> 
<path d="M46229 30736 L46286 30758" /> 
<path d="M46286 30758 L46314 30779" /> 
<path d="M46314 30779 L46343 30822" /> 
<path d="M46343 30822 L46343 30929" /> 
<path d="M46343 30929 L46314 30972" /> 
<path d="M46314 30972 L46286 30993" /> 
<g style = "stroke-linecap:round;" > 
<path d="M46286 30993 L46286 30993" /> 
</g></g>
<g style="fill:#C0C0C0; fill-opacity:0.0; 
  stroke:#0000C0; stroke-linecap:round; stroke-linejoin:round; stroke-opacity:1.0; stroke-opacity:1.0; stroke-width:0" 
   transform="translate(0 0) scale(1 1)">
<path d="M41098 31300 L41102 31300" /> 
<path d="M41100 31298 L41100 31302" /> 
</g>
<g style="fill:#C0C0C0; fill-opacity:0.0; 
  stroke:#C0C0C0; stroke-linecap:round; stroke-linejoin:round; stroke-opacity:1.0; stroke-opacity:1.0; stroke-width:120" 
   transform="translate(0 0) scale(1 1)">
<path d="M41343 32727 L40743 32727" /> 
<g style = "stroke-linecap:round;" > 
<path d="M40743 32727 L40743 32727" /> 
</g><path d="M41000 32355 L40971 32413" /> 
<path d="M40971 32413 L40943 32441" /> 
<path d="M40943 32441 L40886 32470" /> 
<path d="M40886 32470 L40857 32470" /> 
<path d="M40857 32470 L40800 32441" /> 
<path d="M40800 32441 L40771 32413" /> 
<path d="M40771 32413 L40743 32355" /> 
<path d="M40743 32355 L40743 32241" /> 
<path d="M40743 32241 L40771 32184" /> 
<path d="M40771 32184 L40800 32155" /> 
<path d="M40800 32155 L40857 32127" /> 
<path d="M40857 32127 L40886 32127" /> 
<path d="M40886 32127 L40943 32155" /> 
<path d="M40943 32155 L40971 32184" /> 
<path d="M40971 32184 L41000 32241" /> 
<path d="M41000 32241 L41000 32355" /> 
<path d="M41000 32355 L41029 32413" /> 
<path d="M41029 32413 L41057 32441" /> 
<path d="M41057 32441 L41114 32470" /> 
<path d="M41114 32470 L41229 32470" /> 
<path d="M41229 32470 L41286 32441" /> 
<path d="M41286 32441 L41314 32413" /> 
<path d="M41314 32413 L41343 32355" /> 
<path d="M41343 32355 L41343 32241" /> 
<path d="M41343 32241 L41314 32184" /> 
<path d="M41314 32184 L41286 32155" /> 
<path d="M41286 32155 L41229 32127" /> 
<path d="M41229 32127 L41114 32127" /> 
<path d="M41114 32127 L41057 32155" /> 
<path d="M41057 32155 L41029 32184" /> 
<path d="M41029 32184 L41000 32241" /> 
<g style = "stroke-linecap:round;" > 
<path d="M41000 32241 L41000 32241" /> 
</g><path d="M40743 31756 L40743 31699" /> 
<path d="M40743 31699 L40771 31642" /> 
<path d="M40771 31642 L40800 31613" /> 
<path d="M40800 31613 L40857 31584" /> 
<path d="M40857 31584 L40971 31556" /> 
<path d="M40971 31556 L41114 31556" /> 
<path d="M41114 31556 L41229 31584" /> 
<path d="M41229 31584 L41286 31613" /> 
<path d="M41286 31613 L41314 31642" /> 
<path d="M41314 31642 L41343 31699" /> 
<path d="M41343 31699 L41343 31756" /> 
<path d="M41343 31756 L41314 31813" /> 
<path d="M41314 31813 L41286 31842" /> 
<path d="M41286 31842 L41229 31870" /> 
<path d="M41229 31870 L41114 31899" /> 
<path d="M41114 31899 L40971 31899" /> 
<path d="M40971 31899 L40857 31870" /> 
<path d="M40857 31870 L40800 31842" /> 
<path d="M40800 31842 L40771 31813" /> 
<path d="M40771 31813 L40743 31756" /> 
<path d="M41343 30985 L41343 31328" /> 
<g style = "stroke-linecap:round;" > 
<path d="M41343 31328 L41343 31328" /> 
</g><path d="M41343 31156 L40743 31156" /> 
<path d="M40743 31156 L40829 31213" /> 
<path d="M40829 31213 L40886 31271" /> 
<path d="M40886 31271 L40914 31328" /> 
<g style = "stroke-linecap:round;" > 
<path d="M40914 31328 L40914 31328" /> 
</g><path d="M41000 30642 L40971 30700" /> 
<path d="M40971 30700 L40943 30728" /> 
<path d="M40943 30728 L40886 30757" /> 
<path d="M40886 30757 L40857 30757" /> 
<path d="M40857 30757 L40800 30728" /> 
<path d="M40800 30728 L40771 30700" /> 
<path d="M40771 30700 L40743 30642" /> 
<path d="M40743 30642 L40743 30528" /> 
<path d="M40743 30528 L40771 30471" /> 
<path d="M40771 30471 L40800 30442" /> 
<path d="M40800 30442 L40857 30414" /> 
<path d="M40857 30414 L40886 30414" /> 
<path d="M40886 30414 L40943 30442" /> 
<path d="M40943 30442 L40971 30471" /> 
<path d="M40971 30471 L41000 30528" /> 
<path d="M41000 30528 L41000 30642" /> 
<path d="M41000 30642 L41029 30700" /> 
<path d="M41029 30700 L41057 30728" /> 
<path d="M41057 30728 L41114 30757" /> 
<path d="M41114 30757 L41229 30757" /> 
<path d="M41229 30757 L41286 30728" /> 
<path d="M41286 30728 L41314 30700" /> 
<path d="M41314 30700 L41343 30642" /> 
<path d="M41343 30642 L41343 30528" /> 
<path d="M41343 30528 L41314 30471" /> 
<path d="M41314 30471 L41286 30442" /> 
<path d="M41286 30442 L41229 30414" /> 
<path d="M41229 30414 L41114 30414" /> 
<path d="M41114 30414 L41057 30442" /> 
<path d="M41057 30442 L41029 30471" /> 
<path d="M41029 30471 L41000 30528" /> 
<g style = "stroke-linecap:round;" > 
<path d="M41000 30528 L41000 30528" /> 
</g><path d="M40743 29900 L40743 30014" /> 
<path d="M40743 30014 L40771 30071" /> 
<path d="M40771 30071 L40800 30100" /> 
<path d="M40800 30100 L40886 30157" /> 
<path d="M40886 30157 L41000 30186" /> 
<path d="M41000 30186 L41229 30186" /> 
<path d="M41229 30186 L41286 30157" /> 
<path d="M41286 30157 L41314 30129" /> 
<path d="M41314 30129 L41343 30071" /> 
<path d="M41343 30071 L41343 29957" /> 
<path d="M41343 29957 L41314 29900" /> 
<path d="M41314 29900 L41286 29871" /> 
<path d="M41286 29871 L41229 29843" /> 
<path d="M41229 29843 L41086 29843" /> 
<path d="M41086 29843 L41029 29871" /> 
<path d="M41029 29871 L41000 29900" /> 
<path d="M41000 29900 L40971 29957" /> 
<path d="M40971 29957 L40971 30071" /> 
<path d="M40971 30071 L41000 30129" /> 
<path d="M41000 30129 L41029 30157" /> 
<path d="M41029 30157 L41086 30186" /> 
<g style = "stroke-linecap:round;" > 
<path d="M41086 30186 L41086 30186" /> 
</g></g>
<g style="fill:#00A0A0; fill-opacity:0.0; 
  stroke:#00A0A0; stroke-linecap:round; stroke-linejoin:round; stroke-opacity:1.0; stroke-opacity:1.0; stroke-width:120" 
   transform="translate(0 0) scale(1 1)">
<ellipse cx="44000" cy="27300" rx="300" ry="300"  /> 
<path d="M48000 27000 L48000 35000" /> 
<path d="M48000 35000 L40000 35000" /> 
<path d="M40000 35000 L40000 27750" /> 
<path d="M40000 27750 L40750 27000" /> 
<path d="M40750 27000 L48000 27000" /> 
<path d="M38500 25000 L38000 25500" /> 
<path d="M38000 25500 L38000 37000" /> 
<path d="M38000 37000 L50000 37000" /> 
<path d="M50000 37000 L50000 25000" /> 
<path d="M50000 25000 L38500 25000" /> 
</g>
<g style="fill:#808000; fill-opacity:0.0; 
  stroke:#808000; stroke-linecap:round; stroke-linejoin:round; stroke-opacity:1.0; stroke-opacity:1.0; stroke-width:60" 
   transform="translate(0 0) scale(1 1)">
<path d="M34700 39300 L34700 38700" /> 
<path d="M34700 38700 L35300 38700" /> 
<path d="M35300 38700 L35300 39300" /> 
<path d="M34700 39300 L35300 39300" /> 
<ellipse cx="36000" cy="39000" rx="300" ry="300"  /> 
<ellipse cx="37000" cy="39000" rx="300" ry="300"  /> 
<ellipse cx="38000" cy="39000" rx="300" ry="300"  /> 
</g>
<g style="fill:#808000; fill-opacity:0.0; 
  stroke:#00A0A0; stroke-linecap:round; stroke-linejoin:round; stroke-opacity:1.0; stroke-opacity:1.0; stroke-width:100" 
   transform="translate(0 0) scale(1 1)">
<path d="M38500 39500 L34500 39500" /> 
<path d="M38500 38500 L34500 38500" /> 
<path d="M34500 38500 L34500 39500" /> 
<path d="M38500 39500 L38500 38500" /> 
</g>
<g style="fill:#808000; fill-opacity:0.0; 
  stroke:#808000; stroke-linecap:round; stroke-linejoin:round; stroke-opacity:1.0; stroke-opacity:1.0; stroke-width:60" 
   transform="translate(0 0) scale(1 1)">
<path d="M30700 39300 L30700 38700" /> 
<path d="M30700 38700 L31300 38700" /> 
<path d="M31300 38700 L31300 39300" /> 
<path d="M30700 39300 L31300 39300" /> 
<ellipse cx="32000" cy="39000" rx="300" ry="300"  /> 
<ellipse cx="33000" cy="39000" rx="300" ry="300"  /> 
<ellipse cx="34000" cy="39000" rx="300" ry="300"  /> 
</g>
<g style="fill:#808000; fill-opacity:0.0; 
  stroke:#00A0A0; stroke-linecap:round; stroke-linejoin:round; stroke-opacity:1.0; stroke-opacity:1.0; stroke-width:100" 
   transform="translate(0 0) scale(1 1)">
<path d="M34500 39500 L30500 39500" /> 
<path d="M34500 38500 L30500 38500" /> 
<path d="M30500 38500 L30500 39500" /> 
<path d="M34500 39500 L34500 38500" /> 
</g>
<g style="fill:#808000; fill-opacity:0.0; 
  stroke:#808000; stroke-linecap:round; stroke-linejoin:round; stroke-opacity:1.0; stroke-opacity:1.0; stroke-width:60" 
   transform="translate(0 0) scale(1 1)">
<path d="M26700 39300 L26700 38700" /> 
<path d="M26700 38700 L27300 38700" /> 
<path d="M27300 38700 L27300 39300" /> 
<path d="M26700 39300 L27300 39300" /> 
<ellipse cx="28000" cy="39000" rx="300" ry="300"  /> 
<ellipse cx="29000" cy="39000" rx="300" ry="300"  /> 
<ellipse cx="30000" cy="39000" rx="300" ry="300"  /> 
</g>
<g style="fill:#808000; fill-opacity:0.0; 
  stroke:#00A0A0; stroke-linecap:round; stroke-linejoin:round; stroke-opacity:1.0; stroke-opacity:1.0; stroke-width:100" 
   transform="translate(0 0) scale(1 1)">
<path d="M30500 39500 L26500 39500" /> 
<path d="M30500 38500 L26500 38500" /> 
<path d="M26500 38500 L26500 39500" /> 
<path d="M30500 39500 L30500 38500" /> 
</g>
<g style="fill:#808000; fill-opacity:0.0; 
  stroke:#808000; stroke-linecap:round; stroke-linejoin:round; stroke-opacity:1.0; stroke-opacity:1.0; stroke-width:60" 
   transform="translate(0 0) scale(1 1)">
<path d="M22700 39300 L22700 38700" /> 
<path d="M22700 38700 L23300 38700" /> 
<path d="M23300 38700 L23300 39300" /> 
<path d="M22700 39300 L23300 39300" /> 
<ellipse cx="24000" cy="39000" rx="300" ry="300"  /> 
<ellipse cx="25000" cy="39000" rx="300" ry="300"  /> 
<ellipse cx="26000" cy="39000" rx="300" ry="300"  /> 
</g>
<g style="fill:#808000; fill-opacity:0.0; 
  stroke:#00A0A0; stroke-linecap:round; stroke-linejoin:round; stroke-opacity:1.0; stroke-opacity:1.0; stroke-width:100" 
   transform="translate(0 0) scale(1 1)">
<path d="M26500 39500 L22500 39500" /> 
<path d="M26500 38500 L22500 38500" /> 
<path d="M22500 38500 L22500 39500" /> 
<path d="M26500 39500 L26500 38500" /> 
</g>
<g style="fill:#808000; fill-opacity:0.0; 
  stroke:#808000; stroke-linecap:round; stroke-linejoin:round; stroke-opacity:1.0; stroke-opacity:1.0; stroke-width:60" 
   transform="translate(0 0) scale(1 1)">
<path d="M46300 21700 L46300 22300" /> 
<path d="M46300 22300 L45700 22300" /> 
<path d="M45700 22300 L45700 21700" /> 
<path d="M46300 21700 L45700 21700" /> 
<ellipse cx="45000" cy="22000" rx="300" ry="300"  /> 
<ellipse cx="44000" cy="22000" rx="300" ry="300"  /> 
<ellipse cx="43000" cy="22000" rx="300" ry="300"  /> 
</g>
<g style="fill:#808000; fill-opacity:0.0; 
  stroke:#00A0A0; stroke-linecap:round; stroke-linejoin:round; stroke-opacity:1.0; stroke-opacity:1.0; stroke-width:100" 
   transform="translate(0 0) scale(1 1)">
<path d="M42500 21500 L46500 21500" /> 
<path d="M42500 22500 L46500 22500" /> 
<path d="M46500 22500 L46500 21500" /> 
<path d="M42500 21500 L42500 22500" /> 
</g>
<g style="fill:#808000; fill-opacity:0.0; 
  stroke:#808000; stroke-linecap:round; stroke-linejoin:round; stroke-opacity:1.0; stroke-opacity:1.0; stroke-width:60" 
   transform="translate(0 0) scale(1 1)">
<path d="M26300 21700 L26300 22300" /> 
<path d="M26300 22300 L25700 22300" /> 
<path d="M25700 22300 L25700 21700" /> 
<path d="M26300 21700 L25700 21700" /> 
<ellipse cx="25000" cy="22000" rx="300" ry="300"  /> 
<ellipse cx="24000" cy="22000" rx="300" ry="300"  /> 
<ellipse cx="23000" cy="22000" rx="300" ry="300"  /> 
</g>
<g style="fill:#808000; fill-opacity:0.0; 
  stroke:#00A0A0; stroke-linecap:round; stroke-linejoin:round; stroke-opacity:1.0; stroke-opacity:1.0; stroke-width:100" 
   transform="translate(0 0) scale(1 1)">
<path d="M22500 21500 L26500 21500" /> 
<path d="M22500 22500 L26500 22500" /> 
<path d="M26500 22500 L26500 21500" /> 
<path d="M22500 21500 L22500 22500" /> 
</g>
<g style="fill:#808000; fill-opacity:0.0; 
  stroke:#808000; stroke-linecap:round; stroke-linejoin:round; stroke-opacity:1.0; stroke-opacity:1.0; stroke-width:60" 
   transform="translate(0 0) scale(1 1)">
<path d="M30300 21700 L30300 22300" /> 
<path d="M30300 22300 L29700 22300" /> 
<path d="M29700 22300 L29700 21700" /> 
<path d="M30300 21700 L29700 21700" /> 
<ellipse cx="29000" cy="22000" rx="300" ry="300"  /> 
<ellipse cx="28000" cy="22000" rx="300" ry="300"  /> 
<ellipse cx="27000" cy="22000" rx="300" ry="300"  /> 
</g>
<g style="fill:#808000; fill-opacity:0.0; 
  stroke:#00A0A0; stroke-linecap:round; stroke-linejoin:round; stroke-opacity:1.0; stroke-opacity:1.0; stroke-width:100" 
   transform="translate(0 0) scale(1 1)">
<path d="M26500 21500 L30500 21500" /> 
<path d="M26500 22500 L30500 22500" /> 
<path d="M30500 22500 L30500 21500" /> 
<path d="M26500 21500 L26500 22500" /> 
</g>
<g style="fill:#808000; fill-opacity:0.0; 
  stroke:#808000; stroke-linecap:round; stroke-linejoin:round; stroke-opacity:1.0; stroke-opacity:1.0; stroke-width:60" 
   transform="translate(0 0) scale(1 1)">
<path d="M34300 21700 L34300 22300" /> 
<path d="M34300 22300 L33700 22300" /> 
<path d="M33700 22300 L33700 21700" /> 
<path d="M34300 21700 L33700 21700" /> 
<ellipse cx="33000" cy="22000" rx="300" ry="300"  /> 
<ellipse cx="32000" cy="22000" rx="300" ry="300"  /> 
<ellipse cx="31000" cy="22000" rx="300" ry="300"  /> 
</g>
<g style="fill:#808000; fill-opacity:0.0; 
  stroke:#00A0A0; stroke-linecap:round; stroke-linejoin:round; stroke-opacity:1.0; stroke-opacity:1.0; stroke-width:100" 
   transform="translate(0 0) scale(1 1)">
<path d="M30500 21500 L34500 21500" /> 
<path d="M30500 22500 L34500 22500" /> 
<path d="M34500 22500 L34500 21500" /> 
<path d="M30500 21500 L30500 22500" /> 
</g>
<g style="fill:#808000; fill-opacity:0.0; 
  stroke:#808000; stroke-linecap:round; stroke-linejoin:round; stroke-opacity:1.0; stroke-opacity:1.0; stroke-width:60" 
   transform="translate(0 0) scale(1 1)">
<path d="M38300 21700 L38300 22300" /> 
<path d="M38300 22300 L37700 22300" /> 
<path d="M37700 22300 L37700 21700" /> 
<path d="M38300 21700 L37700 21700" /> 
<ellipse cx="37000" cy="22000" rx="300" ry="300"  /> 
<ellipse cx="36000" cy="22000" rx="300" ry="300"  /> 
<ellipse cx="35000" cy="22000" rx="300" ry="300"  /> 
</g>
<g style="fill:#808000; fill-opacity:0.0; 
  stroke:#00A0A0; stroke-linecap:round; stroke-linejoin:round; stroke-opacity:1.0; stroke-opacity:1.0; stroke-width:100" 
   transform="translate(0 0) scale(1 1)">
<path d="M34500 21500 L38500 21500" /> 
<path d="M34500 22500 L38500 22500" /> 
<path d="M38500 22500 L38500 21500" /> 
<path d="M34500 21500 L34500 22500" /> 
</g>
<g style="fill:#808000; fill-opacity:0.0; 
  stroke:#808000; stroke-linecap:round; stroke-linejoin:round; stroke-opacity:1.0; stroke-opacity:1.0; stroke-width:60" 
   transform="translate(0 0) scale(1 1)">
<path d="M42300 21700 L42300 22300" /> 
<path d="M42300 22300 L41700 22300" /> 
<path d="M41700 22300 L41700 21700" /> 
<path d="M42300 21700 L41700 21700" /> 
<ellipse cx="41000" cy="22000" rx="300" ry="300"  /> 
<ellipse cx="40000" cy="22000" rx="300" ry="300"  /> 
<ellipse cx="39000" cy="22000" rx="300" ry="300"  /> 
</g>
<g style="fill:#808000; fill-opacity:0.0; 
  stroke:#00A0A0; stroke-linecap:round; stroke-linejoin:round; stroke-opacity:1.0; stroke-opacity:1.0; stroke-width:100" 
   transform="translate(0 0) scale(1 1)">
<path d="M38500 21500 L42500 21500" /> 
<path d="M38500 22500 L42500 22500" /> 
<path d="M42500 22500 L42500 21500" /> 
<path d="M38500 21500 L38500 22500" /> 
</g>
<g style="fill:#808000; fill-opacity:0.0; 
  stroke:#808000; stroke-linecap:round; stroke-linejoin:round; stroke-opacity:1.0; stroke-opacity:1.0; stroke-width:60" 
   transform="translate(0 0) scale(1 1)">
<path d="M46700 22300 L46700 21700" /> 
<path d="M46700 21700 L47300 21700" /> 
<path d="M47300 21700 L47300 22300" /> 
<path d="M46700 22300 L47300 22300" /> 
<ellipse cx="48000" cy="22000" rx="300" ry="300"  /> 
<ellipse cx="49000" cy="22000" rx="300" ry="300"  /> 
<ellipse cx="50000" cy="22000" rx="300" ry="300"  /> 
</g>
<g style="fill:#808000; fill-opacity:0.0; 
  stroke:#00A0A0; stroke-linecap:round; stroke-linejoin:round; stroke-opacity:1.0; stroke-opacity:1.0; stroke-width:100" 
   transform="translate(0 0) scale(1 1)">
<path d="M50500 22500 L46500 22500" /> 
<path d="M50500 21500 L46500 21500" /> 
<path d="M46500 21500 L46500 22500" /> 
<path d="M50500 22500 L50500 21500" /> 
</g>
<g style="fill:#808000; fill-opacity:0.0; 
  stroke:#808000; stroke-linecap:round; stroke-linejoin:round; stroke-opacity:1.0; stroke-opacity:1.0; stroke-width:60" 
   transform="translate(0 0) scale(1 1)">
<path d="M38700 39300 L38700 38700" /> 
<path d="M38700 38700 L39300 38700" /> 
<path d="M39300 38700 L39300 39300" /> 
<path d="M38700 39300 L39300 39300" /> 
<ellipse cx="40000" cy="39000" rx="300" ry="300"  /> 
<ellipse cx="41000" cy="39000" rx="300" ry="300"  /> 
<ellipse cx="42000" cy="39000" rx="300" ry="300"  /> 
</g>
<g style="fill:#808000; fill-opacity:0.0; 
  stroke:#00A0A0; stroke-linecap:round; stroke-linejoin:round; stroke-opacity:1.0; stroke-opacity:1.0; stroke-width:100" 
   transform="translate(0 0) scale(1 1)">
<path d="M42500 39500 L38500 39500" /> 
<path d="M42500 38500 L38500 38500" /> 
<path d="M38500 38500 L38500 39500" /> 
<path d="M42500 39500 L42500 38500" /> 
</g>
<g style="fill:#808000; fill-opacity:0.0; 
  stroke:#808000; stroke-linecap:round; stroke-linejoin:round; stroke-opacity:1.0; stroke-opacity:1.0; stroke-width:60" 
   transform="translate(0 0) scale(1 1)">
<path d="M42700 39300 L42700 38700" /> 
<path d="M42700 38700 L43300 38700" /> 
<path d="M43300 38700 L43300 39300" /> 
<path d="M42700 39300 L43300 39300" /> 
<ellipse cx="44000" cy="39000" rx="300" ry="300"  /> 
<ellipse cx="45000" cy="39000" rx="300" ry="300"  /> 
<ellipse cx="46000" cy="39000" rx="300" ry="300"  /> 
</g>
<g style="fill:#808000; fill-opacity:0.0; 
  stroke:#00A0A0; stroke-linecap:round; stroke-linejoin:round; stroke-opacity:1.0; stroke-opacity:1.0; stroke-width:100" 
   transform="translate(0 0) scale(1 1)">
<path d="M46500 39500 L42500 39500" /> 
<path d="M46500 38500 L42500 38500" /> 
<path d="M42500 38500 L42500 39500" /> 
<path d="M46500 39500 L46500 38500" /> 
</g>
<g style="fill:#808000; fill-opacity:0.0; 
  stroke:#808000; stroke-linecap:round; stroke-linejoin:round; stroke-opacity:1.0; stroke-opacity:1.0; stroke-width:60" 
   transform="translate(0 0) scale(1 1)">
<path d="M52700 28300 L52700 27700" /> 
<path d="M52700 27700 L53300 27700" /> 
<path d="M53300 27700 L53300 28300" /> 
<path d="M52700 28300 L53300 28300" /> 
<ellipse cx="54000" cy="28000" rx="300" ry="300"  /> 
<ellipse cx="55000" cy="28000" rx="300" ry="300"  /> 
<ellipse cx="56000" cy="28000" rx="300" ry="300"  /> 
</g>
<g style="fill:#808000; fill-opacity:0.0; 
  stroke:#00A0A0; stroke-linecap:round; stroke-linejoin:round; stroke-opacity:1.0; stroke-opacity:1.0; stroke-width:100" 
   transform="translate(0 0) scale(1 1)">
<path d="M56500 28500 L52500 28500" /> 
<path d="M56500 27500 L52500 27500" /> 
<path d="M52500 27500 L52500 28500" /> 
<path d="M56500 28500 L56500 27500" /> 
</g>
<g style="fill:#808000; fill-opacity:0.0; 
  stroke:#808000; stroke-linecap:round; stroke-linejoin:round; stroke-opacity:1.0; stroke-opacity:1.0; stroke-width:60" 
   transform="translate(0 0) scale(1 1)">
<path d="M56300 25700 L56300 26300" /> 
<path d="M56300 26300 L55700 26300" /> 
<path d="M55700 26300 L55700 25700" /> 
<path d="M56300 25700 L55700 25700" /> 
<ellipse cx="55000" cy="26000" rx="300" ry="300"  /> 
<ellipse cx="54000" cy="26000" rx="300" ry="300"  /> 
<ellipse cx="53000" cy="26000" rx="300" ry="300"  /> 
</g>
<g style="fill:#808000; fill-opacity:0.0; 
  stroke:#00A0A0; stroke-linecap:round; stroke-linejoin:round; stroke-opacity:1.0; stroke-opacity:1.0; stroke-width:100" 
   transform="translate(0 0) scale(1 1)">
<path d="M52500 25500 L56500 25500" /> 
<path d="M52500 26500 L56500 26500" /> 
<path d="M56500 26500 L56500 25500" /> 
<path d="M52500 25500 L52500 26500" /> 
</g>
<g style="fill:#808000; fill-opacity:0.0; 
  stroke:#0000C0; stroke-linecap:round; stroke-linejoin:round; stroke-opacity:1.0; stroke-opacity:1.0; stroke-width:0" 
   transform="translate(0 0) scale(1 1)">
<path d="M30748 37250 L30752 37250" /> 
<path d="M30750 37248 L30750 37252" /> 
</g>
<g style="fill:#C0C0C0; fill-opacity:0.0; 
  stroke:#C0C0C0; stroke-linecap:round; stroke-linejoin:round; stroke-opacity:1.0; stroke-opacity:1.0; stroke-width:50" 
   transform="translate(0 0) scale(1 1)">
<path d="M30700 37343 L30686 37357" /> 
<path d="M30686 37357 L30643 37371" /> 
<path d="M30643 37371 L30614 37371" /> 
<path d="M30614 37371 L30571 37357" /> 
<path d="M30571 37357 L30543 37329" /> 
<path d="M30543 37329 L30528 37300" /> 
<path d="M30528 37300 L30514 37243" /> 
<path d="M30514 37243 L30514 37200" /> 
<path d="M30514 37200 L30528 37143" /> 
<path d="M30528 37143 L30543 37114" /> 
<path d="M30543 37114 L30571 37086" /> 
<path d="M30571 37086 L30614 37071" /> 
<path d="M30614 37071 L30643 37071" /> 
<path d="M30643 37071 L30686 37086" /> 
<path d="M30686 37086 L30700 37100" /> 
<g style = "stroke-linecap:round;" > 
<path d="M30700 37100 L30700 37100" /> 
</g><path d="M30986 37371 L30814 37371" /> 
<g style = "stroke-linecap:round;" > 
<path d="M30814 37371 L30814 37371" /> 
</g><path d="M30900 37371 L30900 37071" /> 
<path d="M30900 37071 L30871 37114" /> 
<path d="M30871 37114 L30843 37143" /> 
<path d="M30843 37143 L30814 37157" /> 
<g style = "stroke-linecap:round;" > 
<path d="M30814 37157 L30814 37157" /> 
</g></g>
<g style="fill:#C0C0C0; fill-opacity:0.0; 
  stroke:#00A0A0; stroke-linecap:round; stroke-linejoin:round; stroke-opacity:1.0; stroke-opacity:1.0; stroke-width:50" 
   transform="translate(0 0) scale(1 1)">
<path d="M31750 37700 L31750 36800" /> 
<path d="M31750 36800 L31100 36800" /> 
<path d="M30400 37700 L29750 37700" /> 
<path d="M29750 37700 L29750 36800" /> 
<path d="M29750 36800 L30400 36800" /> 
<path d="M31100 37700 L31750 37700" /> 
</g>
<g style="fill:#808000; fill-opacity:0.0; 
  stroke:#808000; stroke-linecap:round; stroke-linejoin:round; stroke-opacity:1.0; stroke-opacity:1.0; stroke-width:60" 
   transform="translate(0 0) scale(1 1)">
<path d="M24325 30825 L23675 30825" /> 
<path d="M23675 30825 L23675 30175" /> 
<path d="M23675 30175 L24325 30175" /> 
<path d="M24325 30825 L24325 30175" /> 
<ellipse cx="24000" cy="29500" rx="325" ry="325"  /> 
</g>
<g style="fill:#808000; fill-opacity:0.0; 
  stroke:#0000C0; stroke-linecap:round; stroke-linejoin:round; stroke-opacity:1.0; stroke-opacity:1.0; stroke-width:0" 
   transform="translate(0 0) scale(1 1)">
<path d="M26998 30499 L27002 30499" /> 
<path d="M27000 30497 L27000 30501" /> 
</g>
<g style="fill:#C0C0C0; fill-opacity:0.0; 
  stroke:#C0C0C0; stroke-linecap:round; stroke-linejoin:round; stroke-opacity:1.0; stroke-opacity:1.0; stroke-width:80" 
   transform="translate(0 0) scale(1 1)">
<path d="M26943 30685 L26927 30713" /> 
<path d="M26927 30713 L26878 30742" /> 
<path d="M26878 30742 L26846 30742" /> 
<path d="M26846 30742 L26798 30713" /> 
<path d="M26798 30713 L26765 30656" /> 
<path d="M26765 30656 L26749 30599" /> 
<path d="M26749 30599 L26733 30485" /> 
<path d="M26733 30485 L26733 30399" /> 
<path d="M26733 30399 L26749 30285" /> 
<path d="M26749 30285 L26765 30228" /> 
<path d="M26765 30228 L26798 30170" /> 
<path d="M26798 30170 L26846 30142" /> 
<path d="M26846 30142 L26878 30142" /> 
<path d="M26878 30142 L26927 30170" /> 
<path d="M26927 30170 L26943 30199" /> 
<g style = "stroke-linecap:round;" > 
<path d="M26943 30199 L26943 30199" /> 
</g><path d="M27057 30142 L27267 30142" /> 
<path d="M27267 30142 L27154 30370" /> 
<path d="M27154 30370 L27202 30370" /> 
<path d="M27202 30370 L27235 30399" /> 
<path d="M27235 30399 L27251 30428" /> 
<path d="M27251 30428 L27267 30485" /> 
<path d="M27267 30485 L27267 30628" /> 
<path d="M27267 30628 L27251 30685" /> 
<path d="M27251 30685 L27235 30713" /> 
<path d="M27235 30713 L27202 30742" /> 
<path d="M27202 30742 L27105 30742" /> 
<path d="M27105 30742 L27073 30713" /> 
<path d="M27073 30713 L27057 30685" /> 
<g style = "stroke-linecap:round;" > 
<path d="M27057 30685 L27057 30685" /> 
</g></g>
<g style="fill:#C0C0C0; fill-opacity:0.0; 
  stroke:#0000C0; stroke-linecap:round; stroke-linejoin:round; stroke-opacity:1.0; stroke-opacity:1.0; stroke-width:0" 
   transform="translate(0 0) scale(1 1)">
<path d="M26998 29500 L27002 29500" /> 
<path d="M27000 29498 L27000 29502" /> 
</g>
<g style="fill:#C0C0C0; fill-opacity:0.0; 
  stroke:#C0C0C0; stroke-linecap:round; stroke-linejoin:round; stroke-opacity:1.0; stroke-opacity:1.0; stroke-width:80" 
   transform="translate(0 0) scale(1 1)">
<path d="M26734 29655 L26715 29679" /> 
<path d="M26715 29679 L26658 29702" /> 
<path d="M26658 29702 L26620 29702" /> 
<path d="M26620 29702 L26562 29679" /> 
<path d="M26562 29679 L26524 29631" /> 
<path d="M26524 29631 L26505 29583" /> 
<path d="M26505 29583 L26486 29488" /> 
<path d="M26486 29488 L26486 29417" /> 
<path d="M26486 29417 L26505 29321" /> 
<path d="M26505 29321 L26524 29274" /> 
<path d="M26524 29274 L26562 29226" /> 
<path d="M26562 29226 L26620 29202" /> 
<path d="M26620 29202 L26658 29202" /> 
<path d="M26658 29202 L26715 29226" /> 
<path d="M26715 29226 L26734 29250" /> 
<g style = "stroke-linecap:round;" > 
<path d="M26734 29250 L26734 29250" /> 
</g><path d="M26905 29702 L26905 29202" /> 
<path d="M26905 29202 L27058 29202" /> 
<path d="M27058 29202 L27096 29226" /> 
<path d="M27096 29226 L27115 29250" /> 
<path d="M27115 29250 L27134 29298" /> 
<path d="M27134 29298 L27134 29369" /> 
<path d="M27134 29369 L27115 29417" /> 
<path d="M27115 29417 L27096 29440" /> 
<path d="M27096 29440 L27058 29464" /> 
<path d="M27058 29464 L26905 29464" /> 
<g style = "stroke-linecap:round;" > 
<path d="M26905 29464 L26905 29464" /> 
</g><path d="M27515 29702 L27286 29702" /> 
<g style = "stroke-linecap:round;" > 
<path d="M27286 29702 L27286 29702" /> 
</g><path d="M27400 29702 L27400 29202" /> 
<path d="M27400 29202 L27362 29274" /> 
<path d="M27362 29274 L27324 29321" /> 
<path d="M27324 29321 L27286 29345" /> 
<g style = "stroke-linecap:round;" > 
<path d="M27286 29345 L27286 29345" /> 
</g></g>
<g style="fill:#C0C0C0; fill-opacity:0.0; 
  stroke:#0000C0; stroke-linecap:round; stroke-linejoin:round; stroke-opacity:1.0; stroke-opacity:1.0; stroke-width:0" 
   transform="translate(0 0) scale(1 1)">
<path d="M25048 30600 L25052 30600" /> 
<path d="M25050 30598 L25050 30602" /> 
</g>
<g style="fill:#C0C0C0; fill-opacity:0.0; 
  stroke:#C0C0C0; stroke-linecap:round; stroke-linejoin:round; stroke-opacity:1.0; stroke-opacity:1.0; stroke-width:120" 
   transform="translate(0 0) scale(1 1)">
<path d="M25064 30828 L25064 30371" /> 
<g style = "stroke-linecap:round;" > 
<path d="M25064 30371 L25064 30371" /> 
</g><path d="M25293 30600 L24836 30600" /> 
<g style = "stroke-linecap:round;" > 
<path d="M24836 30600 L24836 30600" /> 
</g></g>
<g style="fill:#C0C0C0; fill-opacity:0.0; 
  stroke:#00A0A0; stroke-linecap:round; stroke-linejoin:round; stroke-opacity:1.0; stroke-opacity:1.0; stroke-width:80" 
   transform="translate(0 0) scale(1 1)">
<path d="M24750 28500 L24750 31500" /> 
<path d="M24750 31500 L29000 31500" /> 
<path d="M29000 31500 L29000 28500" /> 
<path d="M29000 28500 L24750 28500" /> 
<path d="M24000 30500 L24750 30500" /> 
<path d="M24000 29500 L24750 29500" /> 
</g>
<g style="fill:#808000; fill-opacity:0.0; 
  stroke:#808000; stroke-linecap:round; stroke-linejoin:round; stroke-opacity:1.0; stroke-opacity:1.0; stroke-width:60" 
   transform="translate(0 0) scale(1 1)">
<path d="M46700 39300 L46700 38700" /> 
<path d="M46700 38700 L47300 38700" /> 
<path d="M47300 38700 L47300 39300" /> 
<path d="M46700 39300 L47300 39300" /> 
<ellipse cx="48000" cy="39000" rx="300" ry="300"  /> 
<ellipse cx="49000" cy="39000" rx="300" ry="300"  /> 
<ellipse cx="50000" cy="39000" rx="300" ry="300"  /> 
</g>
<g style="fill:#808000; fill-opacity:0.0; 
  stroke:#00A0A0; stroke-linecap:round; stroke-linejoin:round; stroke-opacity:1.0; stroke-opacity:1.0; stroke-width:100" 
   transform="translate(0 0) scale(1 1)">
<path d="M50500 39500 L46500 39500" /> 
<path d="M50500 38500 L46500 38500" /> 
<path d="M46500 38500 L46500 39500" /> 
<path d="M50500 39500 L50500 38500" /> 
</g>
<g style="fill:#808000; fill-opacity:0.0; 
  stroke:#808000; stroke-linecap:round; stroke-linejoin:round; stroke-opacity:1.0; stroke-opacity:1.0; stroke-width:60" 
   transform="translate(0 0) scale(1 1)">
<path d="M50700 39300 L50700 38700" /> 
<path d="M50700 38700 L51300 38700" /> 
<path d="M51300 38700 L51300 39300" /> 
<path d="M50700 39300 L51300 39300" /> 
<ellipse cx="52000" cy="39000" rx="300" ry="300"  /> 
<ellipse cx="53000" cy="39000" rx="300" ry="300"  /> 
<ellipse cx="54000" cy="39000" rx="300" ry="300"  /> 
</g>
<g style="fill:#808000; fill-opacity:0.0; 
  stroke:#00A0A0; stroke-linecap:round; stroke-linejoin:round; stroke-opacity:1.0; stroke-opacity:1.0; stroke-width:100" 
   transform="translate(0 0) scale(1 1)">
<path d="M54500 39500 L50500 39500" /> 
<path d="M54500 38500 L50500 38500" /> 
<path d="M50500 38500 L50500 39500" /> 
<path d="M54500 39500 L54500 38500" /> 
</g>
<g style="fill:#808000; fill-opacity:0.0; 
  stroke:#808000; stroke-linecap:round; stroke-linejoin:round; stroke-opacity:1.0; stroke-opacity:1.0; stroke-width:60" 
   transform="translate(0 0) scale(1 1)">
<path d="M54700 39300 L54700 38700" /> 
<path d="M54700 38700 L55300 38700" /> 
<path d="M55300 38700 L55300 39300" /> 
<path d="M54700 39300 L55300 39300" /> 
<ellipse cx="56000" cy="39000" rx="300" ry="300"  /> 
<ellipse cx="57000" cy="39000" rx="300" ry="300"  /> 
<ellipse cx="58000" cy="39000" rx="300" ry="300"  /> 
</g>
<g style="fill:#808000; fill-opacity:0.0; 
  stroke:#00A0A0; stroke-linecap:round; stroke-linejoin:round; stroke-opacity:1.0; stroke-opacity:1.0; stroke-width:100" 
   transform="translate(0 0) scale(1 1)">
<path d="M58500 39500 L54500 39500" /> 
<path d="M58500 38500 L54500 38500" /> 
<path d="M54500 38500 L54500 39500" /> 
<path d="M58500 39500 L58500 38500" /> 
</g>
<g style="fill:#808000; fill-opacity:0.0; 
  stroke:#0000C0; stroke-linecap:round; stroke-linejoin:round; stroke-opacity:1.0; stroke-opacity:1.0; stroke-width:0" 
   transform="translate(0 0) scale(1 1)">
<path d="M24598 25300 L24602 25300" /> 
<path d="M24600 25298 L24600 25302" /> 
</g>
<g style="fill:#C0C0C0; fill-opacity:0.0; 
  stroke:#C0C0C0; stroke-linecap:round; stroke-linejoin:round; stroke-opacity:1.0; stroke-opacity:1.0; stroke-width:50" 
   transform="translate(0 0) scale(1 1)">
<path d="M24362 25857 L24686 25857" /> 
<path d="M24686 25857 L24724 25835" /> 
<path d="M24724 25835 L24743 25814" /> 
<path d="M24743 25814 L24762 25771" /> 
<path d="M24762 25771 L24762 25685" /> 
<path d="M24762 25685 L24743 25643" /> 
<path d="M24743 25643 L24724 25621" /> 
<path d="M24724 25621 L24686 25600" /> 
<path d="M24686 25600 L24362 25600" /> 
<g style = "stroke-linecap:round;" > 
<path d="M24362 25600 L24362 25600" /> 
</g><path d="M24762 25150 L24762 25407" /> 
<g style = "stroke-linecap:round;" > 
<path d="M24762 25407 L24762 25407" /> 
</g><path d="M24762 25279 L24362 25279" /> 
<path d="M24362 25279 L24419 25322" /> 
<path d="M24419 25322 L24457 25364" /> 
<path d="M24457 25364 L24476 25407" /> 
<g style = "stroke-linecap:round;" > 
<path d="M24476 25407 L24476 25407" /> 
</g><path d="M24362 24871 L24362 24828" /> 
<path d="M24362 24828 L24381 24785" /> 
<path d="M24381 24785 L24400 24764" /> 
<path d="M24400 24764 L24438 24743" /> 
<path d="M24438 24743 L24514 24721" /> 
<path d="M24514 24721 L24610 24721" /> 
<path d="M24610 24721 L24686 24743" /> 
<path d="M24686 24743 L24724 24764" /> 
<path d="M24724 24764 L24743 24785" /> 
<path d="M24743 24785 L24762 24828" /> 
<path d="M24762 24828 L24762 24871" /> 
<path d="M24762 24871 L24743 24914" /> 
<path d="M24743 24914 L24724 24935" /> 
<path d="M24724 24935 L24686 24957" /> 
<path d="M24686 24957 L24610 24978" /> 
<path d="M24610 24978 L24514 24978" /> 
<path d="M24514 24978 L24438 24957" /> 
<path d="M24438 24957 L24400 24935" /> 
<path d="M24400 24935 L24381 24914" /> 
<path d="M24381 24914 L24362 24871" /> 
</g>
<g style="fill:#C0C0C0; fill-opacity:0.0; 
  stroke:#0000C0; stroke-linecap:round; stroke-linejoin:round; stroke-opacity:1.0; stroke-opacity:1.0; stroke-width:0" 
   transform="translate(0 0) scale(1 1)">
<path d="M25598 25300 L25602 25300" /> 
<path d="M25600 25298 L25600 25302" /> 
</g>
<g style="fill:#C0C0C0; fill-opacity:0.0; 
  stroke:#C0C0C0; stroke-linecap:round; stroke-linejoin:round; stroke-opacity:1.0; stroke-opacity:1.0; stroke-width:50" 
   transform="translate(0 0) scale(1 1)">
<path d="M25362 26414 L25362 26147" /> 
<path d="M25362 26147 L25762 26319" /> 
<g style = "stroke-linecap:round;" > 
<path d="M25762 26319 L25762 26319" /> 
</g><path d="M25495 25823 L25762 25823" /> 
<g style = "stroke-linecap:round;" > 
<path d="M25762 25823 L25762 25823" /> 
</g><path d="M25343 25919 L25629 26014" /> 
<path d="M25629 26014 L25629 25766" /> 
<g style = "stroke-linecap:round;" > 
<path d="M25629 25766 L25629 25766" /> 
</g><path d="M25762 25614 L25362 25614" /> 
<g style = "stroke-linecap:round;" > 
<path d="M25362 25614 L25362 25614" /> 
</g><path d="M25552 25614 L25552 25385" /> 
<g style = "stroke-linecap:round;" > 
<path d="M25552 25385 L25552 25385" /> 
</g><path d="M25762 25385 L25362 25385" /> 
<g style = "stroke-linecap:round;" > 
<path d="M25362 25385 L25362 25385" /> 
</g><path d="M25724 24966 L25743 24985" /> 
<path d="M25743 24985 L25762 25042" /> 
<path d="M25762 25042 L25762 25080" /> 
<path d="M25762 25080 L25743 25138" /> 
<path d="M25743 25138 L25705 25176" /> 
<path d="M25705 25176 L25667 25195" /> 
<path d="M25667 25195 L25590 25214" /> 
<path d="M25590 25214 L25533 25214" /> 
<path d="M25533 25214 L25457 25195" /> 
<path d="M25457 25195 L25419 25176" /> 
<path d="M25419 25176 L25381 25138" /> 
<path d="M25381 25138 L25362 25080" /> 
<path d="M25362 25080 L25362 25042" /> 
<path d="M25362 25042 L25381 24985" /> 
<path d="M25381 24985 L25400 24966" /> 
<g style = "stroke-linecap:round;" > 
<path d="M25400 24966 L25400 24966" /> 
</g><path d="M25762 24585 L25762 24814" /> 
<g style = "stroke-linecap:round;" > 
<path d="M25762 24814 L25762 24814" /> 
</g><path d="M25762 24700 L25362 24700" /> 
<path d="M25362 24700 L25419 24738" /> 
<path d="M25419 24738 L25457 24776" /> 
<path d="M25457 24776 L25476 24814" /> 
<g style = "stroke-linecap:round;" > 
<path d="M25476 24814 L25476 24814" /> 
</g><path d="M25495 24242 L25762 24242" /> 
<g style = "stroke-linecap:round;" > 
<path d="M25762 24242 L25762 24242" /> 
</g><path d="M25343 24338 L25629 24433" /> 
<path d="M25629 24433 L25629 24185" /> 
<g style = "stroke-linecap:round;" > 
<path d="M25629 24185 L25629 24185" /> 
</g></g>
<g style="fill:#C0C0C0; fill-opacity:0.0; 
  stroke:#00A0A0; stroke-linecap:round; stroke-linejoin:round; stroke-opacity:1.0; stroke-opacity:1.0; stroke-width:80" 
   transform="translate(0 0) scale(1 1)">
<path d="M24200 23300 L26100 23300" /> 
<path d="M26100 23300 L26100 27300" /> 
<path d="M26100 27300 L24200 27300" /> 
<path d="M24200 27300 L24200 23300" /> 
<path d="M24900 27300 L24900 27050" /> 
<path d="M24900 27050 L25400 27050" /> 
<path d="M25400 27050 L25400 27300" /> 
</g> 
</svg> 
